<svg xmlns="http://www.w3.org/2000/svg" width="180" height="100" viewBox="0 0 180 100">
  <path fill="#000" d="M57.4264,66.3578a2.1238,2.1238,0,0,0-1.0088.1517.797.797,0,0,1,.1166.2359.9454.9454,0,0,1,.0457.2756.5907.5907,0,0,1-.1141.36.3871.3871,0,0,1-.3336.1561.3645.3645,0,0,1-.2938-.1188.483.483,0,0,1-.1009-.3233.7383.7383,0,0,1,.4737-.6935,2.8391,2.8391,0,0,1,1.2063-.2038q.3552,0,.6842.03t1.0414.124a9.8045,9.8045,0,0,0,1.2309.0927,4.3809,4.3809,0,0,0,.6693-.0433,1.657,1.657,0,0,0,.4843-.1517.69.69,0,0,1-.2193-.4985.5354.5354,0,0,1,.1123-.3424.3882.3882,0,0,1,.3266-.143.3722.3722,0,0,1,.3.1213.4494.4494,0,0,1,.1035.3035.6124.6124,0,0,1-.1158.36,1.0437,1.0437,0,0,1-.3053.2818,2.7859,2.7859,0,0,1-1.4212.29,8.0376,8.0376,0,0,1-.9212-.0606l-1.3248,4.9238a1.7352,1.7352,0,0,0-.0789.4508.34.34,0,0,0,.0746.2358.4274.4274,0,0,0,.2344.1213,2.3825,2.3825,0,0,0,.4457.0459l-.0352.1778q-.4736-.0259-1.3422-.026-.8778,0-1.3115.026l.0394-.1778a1.9351,1.9351,0,0,0,.5895-.0909.6684.6684,0,0,0,.3273-.2515,1.9708,1.9708,0,0,0,.2237-.5115l1.3555-5.0279A8.9675,8.9675,0,0,0,57.4264,66.3578ZM62.62,68.8111a2.4763,2.4763,0,0,1,.5914-.7481,1.0544,1.0544,0,0,1,.6562-.2315.5242.5242,0,0,1,.3877.1414.4827.4827,0,0,1,.143.3614.6121.6121,0,0,1-.0877.3207.6713.6713,0,0,1-.2324.2341.5927.5927,0,0,1-.3115.0867.3874.3874,0,0,1-.257-.0841.2984.2984,0,0,1-.0983-.2367.5818.5818,0,0,1,.4036-.5677.1363.1363,0,0,0-.1009-.0347q-.32,0-.6844.4681a6.2363,6.2363,0,0,0-.7324,1.3089,17.3516,17.3516,0,0,0-.7019,1.9462l-.1886.7412h-.78l1.0747-3.81a1.2966,1.2966,0,0,0,.0658-.3467c0-.1361-.0631-.2037-.1886-.2037a.4691.4691,0,0,0-.3667.21,2.608,2.608,0,0,0-.3351.6961l-.1185.3294h-.1713l.2281-.6458a1.1333,1.1333,0,0,1,1.0835-.9146.4573.4573,0,0,1,.5176.3869.4526.4526,0,0,1,0,.1289,1.5726,1.5726,0,0,1-.0306.2991c-.02.104-.0527.2453-.0966.4248l-.2894,1.1269a10.2505,10.2505,0,0,1,.6211-1.387Zm6.0526,2.2582-.2237.65a1.5744,1.5744,0,0,1-.4606.71.93.93,0,0,1-.5746.2141.6592.6592,0,0,1-.2957-.0629.4773.4773,0,0,1-.2-.1706.6149.6149,0,0,1-.0746-.3121,1.3027,1.3027,0,0,1,.0307-.2713c.02-.0937.0422-.183.0659-.2688s.0377-.14.0438-.1665l.1623-.6458a4.7829,4.7829,0,0,1-.8756,1.4477,1.3076,1.3076,0,0,1-.9317.4508.74.74,0,0,1-.63-.2922,1.2909,1.2909,0,0,1-.2164-.7827,4.0553,4.0553,0,0,1,.3886-1.6081,4.8794,4.8794,0,0,1,1.0036-1.5084,1.795,1.795,0,0,1,1.2615-.62.5077.5077,0,0,1,.3931.1734.8161.8161,0,0,1,.1816.49l.14-.5418a2.9493,2.9493,0,0,0,.8291-.1214l-1.1229,3.9226a1.44,1.44,0,0,0-.0658.3294q0,.2211.2018.221.3946,0,.6886-.9058l.11-.3294Zm-1.0615-2.2972a1.056,1.056,0,0,0-.13-.5635.4072.4072,0,0,0-.3658-.208q-.3816,0-.8132.5877a5.2631,5.2631,0,0,0-.7247,1.4537,5.1364,5.1364,0,0,0-.2913,1.63,1.2638,1.2638,0,0,0,.079.5262.25.25,0,0,0,.2324.1586.94.94,0,0,0,.5992-.3788,4.941,4.941,0,0,0,.6844-1.0125,7.7316,7.7316,0,0,0,.5544-1.3524l.1667-.6458c.0063-.0928.0089-.1578.0089-.195Zm3.9522.8166A5.3474,5.3474,0,0,0,71.078,71.39c-.0062.0979-.009.1673-.009.208q0,.75.3948.75a1.6135,1.6135,0,0,0,1.1843-.5418,3.9934,3.9934,0,0,0,.8335-1.2985,4.2385,4.2385,0,0,0,.3378-1.354,1.4119,1.4119,0,0,1-.4914-.3919.78.78,0,0,1-.1666-.5658.3664.3664,0,0,1,.1316-.2817.422.422,0,0,1,.2632-.091.41.41,0,0,1,.3816.24,1.4161,1.4161,0,0,1,.1272.657,3.3241,3.3241,0,0,1-.022.3512,6.008,6.008,0,0,1-.4711,1.7337,3.6376,3.6376,0,0,1-.9676,1.3263,2.1058,2.1058,0,0,1-1.3993.5114.9794.9794,0,0,1-.7808-.2886,1.0544,1.0544,0,0,1-.25-.7169l.0044-.0954a3.6246,3.6246,0,0,1,.616-1.6272,9.1071,9.1071,0,0,1,1.4676-1.7492,2.8954,2.8954,0,0,0-.4412.23c-.1851.1126-.3325.1968-.4405.2514a.6733.6733,0,0,1-.3026.0824.3457.3457,0,0,1-.1448-.03,1.83,1.83,0,0,1-.1947-.1127.4465.4465,0,0,0-.2263-.0823.289.289,0,0,0-.2352.12,1.6065,1.6065,0,0,0-.2035.4311l-.1009.3294h-.1713l.1974-.6458q.25-.9061.8466-.9059a.5377.5377,0,0,1,.3264.1153c.1044.0764.1877.1336.2508.1734a.4528.4528,0,0,0,.2387.0581,1.0856,1.0856,0,0,0,.7545-.2774l.0921-.1691.1887.0911a8.3226,8.3226,0,0,0-1.1333,1.7651Zm5.8727,2.4446a2.3946,2.3946,0,0,1-.63.44,1.6118,1.6118,0,0,1-.7123.169,1.1543,1.1543,0,0,1-.87-.3233,1.2759,1.2759,0,0,1-.314-.9292,3.6289,3.6289,0,0,1,.3991-1.5188,4.3544,4.3544,0,0,1,1.082-1.4442,2.207,2.207,0,0,1,1.48-.5956.7365.7365,0,0,1,.4779.1518.525.525,0,0,1,.1886.4334,1.51,1.51,0,0,1-.8115,1.2527,8.0444,8.0444,0,0,1-1.873.8885,3.8336,3.8336,0,0,0-.1009.8582q0,.8542.6185.8538a1.7238,1.7238,0,0,0,1.3861-.8885l.1448.0694a2.7715,2.7715,0,0,1-.4648.5828Zm-.408-3.7016a3.6246,3.6246,0,0,0-.6641.8842,4.9241,4.9241,0,0,0-.4719,1.1729,4.6128,4.6128,0,0,0,1.2238-.5721,1.8,1.8,0,0,0,.5176-.6216,1.7483,1.7483,0,0,0,.1842-.7958.9322.9322,0,0,0-.0351-.319.1159.1159,0,0,0-.11-.08,1.01,1.01,0,0,0-.6447.3311Zm2.9364,3.7431c0,.1587.07.2385.21.2385a.4363.4363,0,0,0,.3378-.2055,2.7131,2.7131,0,0,0,.3336-.7l.1184-.3294h.1713l-.2238.65q-.3246.9141-1.0791.9146-.6184,0-.6184-.5765a2.4673,2.4673,0,0,1,.1228-.6674l1.4651-4.8025a1.032,1.032,0,0,0,.0439-.2471.2726.2726,0,0,0-.1407-.2573,1,1,0,0,0-.4694-.0808l.0614-.1864a3.82,3.82,0,0,0,.8572-.0953,3.5971,3.5971,0,0,0,.7439-.2687l-1.8774,6.3022a1.1882,1.1882,0,0,0-.0569.312Zm11.3909-.3467a1.1348,1.1348,0,0,1-1.0879.9146A.6132.6132,0,0,1,89.71,72.4a.5533.5533,0,0,1-.0746-.3034,2.4589,2.4589,0,0,1,.1491-.6978l.851-2.54a1.6321,1.6321,0,0,0,.0921-.4682c0-.1846-.0658-.2774-.1974-.2774q-.3461,0-.7562.5375a7.472,7.472,0,0,0-.8317,1.4908,21.1724,21.1724,0,0,0-.8115,2.1975l.0091-.0433-.0614.2211h-.8115l1.123-3.6582a1.5543,1.5543,0,0,0,.0921-.4551c0-.1933-.0834-.2905-.25-.2905q-.3291,0-.7352.5072a6.5893,6.5893,0,0,0-.8019,1.3844,14.0507,14.0507,0,0,0-.7,1.94l-.1448.5721H85.07l1.0748-3.81a1.2941,1.2941,0,0,0,.0658-.3251c0-.15-.0631-.2254-.1886-.2254a.4693.4693,0,0,0-.3668.21,2.6136,2.6136,0,0,0-.335.6961l-.1185.3294H85.03l.228-.6458a1.1333,1.1333,0,0,1,1.0835-.9146.4655.4655,0,0,1,.522.5332,2.6285,2.6285,0,0,1-.1316.7065l-.2851,1.1182a9.0713,9.0713,0,0,1,.6887-1.387,2.4909,2.4909,0,0,1,.6649-.7429,1.2591,1.2591,0,0,1,.7256-.228q.5882,0,.5878.6242a2.8276,2.8276,0,0,1-.1184.7152l-.32,1.1746a10.6607,10.6607,0,0,1,.708-1.4711,2.7068,2.7068,0,0,1,.6756-.794,1.28,1.28,0,0,1,.7658-.2489.5934.5934,0,0,1,.4826.18.7384.7384,0,0,1,.1491.4838,2.1358,2.1358,0,0,1-.1272.6762l-.873,2.5919a1.1826,1.1826,0,0,0-.0657.3381.1867.1867,0,0,0,.1579.212.1892.1892,0,0,0,.0526,0,.4629.4629,0,0,0,.3509-.202,2.38,2.38,0,0,0,.3422-.7039l.1184-.3294h.1671Zm5.384-.6587-.2237.65a1.5738,1.5738,0,0,1-.4606.71.93.93,0,0,1-.5746.2141.6592.6592,0,0,1-.2957-.0629.4767.4767,0,0,1-.2-.1706.6149.6149,0,0,1-.0746-.3121,1.3027,1.3027,0,0,1,.0307-.2713c.02-.0937.0421-.183.0658-.2688s.0378-.14.0439-.1665l.1623-.6458a4.7849,4.7849,0,0,1-.8756,1.4477,1.3076,1.3076,0,0,1-.9317.4508.74.74,0,0,1-.63-.2922,1.2913,1.2913,0,0,1-.2163-.7827,4.0571,4.0571,0,0,1,.3887-1.6081,4.8794,4.8794,0,0,1,1.0036-1.5084,1.795,1.795,0,0,1,1.2615-.62.5081.5081,0,0,1,.3931.1734.8154.8154,0,0,1,.1815.49l.14-.5418a2.9493,2.9493,0,0,0,.8291-.1214l-1.1229,3.9226a1.44,1.44,0,0,0-.0658.3294q0,.2211.2018.221.3946,0,.6886-.9058l.11-.3294Zm-1.0615-2.2973a1.056,1.056,0,0,0-.13-.5635.4074.4074,0,0,0-.3659-.208q-.3815,0-.8131.5877a5.26,5.26,0,0,0-.7247,1.4537,5.1369,5.1369,0,0,0-.2913,1.63,1.2638,1.2638,0,0,0,.079.5262.25.25,0,0,0,.2324.1587.9405.9405,0,0,0,.5992-.3789,4.9383,4.9383,0,0,0,.6844-1.0125,7.7316,7.7316,0,0,0,.5544-1.3524l.1667-.6458c.0063-.0928.0089-.1578.0089-.195Zm4.6575,3.2525a.9194.9194,0,0,1,.3387.2323.5129.5129,0,0,1,.12.3467,1.1949,1.1949,0,0,1-.3044.73,2.3133,2.3133,0,0,1-.9107.6484,3.621,3.621,0,0,1-1.4516.2644,2.2934,2.2934,0,0,1-1.0176-.1759.5263.5263,0,0,1-.3426-.47q0-.693,1.5309-1.2873a.4826.4826,0,0,1-.3422-.4638.6766.6766,0,0,1,.107-.3624,1.478,1.478,0,0,1,.4088-.3788,6.69,6.69,0,0,1,.8656-.4811,1.5239,1.5239,0,0,1-.8926-.2558.8291.8291,0,0,1-.3273-.7108,1.8231,1.8231,0,0,1,.21-.8,1.8648,1.8648,0,0,1,.6668-.7281,2.048,2.048,0,0,1,1.1493-.3009,2.2756,2.2756,0,0,1,.4606.0434,2.3972,2.3972,0,0,1,.5834-.6675,1.05,1.05,0,0,1,.5834-.195q.3855,0,.386.312a.476.476,0,0,1-.07.2445.592.592,0,0,1-.1842.1959.4378.4378,0,0,1-.2457.0754.2512.2512,0,0,1-.1842-.0693.2573.2573,0,0,1-.07-.1908.4737.4737,0,0,1,.1185-.3164.0724.0724,0,0,0-.0527-.0173.4885.4885,0,0,0-.2193.0867,1.729,1.729,0,0,0-.4913.5807.868.868,0,0,1,.6711.91,1.5946,1.5946,0,0,1-.2237.7993,1.963,1.963,0,0,1-.6311.6641,2.0486,2.0486,0,0,1-.9257.3268c-.0964.052-.2474.1326-.4544.2425a3.1315,3.1315,0,0,0-.46.286.3223.3223,0,0,0-.1518.23q0,.1652.54.2991l.6536.169a4.2082,4.2082,0,0,1,.5595.184ZM97.522,73.4489a.5561.5561,0,0,0,.2369.4811,1.0409,1.0409,0,0,0,.6185.169,2.4,2.4,0,0,0,.8352-.156,1.9791,1.9791,0,0,0,.6983-.4205.7959.7959,0,0,0,.2738-.5807.1472.1472,0,0,0-.0878-.1431,1.2986,1.2986,0,0,0-.2413-.0824c-.1026-.0259-.1728-.0449-.21-.0563l-1.2063-.3033q-.9177.485-.9169,1.0922Zm2.6451-3.2916a1.7077,1.7077,0,0,0,.3667-.7364,3.8311,3.8311,0,0,0,.0983-.8521q0-.576-.5308-.5765a.8439.8439,0,0,0-.7238.3745,2.3228,2.3228,0,0,0-.3728.8263,3.3057,3.3057,0,0,0-.1053.6978.6.6,0,0,0,.1378.4421.5562.5562,0,0,0,.4017.1347.9119.9119,0,0,0,.728-.31Zm6.2042.9121-.2237.65a1.5736,1.5736,0,0,1-.46.71.93.93,0,0,1-.5746.2141.6592.6592,0,0,1-.2957-.0629.4776.4776,0,0,1-.2-.1706.6158.6158,0,0,1-.0745-.3121,1.3027,1.3027,0,0,1,.0307-.2713c.02-.0937.0421-.183.0658-.2688s.0377-.14.0439-.1665l.1623-.6458a4.7849,4.7849,0,0,1-.8756,1.4477,1.3076,1.3076,0,0,1-.9317.4508.74.74,0,0,1-.63-.2922,1.2914,1.2914,0,0,1-.2164-.7827,4.0571,4.0571,0,0,1,.3887-1.6081,4.8794,4.8794,0,0,1,1.0036-1.5084,1.7952,1.7952,0,0,1,1.2616-.62.5078.5078,0,0,1,.393.1734.8148.8148,0,0,1,.1816.49l.14-.5418a2.9493,2.9493,0,0,0,.8291-.1214l-1.1231,3.9215a1.4467,1.4467,0,0,0-.0657.3294q0,.2211.2018.2211.3947,0,.6886-.9058l.11-.3295ZM105.31,68.7721a1.055,1.055,0,0,0-.13-.5635.4074.4074,0,0,0-.3659-.208q-.3816,0-.8132.5877a5.2628,5.2628,0,0,0-.7246,1.4537,5.1341,5.1341,0,0,0-.2913,1.63,1.2638,1.2638,0,0,0,.079.5262.25.25,0,0,0,.2324.1587.9405.9405,0,0,0,.5992-.3789,4.9383,4.9383,0,0,0,.6844-1.0125,7.7394,7.7394,0,0,0,.5544-1.3524l.1667-.6458c.0059-.0928.0086-.1578.0086-.195Zm2.8312,3.0427a1.2625,1.2625,0,0,1,.4869-.104,1.31,1.31,0,0,1,.4518.0867q.2369.087.4035.14a1.1492,1.1492,0,0,0,.36.0546.5423.5423,0,0,0,.3615-.11.4123.4123,0,0,0,.13-.3323.5219.5219,0,0,0-.1947-.4049,1.0942,1.0942,0,0,0-.5114-.2366l.0525-.13a1.3106,1.3106,0,0,1,.6467.3077.73.73,0,0,1,.2263.55,1.011,1.011,0,0,1-.107.462.82.82,0,0,1-.34.34,1.2144,1.2144,0,0,1-.5966.13,1.4911,1.4911,0,0,1-.5983-.1257q-.2922-.1261-.4738-.1908a1.4345,1.4345,0,0,0-.472-.065,1.2539,1.2539,0,0,0-.4386.0711,1.0861,1.0861,0,0,0-.3728.2583h-.2413l4.0531-4.2173a4.8462,4.8462,0,0,1-.6562.36,1.2461,1.2461,0,0,1-.4843.104,1.2919,1.2919,0,0,1-.4518-.0885c-.158-.06-.2921-.1078-.4036-.1437a1.1755,1.1755,0,0,0-.36-.0539.5339.5339,0,0,0-.3624.1127.42.42,0,0,0-.1289.3338.52.52,0,0,0,.1956.4047,1.059,1.059,0,0,0,.5106.2324l-.0526.1347q-.8726-.199-.873-.8622a.992.992,0,0,1,.1082-.4611.8065.8065,0,0,1,.34-.3407,1.2112,1.2112,0,0,1,.5965-.13,1.4977,1.4977,0,0,1,.5992.1257q.2908.1263.4737.1908a1.4243,1.4243,0,0,0,.4711.065,1.2139,1.2139,0,0,0,.4387-.0719,1.0608,1.0608,0,0,0,.3728-.2574h.2413l-4.0531,4.2173a4.8883,4.8883,0,0,1,.653-.356Zm5.0506-3.4329c0-.15-.064-.2254-.193-.2254a.4593.4593,0,0,0-.3685.215,2.8915,2.8915,0,0,0-.3421.6909l-.1272.3294h-.1667l.2325-.6458a1.4094,1.4094,0,0,1,.4825-.7108,1.1,1.1,0,0,1,.6312-.2038q.5961,0,.5966.5548a2.2061,2.2061,0,0,1-.1491.6849l-.9607,2.6917a.9836.9836,0,0,0-.07.325c0,.15.0722.2254.215.2254a.45.45,0,0,0,.3465-.202,2.79,2.79,0,0,0,.3553-.7039l.1228-.3294h.1713l-.2324.65a1.4589,1.4589,0,0,1-.4694.6979,1.0473,1.0473,0,0,1-.636.2167q-.6277,0-.6273-.5418a2.14,2.14,0,0,1,.1579-.7021l.9647-2.6917A1.0583,1.0583,0,0,0,113.1916,68.3819Zm.2939-2.2608a.7528.7528,0,0,1,.2518-.2532.6157.6157,0,0,1,.3228-.0953.4389.4389,0,0,1,.329.1318.46.46,0,0,1,.1273.3323.6124.6124,0,0,1-.0948.3268.7286.7286,0,0,1-.2518.25.63.63,0,0,1-.3289.0953.4353.4353,0,0,1-.3246-.13.4458.4458,0,0,1-.1272-.3251.6329.6329,0,0,1,.0962-.3322ZM119.4,71.728a1.1349,1.1349,0,0,1-1.0879.9146.6129.6129,0,0,1-.5658-.26.5443.5443,0,0,1-.07-.29,2.2764,2.2764,0,0,1,.1533-.6935l.8511-2.54a1.3909,1.3909,0,0,0,.0919-.4374q0-.3083-.29-.3078a1.1637,1.1637,0,0,0-.7807.4959,6.1332,6.1332,0,0,0-.8528,1.3636,12.5962,12.5962,0,0,0-.73,1.9245l-.158.62h-.7807l1.0747-3.81a1.2145,1.2145,0,0,0,.0658-.3337c0-.1448-.0658-.2167-.1975-.2167a.3811.3811,0,0,0-.2434.085.9049.9049,0,0,0-.2141.2791,4.0483,4.0483,0,0,0-.235.5418l-.1185.3294h-.1713l.228-.6458q.3156-.9141,1.066-.9146a.4672.4672,0,0,1,.53.3934.4607.4607,0,0,1,.0005.1311,3.1918,3.1918,0,0,1-.1228.7152l-.3114,1.2136a9.191,9.191,0,0,1,.743-1.439,2.6923,2.6923,0,0,1,.7221-.7759,1.41,1.41,0,0,1,.7852-.2384q.7236,0,.7237.6675a2.2848,2.2848,0,0,1-.1316.6719l-.8729,2.5919a1.1168,1.1168,0,0,0-.07.3338.19.19,0,0,0,.1607.2163.1923.1923,0,0,0,.0541,0,.4631.4631,0,0,0,.351-.202,2.3838,2.3838,0,0,0,.3421-.7039l.1185-.3294h.1667Zm3.761.3053a2.3938,2.3938,0,0,1-.63.44,1.6122,1.6122,0,0,1-.7123.169,1.1543,1.1543,0,0,1-.87-.3233,1.2759,1.2759,0,0,1-.314-.9292,3.63,3.63,0,0,1,.3991-1.5188,4.3533,4.3533,0,0,1,1.082-1.4442,2.207,2.207,0,0,1,1.48-.5956.7365.7365,0,0,1,.4779.1518.5246.5246,0,0,1,.1886.4334,1.51,1.51,0,0,1-.8114,1.2526,8.0426,8.0426,0,0,1-1.873.8886,3.8278,3.8278,0,0,0-.1009.8582q0,.8543.6184.8538a1.7234,1.7234,0,0,0,1.3862-.8886l.1443.0695a2.7661,2.7661,0,0,1-.465.5827Zm-.4079-3.7015a3.6224,3.6224,0,0,0-.6642.8842,4.9328,4.9328,0,0,0-.472,1.1729,4.6151,4.6151,0,0,0,1.2239-.5721,1.8009,1.8009,0,0,0,.5176-.6216,1.7473,1.7473,0,0,0,.1842-.7958.93.93,0,0,0-.0351-.319.1157.1157,0,0,0-.11-.08,1.0091,1.0091,0,0,0-.6451.331ZM44.5656,41.2252c1.6287-.61,3.0145-2.0007,3.0145-6.5489V33.2229c0-4.3958-1.89-7.0423-6.9289-7.0423H35V58.5394h5.7591c5.5252,0,7.4869-2.799,7.4869-8.433V47.7113C48.246,43.3154,46.3293,41.7724,44.5656,41.2252Zm-6.2-12.12h2.0427c2.79,0,3.87,1.4533,3.87,4.3779v1.4533c0,3.7679-.8729,4.9341-3.7794,4.9341H38.3655Zm6.4431,20.93c0,3.9383-.864,5.6069-4.3554,5.6069H38.3655V42.7507h2.0787c3.1225,0,4.3639,1.525,4.3639,5.0506Zm12.967,5.3378V42.8759h7.28V39.7091h-7.28V29.3743H65.47V26.1811H54.32V58.54H65.5684l.4679-3.1668ZM81.6041,26.1811c-1.1878,4.4855-2.7,9.931-3.5724,13.5284h3.0775l4.1574-13.5284Zm-6.0649,19.413a2.6325,2.6325,0,0,1,.1443.87V58.5394H79.139V46.7783a4.2948,4.2948,0,0,1,.09-.9688l.9-2.9336H74.7021ZM73.37,26.1811H69.5729L73.73,39.71h3.24C76.1419,36.2193,74.6572,30.8456,73.37,26.1811ZM96.4162,25.75c-4.5893,0-7.091,2.8887-7.091,8.3881v5.571h3.5182V33.9764c0-3.5257,1.1339-5.0866,3.4825-5.0866,2.34,0,3.5275,1.6507,3.5275,5.0866v4.3869l2.6546,2.7182-2.6546,3.14v6.3874c0,3.84-1.2058,5.2391-3.5006,5.2391-2.1775,0-3.5093-1.4444-3.5093-5.0866V42.8762H89.3253v7.607c0,5.3018,1.8358,8.4958,6.857,8.4958,4.8412,0,7.19-2.8528,7.19-8.5407V34.1291c0-5.1136-2.1509-8.3791-6.9563-8.3791Zm24.3054.4311v11.42c0,5.2751.0541,9.8234.2429,14.1744h-.0721c-.5308-2.6375-5.0481-19.6019-6.7939-25.5946h-4.1213V58.5394h3.2753V46.9936c0-5.84-.0811-11.0165-.2969-14.91h.0451c.6121,2.5747,5.2643,20.3823,6.992,26.4558h3.9864V26.1811Zm16.3775,0h-5.885V58.54h5.6691C144.2261,58.54,145,53.39,145,48.42V35.6452c0-5.1405-.8913-9.4641-7.9011-9.4641Zm4.3734,22.9212c0,4.2343-.9179,6.45-4.8508,6.45H134.669V29.1949h1.9887c4.1395,0,4.8147,2.2966,4.8147,6.0286Z"/>
</svg>
