<svg xmlns="http://www.w3.org/2000/svg" width="180" height="100" viewBox="0 0 180 100">
  <path fill="#000" d="M44.4266,62.4834c0,.1451-.048.215-.1386.215a13.4234,13.4234,0,0,1-1.344-.0377l-1.904-.0322-1.9414.0322c-.352.0269-.8106.0377-1.376.0377-.0426,0-.0692-.07-.0692-.215s0-.215.0692-.215A2.3582,2.3582,0,0,0,39.488,61.79a3.1787,3.1787,0,0,0,.4214-1.9721V54.2886a5.061,5.061,0,0,0-.7734-3.074,2.8379,2.8379,0,0,0-2.4-1.01,4.7188,4.7188,0,0,0-2.1334.5374,6.9722,6.9722,0,0,0-1.9732,1.51v7.5662a3.2048,3.2048,0,0,0,.4212,1.9721,2.3107,2.3107,0,0,0,1.728.4782c.096,0,.144.0753.144.215s-.048.215-.144.215a13.3464,13.3464,0,0,1-1.3386-.0377l-1.904-.0322-1.9414.0322c-.352.0269-.8106.0377-1.376.0377-.048,0-.0692-.07-.0692-.215s0-.215.0692-.215A2.3582,2.3582,0,0,0,29.984,61.79a3.1787,3.1787,0,0,0,.4214-1.9721V41.5851c0-.3062-.176-.4621-.5334-.4621H24.3574a8.908,8.908,0,0,0-2.0268.1612,1.2173,1.2173,0,0,0-.848.6448,3.6462,3.6462,0,0,0-.2292,1.5262V59.8181a4.06,4.06,0,0,0,.229,1.612,1.2694,1.2694,0,0,0,.9173.6717,9.7042,9.7042,0,0,0,2.2024.1774c.048,0,.0693.0753.0693.2149s0,.215-.0693.215c-.8,0-1.4347,0-1.904-.0377l-2.7893-.0321-2.6667.0321c-.4693.027-1.1307.0377-1.9787.0377-.0426,0-.0693-.07-.0693-.215s0-.2149.0693-.2149a9.83,9.83,0,0,0,2.2024-.1883,1.334,1.334,0,0,0,.95-.6928,3.7878,3.7878,0,0,0,.2454-1.58V43.3639a3.5287,3.5287,0,0,0-.2294-1.51,1.1627,1.1627,0,0,0-.8426-.5857,10.1874,10.1874,0,0,0-2.064-.1451,4.5335,4.5335,0,0,0-3.392,1.193,7.59,7.59,0,0,0-1.712,3.9121c0,.07-.096.0966-.2294.0859S10,46.2922,10,46.2281c.096-.6664.1976-1.73.32-3.2243s.176-2.5794.176-3.3371q0-.1773.208-.1773c.144,0,.2134.0591.2134.1773,0,.5374.6346.7792,1.904.7792s3.7332.07,7.088.07,5.68,0,6.8106-.07a6.7555,6.7555,0,0,0,3.5786-.9941,4.3929,4.3929,0,0,0,1.8508-2.52c0-.07.0746-.1074.2132-.1074a.5.5,0,0,1,.1977.0376.1182.1182,0,0,1,.0853.1022V51.6017a10.0348,10.0348,0,0,1,2.6667-2.273,5.6411,5.6411,0,0,1,2.7893-.747,3.8928,3.8928,0,0,1,2.976,1.1392,4.5146,4.5146,0,0,1,1.0667,3.2242v6.873a3.1608,3.1608,0,0,0,.4266,1.9721,2.3105,2.3105,0,0,0,1.728.4782C44.3786,62.2684,44.4266,62.3487,44.4266,62.4834Zm13.4777-1.8486a.2455.2455,0,0,1,.192.1236.1894.1894,0,0,1,0,.2312,7.6024,7.6024,0,0,1-5.2217,2.15,6.5061,6.5061,0,0,1-3.5626-.94,6.1268,6.1268,0,0,1-2.24-2.5364,7.6149,7.6149,0,0,1,3.3393-10.19,7.4849,7.4849,0,0,1,3.4341-.81,4.2463,4.2463,0,0,1,3.12,1.0747,3.9839,3.9839,0,0,1,1.0666,2.9982c0,.6395-.1386.9619-.4214.9619l-8.6776.0107c-.048.5375-.0694.919-.0694,1.2038a7.9509,7.9509,0,0,0,1.4454,4.976A4.8485,4.8485,0,0,0,54.4,61.774a5.1851,5.1851,0,0,0,1.7814-.2686,10.2513,10.2513,0,0,0,1.712-.8706Zm-7.6909-10.253a5.1775,5.1775,0,0,0-1.2374,2.832l6.4-.1451a4.4424,4.4424,0,0,0-.7254-2.7513,2.4037,2.4037,0,0,0-1.984-.9458A3.1877,3.1877,0,0,0,50.2134,50.3818ZM74.9386,61.3277a1.6689,1.6689,0,0,0,1.1308.7308,12.015,12.015,0,0,0,2.6666.21c.0694,0,.1014.0753.1014.2149s-.032.215-.1014.215c-.9654,0-1.7174,0-2.2614-.0377l-3.0666-.0321-2.4.0321c-.4214.027-1.024.0377-1.7977.0377-.0692,0-.1066-.07-.1066-.215s.0377-.2149.1066-.2149a7.1331,7.1331,0,0,0,1.8668-.1774,1.1763,1.1763,0,0,0,.7892-.6931,4.3273,4.3273,0,0,0,.2134-1.58V43.3639A4.209,4.209,0,0,0,71.8663,41.8a1.2232,1.2232,0,0,0-.8106-.6932,6.5606,6.5606,0,0,0-1.8666-.1935c-.0694,0-.1068-.0753-.1068-.2149s.0377-.2149.1068-.2149l1.7976.0376c.9868.0484,1.776.07,2.3624.07s1.2372-.0377,2.0106-.1074c.2824,0,.7254,0,1.3226-.0538s1.1254-.0537,1.6-.0537a8.6273,8.6273,0,0,1,5.2694,1.4776,5.21,5.21,0,0,1,1.9946,4.46A6.5258,6.5258,0,0,1,84.4,50.2206a6.9762,6.9762,0,0,1-2.9334,2.386,9.0831,9.0831,0,0,1-3.6852.7792,7.1933,7.1933,0,0,1-1.728-.1774c-.048,0-.0694-.0591-.0694-.1773a.4589.4589,0,0,1,.0534-.215c.032-.07.0746-.0913.1223-.07a4.6881,4.6881,0,0,0,1.232.14A5.0153,5.0153,0,0,0,81.1251,51.36,6,6,0,0,0,82.64,46.9534a6.24,6.24,0,0,0-1.4454-4.4064,4.8831,4.8831,0,0,0-3.808-1.612,6.3528,6.3528,0,0,0-1.696.1611,1.1764,1.1764,0,0,0-.7572.6771,4.3269,4.3269,0,0,0-.2294,1.65V59.6622a3.626,3.626,0,0,0,.2346,1.6659Zm25.6428-.5374a.1712.1712,0,0,1,.176.1559.1831.1831,0,0,1-.1068.231l-3.632,1.7088a.6762.6762,0,0,1-.3146.0753c-.3094,0-.5866-.21-.832-.6234a4.5268,4.5268,0,0,1-.5334-1.6873l-1.76,1.1714a6.6226,6.6226,0,0,1-1.536.8544,4.27,4.27,0,0,1-1.4666.2473,2.9349,2.9349,0,0,1-2.08-.6932,2.3138,2.3138,0,0,1-.7414-1.7573,2.4081,2.4081,0,0,1,.9224-1.8861,9.919,9.919,0,0,1,2.8746-1.51l3.7814-1.381v-2.348a6.5615,6.5615,0,0,0-.5334-3.09,1.7421,1.7421,0,0,0-1.6-.9619,2.0365,2.0365,0,0,0-1.76.8222,4.2356,4.2356,0,0,0-.7786,1.8431c-.1387,1.0479-.624,1.5638-1.4454,1.5638a1.2843,1.2843,0,0,1-.9546-.3171,1.0786,1.0786,0,0,1-.3147-.7846,2.3964,2.3964,0,0,1,1.1093-1.7732,9.348,9.348,0,0,1,2.6668-1.4563,8.2117,8.2117,0,0,1,2.768-.57,2.7625,2.7625,0,0,1,2.24.94,4.127,4.127,0,0,1,.7947,2.719v6.5775a3.5841,3.5841,0,0,0,.336,1.7732,1.1071,1.1071,0,0,0,1.04.57,4.3215,4.3215,0,0,0,1.6-.4244Zm-5.248-.65V56.1908L92.368,57.4a3.8988,3.8988,0,0,0-1.4454.87,1.8029,1.8029,0,0,0-.496,1.3,1.8374,1.8374,0,0,0,1.9254,1.94,3.1374,3.1374,0,0,0,1.6-.5374ZM102,62.483c0-.14.032-.2149.1066-.2149a2.2965,2.2965,0,0,0,1.728-.4783,3.1772,3.1772,0,0,0,.4214-1.9721V41.5153a5.3236,5.3236,0,0,0-.2294-1.8486.8377.8377,0,0,0-.8266-.57,4.2077,4.2077,0,0,0-1.6.5h-.0377c-.0906,0-.1706-.0645-.2292-.1989s-.0377-.2041.0533-.231l4.656-2.2032.144-.0323a.4147.4147,0,0,1,.2453.1075.2738.2738,0,0,1,.1386.21V59.818a3.2585,3.2585,0,0,0,.4108,1.9721,2.306,2.306,0,0,0,1.744.4782c.0692,0,.1066.0753.1066.215s-.0376.215-.1066.215c-.5654,0-1.024,0-1.376-.0377l-1.9414-.0322-1.9734.0322c-.3306.0269-.7786.0377-1.3386.0377-.0694,0-.1014-.07-.1014-.215ZM124.5706,60.78a.1763.1763,0,0,1,.1814.1558.194.194,0,0,1-.1066.2311l-3.6424,1.7195a.6611.6611,0,0,1-.3146.0753c-.304,0-.5814-.21-.8267-.6234a4.3225,4.3225,0,0,1-.5333-1.6873l-1.7654,1.1714a6.6226,6.6226,0,0,1-1.536.8544,4.2347,4.2347,0,0,1-1.4613.2473,2.9143,2.9143,0,0,1-2.08-.6932,2.2977,2.2977,0,0,1-.7413-1.7573,2.4031,2.4031,0,0,1,.9174-1.8861,9.9906,9.9906,0,0,1,2.8746-1.51l3.7973-1.381V53.3481a6.491,6.491,0,0,0-.5333-3.09,1.7422,1.7422,0,0,0-1.6-.9619,2.0424,2.0424,0,0,0-1.7654.8222,4.3164,4.3164,0,0,0-.7786,1.8431c-.1387,1.0479-.624,1.5638-1.4454,1.5638a1.2682,1.2682,0,0,1-.9493-.3171,1.0784,1.0784,0,0,1-.32-.7846,2.4127,2.4127,0,0,1,1.1092-1.7732,9.3464,9.3464,0,0,1,2.6667-1.4563,8.2127,8.2127,0,0,1,2.768-.57,2.763,2.763,0,0,1,2.24.94,4.1271,4.1271,0,0,1,.7947,2.7191v6.5774a3.5853,3.5853,0,0,0,.336,1.7732,1.1179,1.1179,0,0,0,1.04.57,4.2989,4.2989,0,0,0,1.6-.4244Zm-5.2372-.64V56.1908L116.368,57.4a3.8988,3.8988,0,0,0-1.4454.87,1.8025,1.8025,0,0,0-.4906,1.3,1.8375,1.8375,0,0,0,1.9254,1.94,3.1058,3.1058,0,0,0,1.6-.5374Zm23.2426.4944c.0746,0,.1334.0591.1814.1773s.032.1935-.0377.215l-4.0586,1.956a1.2992,1.2992,0,0,1-.2454.07c-.304,0-.5653-.2472-.7733-.747a5.95,5.95,0,0,1-.3577-2.0957,12.4051,12.4051,0,0,1-2.6667,2.1495,6.118,6.118,0,0,1-3.104.8167,4.9063,4.9063,0,0,1-2.784-.8274,5.7613,5.7613,0,0,1-2.0267-2.3968,8.11,8.11,0,0,1-.7623-3.59,7.3151,7.3151,0,0,1,1.2373-4.2989,7.723,7.723,0,0,1,3.1041-2.6271,8.7874,8.7874,0,0,1,3.7333-.87,6.4944,6.4944,0,0,1,3.2427.8168V41.5153a4.8726,4.8726,0,0,0-.2453-1.8325.89.89,0,0,0-.88-.5373,4.7725,4.7725,0,0,0-1.552.4621h-.0694a.203.203,0,0,1-.1976-.1612.21.21,0,0,1,.0533-.231l4.592-2.2516a.43.43,0,0,1,.176-.0323.3562.3562,0,0,1,.2294.1075.2963.2963,0,0,1,.1223.21V58.7433A4.33,4.33,0,0,0,139.77,60.57a.98.98,0,0,0,.9547.5374,3.5381,3.5381,0,0,0,1.76-.5Zm-7.3706.5858a8.8938,8.8938,0,0,0,2.0586-1.65V51.6017a5.8876,5.8876,0,0,0-1.76-1.7412,4.444,4.444,0,0,0-2.3623-.6019,4.1572,4.1572,0,0,0-3.408,1.5477,6.943,6.943,0,0,0-1.248,4.46,8.1052,8.1052,0,0,0,1.248,4.74,3.79,3.79,0,0,0,3.2266,1.8056,4.5073,4.5073,0,0,0,2.2451-.591Zm9.2586,1.2628c0-.14.032-.215.1014-.215a2.28,2.28,0,0,0,1.728-.4782,3.21,3.21,0,0,0,.4266-1.9722V53.2129a4.9674,4.9674,0,0,0-.2454-1.811.8845.8845,0,0,0-.8852-.57,3.6332,3.6332,0,0,0-1.552.4944h-.032c-.096,0-.1654-.0591-.2134-.1773s-.0266-.1989.0694-.2472l4.6932-2.2033.1388-.0376a.3707.3707,0,0,1,.2292.1075.2849.2849,0,0,1,.1224.2148q0,.2473-.032,1.4188c0,.7845-.0376,1.7088-.0376,2.7728V59.817a5.5818,5.5818,0,0,0,.16,1.5476,1.0727,1.0727,0,0,0,.5973.7094,3.7085,3.7085,0,0,0,1.376.1934c.0693,0,.1013.0753.1013.215s-.032.2149-.1013.2149a13.6162,13.6162,0,0,1-1.376-.0376l-1.904-.0322L145.85,62.66c-.3306.0269-.7624.0376-1.3066.0376-.0474.0011-.0794-.0688-.0794-.2139Zm1.92-18.3028a1.619,1.619,0,0,1-.4424-1.2091,1.5,1.5,0,0,1,.4424-1.1338,1.6722,1.6722,0,0,1,1.216-.446,1.5609,1.5609,0,0,1,1.1626.43,1.5275,1.5275,0,0,1,.4268,1.1339,1.62,1.62,0,0,1-.4268,1.2091,1.5561,1.5561,0,0,1-1.1626.4517,1.672,1.672,0,0,1-1.216-.4347ZM170,62.4834c0,.1451-.0376.215-.1066.215a13.6742,13.6742,0,0,1-1.376-.0377l-1.904-.0322-1.904.0322c-.3308.0269-.7788.0377-1.3388.0377-.0746,0-.1066-.07-.1066-.215s.032-.215.1066-.215a3.5667,3.5667,0,0,0,1.3548-.1934,1.0726,1.0726,0,0,0,.6023-.7094,5.8434,5.8434,0,0,0,.1547-1.5475V54.17a4.9608,4.9608,0,0,0-.7573-3.0415,2.8747,2.8747,0,0,0-2.416-.978,4.6974,4.6974,0,0,0-2.096.5374,6.6273,6.6273,0,0,0-1.9467,1.4885v7.6414a5.63,5.63,0,0,0,.1547,1.5476,1.0717,1.0717,0,0,0,.6186.7093,3.7065,3.7065,0,0,0,1.376.1935c.0694,0,.1067.0752.1067.2149s-.0377.215-.1067.215a13.6456,13.6456,0,0,1-1.376-.0377l-1.904-.0322-1.904.0322c-.3306.027-.7786.0377-1.3439.0377-.0694,0-.1014-.07-.1014-.215s.032-.2149.1014-.2149a3.58,3.58,0,0,0,1.36-.1935,1.0726,1.0726,0,0,0,.5973-.7093,5.5856,5.5856,0,0,0,.16-1.5476V52.8323a3.7875,3.7875,0,0,0-.2823-1.7089.9589.9589,0,0,0-.9173-.5373,6.1645,6.1645,0,0,0-1.8667.5373h-.0377a.2243.2243,0,0,1-.2081-.1558.1718.1718,0,0,1,.0694-.231l4.23-2.0632.2133-.0376c.2347,0,.464.2687.688.8006a6.0414,6.0414,0,0,1,.3733,2.1657c1.712-2.0366,3.5148-3.0576,5.392-3.0576a3.9408,3.9408,0,0,1,3.0188,1.1388,4.5253,4.5253,0,0,1,1.0666,3.2242V59.84a5.849,5.849,0,0,0,.1546,1.5477,1.0725,1.0725,0,0,0,.6188.7093,3.708,3.708,0,0,0,1.376.1935C169.9624,62.2684,170,62.3487,170,62.4834Z"/>
</svg>
