<svg xmlns="http://www.w3.org/2000/svg" width="180" height="100" viewBox="0 0 180 100">
  <path fill="#000" opacity="0.7" d="M96.0474,54.6324a28.0107,28.0107,0,0,1-1.0564,3.4331,8.2278,8.2278,0,0,1-1.1368,2.0927,3.3407,3.3407,0,0,1-1.31,1.0513,4.0944,4.0944,0,0,1-1.573.2886,2.1266,2.1266,0,0,1-1.4011-.4524,1.3945,1.3945,0,0,1-.5486-1.1141,1.186,1.186,0,0,1,.2644-.8143.9246.9246,0,0,1,.73-.2986.6789.6789,0,0,1,.5893.227,2.5179,2.5179,0,0,1,.2743.4944,3.3505,3.3505,0,0,0,.2533.4955.5973.5973,0,0,0,.5486.2263,1.0855,1.0855,0,0,0,.8525-.4944,3.4852,3.4852,0,0,0,.5882-1.2985l2.9444-11.6077H94.1186l.2633-.9485H96.311a22.2959,22.2959,0,0,1,.9745-3.1534,10.0511,10.0511,0,0,1,1.1367-2.1346,4.1387,4.1387,0,0,1,1.3-1.2169,3.0166,3.0166,0,0,1,1.4816-.3813,3.5311,3.5311,0,0,1,1.9694.5055,1.4834,1.4834,0,0,1,.7722,1.2683,1.2741,1.2741,0,0,1-.2545.8031.8525.8525,0,0,1-.72.33,1.061,1.061,0,0,1-.5993-.1443.9421.9421,0,0,1-.3249-.37,1.9777,1.9777,0,0,1-.1619-.4743,3.5343,3.5343,0,0,0-.1322-.4742.8866.8866,0,0,0-.2435-.3713.7151.7151,0,0,0-.4869-.1443,1.1087,1.1087,0,0,0-.803.4426,5.0444,5.0444,0,0,0-.761,1.237,14.1793,14.1793,0,0,0-.69,1.8869q-.3255,1.0918-.5894,2.3913H100.23l-.2841.9485h-1.99Zm7.39,1.7116a3.0251,3.0251,0,0,1-1.29-.2784,2.9776,2.9776,0,0,1-1.0452-.8143,4.08,4.08,0,0,1-.71-1.3083,5.3658,5.3658,0,0,1-.2644-1.7427,7.327,7.327,0,0,1,.4978-2.6385,8.4988,8.4988,0,0,1,1.31-2.3086,6.8356,6.8356,0,0,1,1.8571-1.6285,4.1887,4.1887,0,0,1,2.1622-.6185,3.2537,3.2537,0,0,1,1.35.2785,2.9014,2.9014,0,0,1,1.0564.803,4.024,4.024,0,0,1,.69,1.2584,4.8951,4.8951,0,0,1,.2544,1.6184,7.2587,7.2587,0,0,1-.5078,2.6184,9.1615,9.1615,0,0,1-1.33,2.37,7.4561,7.4561,0,0,1-1.878,1.7214A3.97,3.97,0,0,1,103.4374,56.344Zm.1212-1.03a1.9294,1.9294,0,0,0,1.3714-.7214,7.3044,7.3044,0,0,0,1.2171-1.8254,12.663,12.663,0,0,0,.8735-2.4014,9.89,9.89,0,0,0,.3348-2.4741,2.27,2.27,0,0,0-.3755-1.5044,1.3171,1.3171,0,0,0-1.0256-.4127,1.5721,1.5721,0,0,0-.9032.32,3.7252,3.7252,0,0,0-.8622.8755,8.5509,8.5509,0,0,0-.7612,1.2788,11.6538,11.6538,0,0,0-.62,1.5256,11.4625,11.4625,0,0,0-.4053,1.6386,9.5347,9.5347,0,0,0-.1421,1.5983,2.7335,2.7335,0,0,0,.3657,1.6286,1.1272,1.1272,0,0,0,.9326.4742Zm7.1267-7.2367a4.4125,4.4125,0,0,1,.6808-1.0613,7.4609,7.4609,0,0,1,.9947-.99,6.3873,6.3873,0,0,1,1.086-.7316,2.1188,2.1188,0,0,1,.954-.2885.767.767,0,0,1,.71.37,2.4227,2.4227,0,0,1,.2235,1.1967,6.304,6.304,0,0,1-.0309.6386q-.03.3088-.1112.7214l.0606.0616a5.0618,5.0618,0,0,1,.6907-1.1744,6.9237,6.9237,0,0,1,.9638-1.0212,5.5788,5.5788,0,0,1,1.0559-.7214,2.2006,2.2006,0,0,1,1.0046-.2786,1.3631,1.3631,0,0,1,.9848.3815,1.252,1.252,0,0,1,.3965.9383,1.2359,1.2359,0,0,1-.3348.887,1.1407,1.1407,0,0,1-.8637.35.95.95,0,0,1-.5177-.1241,2.1985,2.1985,0,0,1-.3348-.2573c-.0947-.09-.1828-.1756-.2643-.2572a.4057.4057,0,0,0-.3041-.1241,1.3815,1.3815,0,0,0-.8933.5256,8.0815,8.0815,0,0,0-1.0553,1.4328,19.0019,19.0019,0,0,0-1.0871,2.124,26.3237,26.3237,0,0,0-.9848,2.6172l-.9132,2.8455h-1.888l1.32-4.267q.3849-1.2383.64-2.0514.2529-.8153.3955-1.3612c.0947-.3639.1587-.65.1928-.8558a3.3283,3.3283,0,0,0,.0506-.5357c0-.302-.1013-.4542-.304-.4542a1.0785,1.0785,0,0,0-.4978.1656,3.4162,3.4162,0,0,0-.5784.4131,4.6538,4.6538,0,0,0-.5386.5559,2.5028,2.5028,0,0,0-.3756.5984Z"/>
  <path fill="#000" d="M29.7578,42.8752h-.9241a5.9254,5.9254,0,0,0-.3162-1.6486,2.4027,2.4027,0,0,0-.71-1.0427,2.79,2.79,0,0,0-1.162-.5391,7.595,7.595,0,0,0-1.6688-.16q-.8359,0-1.3427.0346a3.2543,3.2543,0,0,0-.7788.1253.6529.6529,0,0,0-.3488.2181.6159.6159,0,0,0-.0793.3322V52.4506a6.7927,6.7927,0,0,0,.1013,1.2591,1.7308,1.7308,0,0,0,.4069.859,1.9079,1.9079,0,0,0,.88.5044,6.0317,6.0317,0,0,0,1.5223.1947v.87H16.8091v-.87a6.179,6.179,0,0,0,1.5333-.1947,1.9088,1.9088,0,0,0,.8913-.5044,1.7113,1.7113,0,0,0,.4069-.859,6.7927,6.7927,0,0,0,.1013-1.2591V40.1954a.6178.6178,0,0,0-.0792-.3322.63.63,0,0,0-.3151-.2181,2.48,2.48,0,0,0-.6653-.1253q-.43-.0352-1.1511-.0346-.879,0-1.6357.0681a3.0473,3.0473,0,0,0-1.3086.4016,2.3639,2.3639,0,0,0-.89,1.019,4.5612,4.5612,0,0,0-.3613,1.9013H12.5V38.5H29.5316Zm10.7735,4.011a3.0852,3.0852,0,0,1-.7579,2.1329,4.0648,4.0648,0,0,1-2.4156,1.1386l3.49,4.2648a2.589,2.589,0,0,0,.94.7618,4.7618,4.7618,0,0,0,1.2237.3443v.61h-3.048L36.0943,51.103a3.0244,3.0244,0,0,0-.3875-.4329,1.5166,1.5166,0,0,0-.3787-.2478,1.4461,1.4461,0,0,0-.4571-.112c-.1744-.0156-.3823-.0246-.6246-.0246v3.3354a5.4043,5.4043,0,0,0,.0716.9708,1.0232,1.0232,0,0,0,.3.585,1.2784,1.2784,0,0,0,.6632.2807,7.28,7.28,0,0,0,1.1455.0716v.61H30.8511v-.61a4.5217,4.5217,0,0,0,.8923-.0962,1.0579,1.0579,0,0,0,.5287-.2717,1.0176,1.0176,0,0,0,.2533-.5459,5.3944,5.3944,0,0,0,.0628-.9137V46.2285a6.046,6.046,0,0,0-.055-.906,1.12,1.12,0,0,0-.2215-.5447.847.847,0,0,0-.4812-.2729,5.3254,5.3254,0,0,0-.8218-.104v-.61h4.9588a5.923,5.923,0,0,1,3.3717.8176A2.6125,2.6125,0,0,1,40.5313,46.8862ZM34.246,49.4844h1.1214a3.848,3.848,0,0,0,2.3451-.5861,2.2767,2.2767,0,0,0,.7653-1.9316,2.4366,2.4366,0,0,0-.608-1.86,2.7328,2.7328,0,0,0-1.9023-.5615H34.5144a.238.238,0,0,0-.2688.204.2492.2492,0,0,0,0,.069Zm16.0446,2.18H46.074q-.2676.6574-.4571,1.1632t-.3084.8736a5.1951,5.1951,0,0,0-.1663.6252,2.467,2.467,0,0,0-.0474.4172.6582.6582,0,0,0,.2842.6173,1.9723,1.9723,0,0,0,.9484.1679v.61H42.49v-.61a3.89,3.89,0,0,0,.6235-.1279,1.5443,1.5443,0,0,0,.4582-.2249,1.4016,1.4016,0,0,0,.347-.3769,3.6788,3.6788,0,0,0,.293-.5693l4.1054-10.4389h.6781L52.58,52.835q.3618.8976.6312,1.435a3.56,3.56,0,0,0,.521.81,1.1683,1.1683,0,0,0,.5452.3524,2.6687,2.6687,0,0,0,.7028.0805v.6253H49.8324v-.6253a2.8522,2.8522,0,0,0,1.1533-.16.5509.5509,0,0,0,.315-.53,2.4863,2.4863,0,0,0-.0154-.2964A2.2879,2.2879,0,0,0,51.23,54.23c-.0264-.1062-.0628-.227-.11-.3613s-.109-.2908-.1817-.4722Zm-3.9-.802H49.991l-1.7534-4.73Zm13.88,2.8231,2.78-6.9591q.2362-.594.3316-.9307a2.2793,2.2793,0,0,0,.0947-.6084.6809.6809,0,0,0-.2615-.61,1.8711,1.8711,0,0,0-.9716-.1771v-.61h3.8377v.61a3.881,3.881,0,0,0-.6235.1286A1.5315,1.5315,0,0,0,65,44.7526a1.3879,1.3879,0,0,0-.347.3769,3.8889,3.8889,0,0,0-.2929.5694l-4.279,10.5994h-.5522L55.4542,46.309a8.4655,8.4655,0,0,0-.4032-.8332,2.3669,2.3669,0,0,0-.434-.5783,1.59,1.59,0,0,0-.5364-.3366,2.6936,2.6936,0,0,0-.71-.1443v-.6253h5.1474v.6253a5.146,5.146,0,0,0-.7181.04,1.265,1.265,0,0,0-.434.1287.5143.5143,0,0,0-.2215.2158.6515.6515,0,0,0-.0628.2886,2.0468,2.0468,0,0,0,.0782.5213,8.5749,8.5749,0,0,0,.3.8579Zm9.79-4.33a8.2374,8.2374,0,0,0,1.43-.1039,2.4393,2.4393,0,0,0,.9153-.3289,1.2876,1.2876,0,0,0,.49-.5771,2.1377,2.1377,0,0,0,.15-.8344h.5529v4.3774h-.5529a2.3557,2.3557,0,0,0-.1345-.8343,1.2374,1.2374,0,0,0-.4736-.585,2.5631,2.5631,0,0,0-.9164-.3523,7.3087,7.3087,0,0,0-1.4606-.1208V53.62a2.5615,2.5615,0,0,0,.1266.8747,1.16,1.16,0,0,0,.434.5607,2.0134,2.0134,0,0,0,.8137.3049,7.4579,7.4579,0,0,0,1.2469.0886,7.1377,7.1377,0,0,0,1.421-.1208,2.4934,2.4934,0,0,0,.9792-.4094,2.0783,2.0783,0,0,0,.6323-.7606,5.2444,5.2444,0,0,0,.3944-1.1789h.6006l-.2369,3.1586H66.6657v-.61a4.5284,4.5284,0,0,0,.8922-.0963,1.0579,1.0579,0,0,0,.5287-.2717,1.0174,1.0174,0,0,0,.2534-.5459,5.384,5.384,0,0,0,.0627-.9137V46.2285a6.02,6.02,0,0,0-.055-.906,1.1208,1.1208,0,0,0-.2214-.5447.8478.8478,0,0,0-.4814-.2729,5.3241,5.3241,0,0,0-.8217-.104v-.61h9.1282l.1421,2.8219H75.541a3.34,3.34,0,0,0-.3085-1.05,1.6927,1.6927,0,0,0-.5837-.6487,2.4579,2.4579,0,0,0-.94-.3367,8.3108,8.3108,0,0,0-1.3736-.0962H70.3291a.2376.2376,0,0,0-.2686.2035.2442.2442,0,0,0,0,.0683Zm18.2706,6.7826H78.13v-.61a4.5366,4.5366,0,0,0,.8922-.0962,1.0588,1.0588,0,0,0,.5287-.2718,1.0173,1.0173,0,0,0,.2533-.5459,5.3637,5.3637,0,0,0,.0629-.9137V46.2285a6.0328,6.0328,0,0,0-.0551-.906,1.12,1.12,0,0,0-.2214-.5447.8473.8473,0,0,0-.4813-.2729,5.3254,5.3254,0,0,0-.8218-.104v-.61h4.8015v.61a3.852,3.852,0,0,0-.8138.0961.8658.8658,0,0,0-.4736.2886,1.1982,1.1982,0,0,0-.22.5772,6.7975,6.7975,0,0,0-.0562.9786v6.9112A3.7462,3.7462,0,0,0,81.66,54.351a1.2364,1.2364,0,0,0,.4582.6565,2.01,2.01,0,0,0,.86.3211,8.5832,8.5832,0,0,0,1.3581.0885,9.2993,9.2993,0,0,0,1.5157-.1041,2.78,2.78,0,0,0,1.0343-.369,1.8689,1.8689,0,0,0,.6642-.7371,5.3036,5.3036,0,0,0,.4175-1.227h.6007Zm50.469,0H124.2273v-.87a6.6432,6.6432,0,0,0,1.2745-.1377,1.5241,1.5241,0,0,0,.7556-.3893,1.4358,1.4358,0,0,0,.36-.78,7.6121,7.6121,0,0,0,.09-1.3052V41.9816a8.6544,8.6544,0,0,0-.0782-1.2941,1.6066,1.6066,0,0,0-.3161-.7785,1.2038,1.2038,0,0,0-.6885-.3892,7.4839,7.4839,0,0,0-1.1731-.1487V38.5h6.858v.8713a5.3534,5.3534,0,0,0-1.1609.1378,1.23,1.23,0,0,0-.6775.4116,1.7294,1.7294,0,0,0-.3162.8244,9.8389,9.8389,0,0,0-.0781,1.3981v9.8726a5.3175,5.3175,0,0,0,.1917,1.5682,1.7725,1.7725,0,0,0,.6543.9395,2.8848,2.8848,0,0,0,1.2292.4586,12.343,12.343,0,0,0,1.94.1252,13.2362,13.2362,0,0,0,2.1656-.1487,3.96,3.96,0,0,0,1.4782-.5268,2.67,2.67,0,0,0,.9473-1.0536,7.6225,7.6225,0,0,0,.5981-1.7527h.857Zm4.9171-3.0311a9.72,9.72,0,0,0,.0639,1.2673,1.6225,1.6225,0,0,0,.2446.7213.8448.8448,0,0,0,.5209.3367,4.5143,4.5143,0,0,0,.8923.0963v.61h-5.1165v-.61a4.0736,4.0736,0,0,0,.8922-.1041.9422.9422,0,0,0,.5288-.3289,1.4164,1.4164,0,0,0,.2533-.6811A8.8964,8.8964,0,0,0,142.06,53.22V46.7094a9.3575,9.3575,0,0,0-.0551-1.114,1.6664,1.6664,0,0,0-.2214-.6979.8824.8824,0,0,0-.4814-.36,3.3648,3.3648,0,0,0-.8217-.1365v-.61h4.8014v.61a2.6944,2.6944,0,0,0-.8138.1286.9114.9114,0,0,0-.4737.3769,1.7685,1.7685,0,0,0-.22.7292,10.2485,10.2485,0,0,0-.0562,1.1868Zm6.554.482a5.4923,5.4923,0,0,0,.0716.9854.9578.9578,0,0,0,.3074.5771,1.4158,1.4158,0,0,0,.6719.2808,7.3641,7.3641,0,0,0,1.1445.0962v.61h-5.59v-.61a4.5358,4.5358,0,0,0,.8922-.0962,1.06,1.06,0,0,0,.5288-.2718,1.0191,1.0191,0,0,0,.2533-.5459,5.3944,5.3944,0,0,0,.0628-.9137V46.2285a6.0328,6.0328,0,0,0-.0551-.906,1.1208,1.1208,0,0,0-.2214-.5447.8475.8475,0,0,0-.4814-.2729,5.3241,5.3241,0,0,0-.8217-.104v-.61h9.1282l.173,3.0624h-.5522a4.04,4.04,0,0,0-.3-1.13,1.7018,1.7018,0,0,0-.5761-.6979,2.3938,2.3938,0,0,0-.94-.36,8.0805,8.0805,0,0,0-1.421-.105h-2.0058a.2383.2383,0,0,0-.2688.205.249.249,0,0,0,0,.0679v4.843a8.37,8.37,0,0,0,1.3032-.0885,2.3913,2.3913,0,0,0,.9-.3132,1.4792,1.4792,0,0,0,.5453-.61,2.7408,2.7408,0,0,0,.2368-.9935h.553V52.37h-.553a3.77,3.77,0,0,0-.2533-1.01,1.3945,1.3945,0,0,0-.5122-.6252,2.3191,2.3191,0,0,0-.8768-.321,7.841,7.841,0,0,0-1.3428-.0962Zm10.58-4.2336a8.2392,8.2392,0,0,0,1.43-.1039,2.44,2.44,0,0,0,.9154-.3289,1.2889,1.2889,0,0,0,.49-.5771,2.1394,2.1394,0,0,0,.15-.8344h.553v4.3774h-.553a2.3533,2.3533,0,0,0-.1343-.8343,1.2386,1.2386,0,0,0-.4737-.585,2.561,2.561,0,0,0-.9165-.3523,7.3087,7.3087,0,0,0-1.4606-.1208V53.62a2.5588,2.5588,0,0,0,.1267.8747,1.1607,1.1607,0,0,0,.434.5607,2.0138,2.0138,0,0,0,.8138.3049,7.4567,7.4567,0,0,0,1.2468.0886,7.1377,7.1377,0,0,0,1.421-.1208,2.4934,2.4934,0,0,0,.9792-.4094,2.08,2.08,0,0,0,.6323-.7606,5.2375,5.2375,0,0,0,.3943-1.1789H167.5l-.2369,3.1586h-9.8065v-.61a4.5358,4.5358,0,0,0,.8922-.0962,1.0588,1.0588,0,0,0,.5287-.2718,1.0182,1.0182,0,0,0,.2534-.5459,5.3944,5.3944,0,0,0,.0628-.9137V46.2285a6.0328,6.0328,0,0,0-.0551-.906,1.12,1.12,0,0,0-.2214-.5447.8475.8475,0,0,0-.4814-.2729,5.3225,5.3225,0,0,0-.8217-.104v-.61h9.1282l.1421,2.8219h-.553a3.3369,3.3369,0,0,0-.3084-1.05,1.6914,1.6914,0,0,0-.5838-.6487,2.4579,2.4579,0,0,0-.94-.3367,8.3108,8.3108,0,0,0-1.3736-.0962H161.12a.2374.2374,0,0,0-.2686.2034.2411.2411,0,0,0,0,.0684Z"/>
</svg>
