<svg xmlns="http://www.w3.org/2000/svg" width="180" height="100" viewBox="0 0 180 100">
  <path fill="#000" d="M24.8455,58.48a9.2512,9.2512,0,0,1-3.5571-3.4848,10.3266,10.3266,0,0,1,0-9.99,9.2173,9.2173,0,0,1,3.5707-3.4844,10.3357,10.3357,0,0,1,5.1-1.2662,10.5234,10.5234,0,0,1,4.0265.7488A8.2477,8.2477,0,0,1,37.1,43.2219l-1.7452,1.7147a6.9547,6.9547,0,0,0-5.2883-2.2591,7.5792,7.5792,0,0,0-3.7852.9525,6.8612,6.8612,0,0,0-2.6439,2.6267,7.8272,7.8272,0,0,0,0,7.4862A6.8558,6.8558,0,0,0,26.2811,56.37a7.5791,7.5791,0,0,0,3.7857.9535A6.9709,6.9709,0,0,0,35.355,55.036L37.1,56.7511a8.3647,8.3647,0,0,1-3.127,2.232,10.4548,10.4548,0,0,1-4.04.7626A10.2611,10.2611,0,0,1,24.8455,58.48Zm19.717,0a9.2919,9.2919,0,0,1-3.5839-3.4981,10.1811,10.1811,0,0,1,0-9.9635,9.2872,9.2872,0,0,1,3.5839-3.4976,10.9606,10.9606,0,0,1,10.2279,0,9.2083,9.2083,0,0,1,3.57,3.4844,10.3261,10.3261,0,0,1,0,9.99A9.2164,9.2164,0,0,1,54.79,58.48,10.9635,10.9635,0,0,1,44.5625,58.48Zm8.8452-2.11a6.9357,6.9357,0,0,0,2.6039-2.6267,7.8242,7.8242,0,0,0,0-7.4863A6.94,6.94,0,0,0,53.4077,43.63a7.3019,7.3019,0,0,0-3.7176-.9526,7.4512,7.4512,0,0,0-3.7445.9522,6.8857,6.8857,0,0,0-2.63,2.6267,7.824,7.824,0,0,0,0,7.4862,6.8808,6.8808,0,0,0,2.63,2.6267,7.4519,7.4519,0,0,0,3.7445.9535A7.3019,7.3019,0,0,0,53.4077,56.37Zm28.4417,3.158-.0272-13.8835L75.0307,57.2138H73.7956L67.0039,45.7262V59.5278H64.4271V40.4725h2.201l7.84,13.3927,7.73-13.3927h2.2011l.0272,19.0555Zm21.9589-17.2862a6.0376,6.0376,0,0,1,2.0934,4.8728,6.0356,6.0356,0,0,1-2.0934,4.8727,8.6224,8.6224,0,0,1-5.7451,1.7694h-4.644v5.7716H90.7344V40.4725h7.3287a8.6258,8.6258,0,0,1,5.7454,1.7693Zm-1.9331,8.044a4.4162,4.4162,0,0,0,0-6.3426,6,6,0,0,0-3.8926-1.1023H93.4188V51.388h4.5638a6,6,0,0,0,3.8928-1.1022Zm19.6771,4.4778h-9.9862l-2.0672,4.7644h-2.7653l8.51-19.0555h2.6574L126.438,59.528H123.62Zm-.94-2.1774-4.0538-9.3372-4.0537,9.3372Zm10.6706,6.4923a8.375,8.375,0,0,1-3.1-1.7289l.9938-2.1232a8.1963,8.1963,0,0,0,2.7507,1.5925,9.9806,9.9806,0,0,0,3.45.6126,6.14,6.14,0,0,0,3.49-.8034,2.4813,2.4813,0,0,0,1.1544-2.1365,2.1248,2.1248,0,0,0-.63-1.5926,4.2132,4.2132,0,0,0-1.5574-.9387q-.9263-.3273-2.6177-.735a26.6452,26.6452,0,0,1-3.4226-1.0348,5.6524,5.6524,0,0,1-2.2283-1.5921,4.2949,4.2949,0,0,1-.9253-2.8991,4.9544,4.9544,0,0,1,.7912-2.7494,5.4618,5.4618,0,0,1,2.4032-1.96,9.6288,9.6288,0,0,1,3.9993-.735,12.5062,12.5062,0,0,1,3.275.4357,8.6623,8.6623,0,0,1,2.7652,1.2523l-.8855,2.1775a9.7042,9.7042,0,0,0-2.5234-1.157,9.3131,9.3131,0,0,0-2.6313-.3942,5.7361,5.7361,0,0,0-3.4225.8437A2.5941,2.5941,0,0,0,131.27,45.59a2.0954,2.0954,0,0,0,.6446,1.5926,4.4464,4.4464,0,0,0,1.5973.953,24.5687,24.5687,0,0,0,2.59.7213,26.0556,26.0556,0,0,1,3.4091,1.0342,5.7469,5.7469,0,0,1,2.2147,1.5788,4.1958,4.1958,0,0,1,.9263,2.8582,4.9155,4.9155,0,0,1-.8059,2.7361,5.4142,5.4142,0,0,1-2.4429,1.96,9.9756,9.9756,0,0,1-4.0265.7211,12.6743,12.6743,0,0,1-4.0939-.6672Zm17.342,0a8.375,8.375,0,0,1-3.1-1.7289l.9933-2.1232a8.1953,8.1953,0,0,0,2.7507,1.5925,9.9828,9.9828,0,0,0,3.45.6126,6.14,6.14,0,0,0,3.49-.8034,2.4817,2.4817,0,0,0,1.1545-2.1365,2.125,2.125,0,0,0-.63-1.5926,4.214,4.214,0,0,0-1.5574-.9388q-.9262-.3272-2.6177-.735a26.6323,26.6323,0,0,1-3.4225-1.0347,5.6544,5.6544,0,0,1-2.2284-1.5921,4.2953,4.2953,0,0,1-.9252-2.8991,4.9527,4.9527,0,0,1,.7913-2.7494,5.4612,5.4612,0,0,1,2.403-1.96,9.6292,9.6292,0,0,1,3.9994-.735,12.5062,12.5062,0,0,1,3.275.4357,8.6623,8.6623,0,0,1,2.7652,1.2523L158.33,44.12a9.7054,9.7054,0,0,0-2.5236-1.157,9.3124,9.3124,0,0,0-2.6312-.3942,5.7362,5.7362,0,0,0-3.4226.8437,2.5943,2.5943,0,0,0-1.1409,2.1774,2.0951,2.0951,0,0,0,.6448,1.5926,4.4448,4.4448,0,0,0,1.5971.953,24.5722,24.5722,0,0,0,2.5906.7213,26.0528,26.0528,0,0,1,3.4089,1.0342,5.7433,5.7433,0,0,1,2.2147,1.5788,4.1947,4.1947,0,0,1,.9265,2.8581,4.9146,4.9146,0,0,1-.8059,2.736,5.413,5.413,0,0,1-2.4429,1.96,9.977,9.977,0,0,1-4.0265.7212,12.6772,12.6772,0,0,1-4.0935-.6671ZM49.2273,49.8341l.3261,4.6154,3.9811-8.8989Z"/>
  <polygon fill="#000" opacity="0.5" points="49.227 49.834 44.587 49.51 53.535 45.55 49.227 49.834"/>
</svg>
