<svg xmlns="http://www.w3.org/2000/svg" width="180" height="100" viewBox="0 0 180 100">
  <path fill="#000" d="M105.0214,44.706a15.8,15.8,0,0,0-.98-2.1631,5.62,5.62,0,0,1,.2078.6244,1.3678,1.3678,0,0,0,.3487.6319c-.037.0445-.0742.082-.1188.1337A1.6205,1.6205,0,0,0,105.0214,44.706Zm.5193,1.7914V46.49c-.3487-.2453-.319-.6764-.6677-.9068-.0149.2526-.03.4385-.0371.5425a2.1907,2.1907,0,0,1,.3412.7136c.03.3345.23.3569.5121.394.03.2081-.0371-.2828-.1488-.7359Zm-29.087-2.9882c.0445.0371.0818.0744.1632.1412.1039-.2453.2-.4757.3042-.7284.0594.0372.1114.0744.1929.1263.1484-.1115.3117-.2229.4824-.3419-.0074-.327-.3042-.23-.4749-.3121a.4554.4554,0,0,1,.037-.2676q-.3924.6627-.72,1.3659ZM93.8466,38.38a1.4483,1.4483,0,0,1,.2077-.1785c.052.1185.0818.2006.1262.2973h.4229c-.052.1041-.0891.1784-.1336.26.3488.2973.7866.4608,1.0018.9068-.1336.1487-.1336.1487-.8311.1487-.03-.0967-.0445-.1487-.0593-.2156-.1039-.0149-.2152-.0372-.371-.0595.0519-.0892.0742-.1783.1261-.2a.63.63,0,0,0,.2969-.1635c-.1781-.082-.3488-.1635-.5937-.2751-.0519-.0743-.1558-.223-.2745-.3939A.6022.6022,0,0,1,93.8466,38.38Zm-.5121.5054c.1337.0447.26.082.3934.1264-.03.1185-.0668.2675-.1187.4608-.2672-.1635-.4973.2156-.7866.0595C92.8226,39.1458,93.1862,39.079,93.3345,38.8857ZM75.0516,48.69q-.0455.638-.0449,1.3006a15.4674,15.4674,0,1,0,30.9347,0,14.9018,14.9018,0,0,0-.089-1.6427,2.7023,2.7023,0,0,1-.5272.6245c-.2226.1634-.4155.3646-.6975.55v-.9661c-.0742-.0595-.1929-.1041-.2226-.1858-.1558-.4163-.4007-.788-.5194-1.2191-.1262-.4683-.4972-.8178-.6678-1.2711-.0222-.0521-.1336-.0595-.1855-.1115-.0964-.0967-.1855-.2156-.3042-.3495-.0075.1041-.052.23-.0075.3048a4.6344,4.6344,0,0,1,.5862,1.4273c.0148.0743.1335.1412.2226.23a1.1617,1.1617,0,0,0,.2227.8325,1.8663,1.8663,0,0,1,.1854.6472,2.5763,2.5763,0,0,1,.7124,1.2339c.26-.082.512-.1635.7643-.2378a5.8276,5.8276,0,0,1-.5195,1.7393,2.9557,2.9557,0,0,1-.49.6467c-.0519.1413-.0594.2825-.1335.342a3.0147,3.0147,0,0,0-.5714.9588.804.804,0,0,0-.0371.5129,2.17,2.17,0,0,1-.0074,1.338,2.2463,2.2463,0,0,0-.0075.4535c-.178.1635-.371.3493-.5787.5277-.1929.171-.3043.4089-.5272.5651.0593.1486.1039.2675.1558.3939-.1336.2751-.1409.6393-.5862.6914a1.0854,1.0854,0,0,1-.4527.8919,2.189,2.189,0,0,0-.267.3646,2.3657,2.3657,0,0,1-1.2689.8028,4.6542,4.6542,0,0,0-.72.32c-.03-.03-.0818-.082-.126-.1184.2373-.6022-.334-.8846-.5344-1.3308.0446-.26.0891-.52.141-.84-.0891-.0966-.2226-.2379-.3636-.3939-.0445-.32-.0964-.6615-.141-.996a3.3354,3.3354,0,0,0,.3785-.5279,1.951,1.951,0,0,0,.1336-.4757,4.5047,4.5047,0,0,0-.2524-1.6279,1.2469,1.2469,0,0,0-.3857-.55,2.3,2.3,0,0,1-.3563-.6021c.0965-.1114.1781-.2155.2818-.3419-.0667-.2973.1262-.669-.1558-.9886H97.104c-.0519-.1412-.1039-.275-.1707-.4683h-.0074c-.2374-.0074-.512-.0892-.69.0075-.3116.1783-.7272.1184-.9794.4756a3.124,3.124,0,0,1-.4155-.082,1.0428,1.0428,0,0,0-.72.0149.5375.5375,0,0,1-.6454-.0669c-.0371.0372-.0818.0743-.1262.1185a2.1523,2.1523,0,0,0-.7642-.6021.522.522,0,0,1-.3042-.2528c-.1781-.5277-.6381-.8177-.9424-1.1667-.1187-.2973-.2151-.5574-.3339-.8476.089-.0966.1781-.1932.3042-.327-.0519-.5279-.1038-1.0779-.1484-1.5239.1856-.3494.3339-.617.4749-.8771.1485-.2751.2153-.6393.653-.6021.2894-.29.7791-.4609.653-.9738.2818-.498.9126-.5426,1.1427-1.0629a3.9977,3.9977,0,0,0,.5342.1263,1.7835,1.7835,0,0,0,.5273-.0222c.4971-.1784.9646-.5055,1.5434-.2231.0741.0372.2151-.03.319-.0669.1636-.0743.2968-.0669.3933.0821.5194-.1933.5194-.1933.7494.3865-.037.1116-.0742.23-.1188.3791.1114.082.2227.1635.3934.29.6306-.0446,1.1056.5426,1.766.7582.0818-.0669.1636-.1338.2522-.2006a1.3253,1.3253,0,0,0-.1039-.1041c.0891-.275.3265-.1783.4156-.1933.4454.2156.8162.3866,1.2392.5948a1.3678,1.3678,0,0,1,.72.1039c.0594.0372.2-.052.3487-.0966-.0964-.4608.3488-.9366-.2225-1.3307-.0668.03-.1707.082-.2818.1413-.0965-.0892-.2-.171-.3117-.2751-.1039.03-.2078.0669-.3042.0966l-.5342-.5352v-.3939a1.0549,1.0549,0,0,0,.3042.1041,2.2367,2.2367,0,0,0,.3191-.0821c.1187-.0149.2448.0149.3561-.0074a.4956.4956,0,0,1,.423.1264c.23.1784.5045.23.7345.3864.0819-.0742.141-.1263.2-.1858a1.3028,1.3028,0,0,0-.8236-.8028c.0593-.0892.0965-.1486.1559-.2378-.052-.0595-.1039-.1338-.1637-.2082-.1707.0521-.3339.1116-.5491.1784-.1484-.0966-.1781-.4011-.4526-.4163-.1262.1191-.2671.2529-.3413.3271-.0818.223-.1336.3568-.1781.4981.03.0594.0667.1185.141.2452a3.7878,3.7878,0,0,0-.46-.1411,3.5105,3.5105,0,0,0-.49-.0075v.32c.0519.0595.1261.1412.2151.2379-.0741.0223-.1483.0521-.2225.0744a2.0146,2.0146,0,0,0,.089.1857c-.0594.0075-.1187.0149-.2.03v-.4094c-.1781-.1561-.3413-.2973-.5194-.4459a.4159.4159,0,0,0-.2407-.536l-.019-.0067c-.49-.1859-.7866-.6392-1.2837-.8841-.0668.052-.1484.1185-.26.2081a11.4112,11.4112,0,0,0,.7717.87c-.6826-.06-.9721-.6691-1.5137-.9367a1.009,1.009,0,0,1-1.18.0744c-.1039.1709-.0371.4237-.2523.5054a3.433,3.433,0,0,1-.4749.1264c-.0519.104-.1039.2006-.1558.3047.0222.03.0593.0669.0964.1116-.1706.1709-.3339.3419-.4971.498-.29.0372-.5636.0743-.9052.1263-.0668-.0891-.1707-.23-.2524-.3345h-.4229a1.9084,1.9084,0,0,1-.1637-.4608,2.011,2.011,0,0,1,.0891-.5427,2.5561,2.5561,0,0,1-.1261-.2229c.1113-.0595.2226-.1264.2968-.1635.1188.03.2226.0668.3265.082.3636.0446.7345-.082,1.0908.1115.0592.0372.2-.0595.3116-.0966v-.5427c-.1781-.1635-.3636-.3344-.5636-.5278h.2894c.0446-.0966.0818-.1709.1187-.2452.0519.0445.0965.082.141.1185.2671-.0892.4823-.3271.8014-.23.1484-.1709.2968-.327.4526-.4905h.8756a.9111.9111,0,0,0,.0445-.1264c.0148-.03.03-.0669.0594-.1263.23.3121.601.2676.9126.3493a8.2671,8.2671,0,0,0,1.3951.1185c.0519-.0967.1261-.2082.1707-.2825.1335.0222.2745.0445.43.0742v-.2079c-.0742-.03-.141-.052-.2152-.082.0222-.03.0371-.0744.0594-.0744a.5215.5215,0,0,1,.2671.0521c.1707.1189.3265.03.5045-.0149-.1409-.0892-.2817-.1784-.4454-.2825a.99.99,0,0,1-1.0017-.4386c.2-.0743.4081-.1487.6454-.23a.72.72,0,0,0-.6975-.2826l-.23.23c-.1706.0074-.3561.0149-.6381.03.1856.2231.3117.3792.43.52-.1187.0669-.23.1413-.3487.2155.0519.0521.089.0967.1636.1784a2.662,2.662,0,0,0-.3636.0223,1.69,1.69,0,0,0-.2894.1185c-.2152-.2973-.4155-.58-.6085-.8476-.3116.0594-.5714.1115-.8162.1635l-.6974-.6987c.5342-.0821.9422-.1413,1.4172-.2156a1.96,1.96,0,0,0,.1484-.1784h.5343c.03-.0821.0519-.1561.0889-.26a4.2432,4.2432,0,0,1,1.677.4011A15.3419,15.3419,0,0,0,90.4781,34.5a13.76,13.76,0,0,0-2.2928.1858h.831c-.0742.0594-.1558.1263-.2745.2229a1.0026,1.0026,0,0,0,.742-.104c.4081.2528.8756.0372,1.306.2156-.1337.0075-.2746.0223-.4156.0223-.1558.0074-.3116,0-.4674,0-.1782.2081.0592.3568.0741.5575-.1559.0966-.3116.1932-.49.2973-.0595-.0371-.1189-.082-.1782-.1263a1.4658,1.4658,0,0,0-.1187.1041c-.0446-.0372-.0818-.0744-.1113-.0967-.0965.1412-.1929.275-.2894.4088.03.0372.0593.0743.0965.1185-.5937.26-1.2763.1041-1.84.4311-.0667.1041-.1335.2156-.2151.3494a2.124,2.124,0,0,0-1.3654.29c-.178.3048-.5861.4982-.7272.8252-.3636.2155-.6752-.32-.9423.0744-.2376-.1338-.4973-.1784-.5417-.4758-.1039-.0149-.2078-.03-.3414-.0521.0965-.3493.4007-.3645.6234-.4905V37.012c-.0891-.0445-.1856-.0891-.2969-.156-.0371.0222-.0965.0594-.1706.1115-.1559-.0893-.3117-.1859-.4972-.29a15.3982,15.3982,0,0,0-5.0161,4.7943c.1114.052.2.0966.3117.1486a.8851.8851,0,0,0,.3191-.6836c.1483-.1411.3042-.2973.4823-.4608-.0818-.4609.2152-.7359.5342-1.0184h.3562c.0372.3048.2746.23.4675.2378l.4674-.4683a.614.614,0,0,1,.1039-.0222c.0743.1338.1636.2825.2671.4683.104.0446.2523.1185.4156.1858-.0446.0446-.0818.0892-.1188.1338.2.2081.3711-.1115.6233-.0371-.0668.1184-.1112.275-.1707.2825-.408.0223-.66.4163-1.0536.4757-.03,0-.0668.052-.0964.0447-.3414-.0669-.6085.1486-.935.2825-.03.0669-.0818.1784-.1707.3568.193-.0669.3191-.1184.5343-.2-.089.1337-.1182.1858-.141.223.1261.1486.2449.29.4081.4757-.1262.0371-.1929.0521-.26.0743-.0371-.0966-.0594-.1635-.0964-.26-.3487.3791-.8909.4905-1.15.9737-.2225.4386-.8454.5873-.8607,1.1667-.0742.0149-.1261.0223-.178.0372a1.3269,1.3269,0,0,1-.5789,1.07.7287.7287,0,0,0-.2818.5426.7281.7281,0,0,1-.089.223c.1039.2527.1039.2527.0371.8622-.03-.1263-.2077-.1709-.1112-.3716.0445-.0967-.0669-.26-.1114-.4237h-.49c-.1113.082-.23.1635-.4675.327l-.0869.0416a15.0358,15.0358,0,0,0-.3667,2.2634l.0233.0292c.03-.015.0594-.06.0964-.0521.2227.0074.371-.0595.3859-.32a.287.287,0,0,1,.2839-.29c.0043,0,.0085,0,.0128,0-.0742.342-.1483.669-.2374,1.0482.193.0222.3413.0371.5046.052.0891.401-.0667.84.1113,1.2786a1.1035,1.1035,0,0,0-.1484.0148c-.0594-.223-.1262-.4461-.1855-.669-.141-.0669-.2746-.1263-.4455-.2082-.0519-.1486-.1188-.3419-.1855-.5352C75.2294,48.75,75.0516,48.69,75.0516,48.69Zm10.9963,6.5411c-.319.3717-.6306.7434-.9572,1.13a1.0869,1.0869,0,0,1,.1114.81,2.8916,2.8916,0,0,1-.6234,1.2191,1.9387,1.9387,0,0,0-1.521.5575c.0519.1338.0964.275.1483.4162-.3042.342-.5936.669-.9126,1.0259-.3414.0372-.3414.0372-.72-.1859-.0594.0521-.1113.1116-.1707.1635.2672.0669.26.3717.46.4683-.0668.0821-.1112.1412-.1409.171-.2671-.0445-.5045-.0892-.8681-.1486.1112.1412.1484.1858.2448.3047-.2-.0595-.3339-.0966-.4972-.1487.0371.1413.0668.2751.1039.4164-.1039.0519-.1929.104-.3116.1635-.0074-.0075-.0371-.0075-.0593-.03a3.531,3.531,0,0,1-.9272-1.0333,1.813,1.813,0,0,1-.2671-.78,11.9718,11.9718,0,0,0-.1338-1.5534,2.0864,2.0864,0,0,1-.0965-.6689c.0371-.2454-.1261-.4386-.1261-.669a.7665.7665,0,0,0-.2894-.5873c-.2894-.26-.5862-.5055-.8978-.7806v-.38c-.052-.03-.141-.082-.2078-.1189a2.76,2.76,0,0,0-.6381-1.4718c.0222-.1115.0593-.29.1039-.52a1.1371,1.1371,0,0,1,.2818-1.36c-.03-.3047-.0668-.6615-.1114-1.0629.0223-.0075.089-.0372.1707-.0669.089-.171.1929-.3716.2818-.5574h.3636v.4533c.0818.0075.1187.0075.2.0149.0149-.1412.03-.29.0445-.4534H78.39c.0445.0446.1113.1185.2152.23.2523-.03.5272-.0594.8459-.0892.1261.1413.3041.327.5119.55h.1856c.1929.1933.3858.394.5787.5947a3.2771,3.2771,0,0,1,.5417.0074,3.5674,3.5674,0,0,1,.49.171c.0743.082.2153.223.3562.3716v.223c.0668.0744.141.1413.2375.2379a.8717.8717,0,0,0-.3414.8476c.1856.1041.3933.2231.5936.3345.1114-.171.193-.2973.2969-.4534.2522.26.72.1784.7939.6616.0891-.0223.1558-.0447.2745-.082.23.1338.5343.03.8608.082a4.3874,4.3874,0,0,0,.601.4534,4.6023,4.6023,0,0,0,.7643.2527C86.1445,54.6815,86.0925,54.9566,86.0479,55.2315Zm3.6063-18.2487a11.09,11.09,0,0,1,1.6473-.1487,4.51,4.51,0,0,1,.5046.171C90.2256,37.295,90.181,37.228,89.6542,36.9828Zm14.8106,19.334c-.23.3646-.1929.892-.69,1.1373.0519-.5575.408-.9738.3561-1.4718.2-.23.3785-.4386.6159-.7062A3.9253,3.9253,0,0,1,104.4648,56.3168ZM87.2056,34.8717a3.9,3.9,0,0,1,.883-.0743c.03.0074.0668-.0669.0965-.1115A8.4451,8.4451,0,0,0,87.2056,34.8717ZM47.3321,57.8873a9.2081,9.2081,0,0,1-2.9488,1.8382,12.6543,12.6543,0,0,1-4.9.82,8.8569,8.8569,0,0,1-6.8374-2.8681,10.5988,10.5988,0,0,1-2.6349-7.4595V49.491a11.3235,11.3235,0,0,1,2.6-7.728,8.5793,8.5793,0,0,1,6.787-2.9773,12.0964,12.0964,0,0,1,4.4517.791A9.5753,9.5753,0,0,1,47.203,41.72V45.976H44.1277l-.584-2.8333a4.2386,4.2386,0,0,0-1.5029-.7909,7.0351,7.0351,0,0,0-2.1438-.2979,4.9541,4.9541,0,0,0-4.2308,2.0481,8.8187,8.8187,0,0,0-1.51,5.36v.7565a8.2242,8.2242,0,0,0,1.4817,5.1489,5.0684,5.0684,0,0,0,4.2734,1.9242,7.7442,7.7442,0,0,0,2.03-.2175,4.4066,4.4066,0,0,0,1.2174-.5087V52.978l-2.9634-.2331V49.7676h7.137Zm6.21,2.3536V57.6987l2.2073-.4361V42.0834l-2.2073-.4362V39.09H62.13v2.5567l-2.2217.4362V56.987h5.8541l.199-2.6582h3.1765v5.9121Zm66.82-21.1507a9.7579,9.7579,0,0,1,5.7118,1.4524,4.9749,4.9749,0,0,1,2.051,4.3437,4.5219,4.5219,0,0,1-2.9774,4.3582,4.3871,4.3871,0,0,1,2.7991,1.7434,5.2691,5.2691,0,0,1,.933,3.0934,5.5182,5.5182,0,0,1-1.9656,4.5979,8.7566,8.7566,0,0,1-5.57,1.5617H111.1455V57.6987l2.2083-.4361V42.0834l-2.2083-.4362V39.09Zm-2.8492,8.8614h2.9914a4.1072,4.1072,0,0,0,2.564-.6972,2.42,2.42,0,0,0,.8969-2.0336,2.5637,2.5637,0,0,0-.9037-2.165,4.3783,4.3783,0,0,0-2.7-.6972h-2.8493Zm0,2.9349v6.1006h3.8315a3.8091,3.8091,0,0,0,2.5212-.7339,2.6814,2.6814,0,0,0,.87-2.1718,3.4347,3.4347,0,0,0-.7405-2.3749,3.0039,3.0039,0,0,0-2.3361-.82Zm29.4675.058h-7.0223v6.043h6.6951l.1849-2.5277H150v5.7816H133.5908V57.6987l2.2083-.4361V42.0834l-2.2083-.4362V39.09h16.38v5.7962h-3.1906l-.1849-2.5278h-6.6382V47.675H146.98Z"/>
</svg>
