<svg xmlns="http://www.w3.org/2000/svg" width="180" height="100" viewBox="0 0 180 100">
  <path fill="#000" d="M84.4164,77.3921A27.7821,27.7821,0,0,1,64.1372,63.9074L65.9634,62.79a25.6621,25.6621,0,0,0,18.73,12.4585Zm27.64-13.4858-1.8262-1.115A25.6915,25.6915,0,0,1,91.59,75.2371l.2871,2.1434A27.8118,27.8118,0,0,0,112.0566,63.9063ZM84.6933,23.2578l-.2769-2.1435a28,28,0,0,0-21.15,15.038l1.89.9989A25.87,25.87,0,0,1,84.6933,23.2578Zm28.2338,12.8955A27.9769,27.9769,0,0,0,91.8754,21.127L91.5923,23.27a25.8373,25.8373,0,0,1,19.442,13.88ZM87.2589,17.5v65h2.1324v-65ZM27.5,40.2692V60.255h2.6654V52.3485l-.2561-8.0848.0666-.0138L36.3375,60.255h1.7742l6.3889-16.0463.0666.0137-.271,8.1261V60.255h2.6675V40.2692H43.553l-6.28,16.2385h-.0812l-6.28-16.2385ZM63.5437,48.862H54.5166V42.3968h10.26V40.2692H51.8491V60.255H64.9243V58.1274H54.517V50.99h9.0271Zm12.1277,2.7316a3.2836,3.2836,0,0,1,2.5051.9883,3.64,3.64,0,0,1,.9329,2.6081v1.8256a11.4187,11.4187,0,0,0,.15,1.8665,2.2417,2.2417,0,0,0,.6767,1.3726h2.7467v-.33a2.5245,2.5245,0,0,1-.7037-1.2079,6.3512,6.3512,0,0,1-.202-1.6746v-1.88a5.7618,5.7618,0,0,0-.71-2.9723,4.0526,4.0526,0,0,0-2.3364-1.7364A5.3842,5.3842,0,0,0,81.04,48.6423a4.5819,4.5819,0,0,0,.7914-2.6767,5.2482,5.2482,0,0,0-1.7055-4.2277,7.4116,7.4116,0,0,0-4.9415-1.4551H68.052V60.255h2.6655V51.5936Zm-4.9537-9.1831h4.4667a4.2319,4.2319,0,0,1,3.0132.925,3.441,3.441,0,0,1,.9662,2.6092,3.3388,3.3388,0,0,1-.9932,2.6514,4.9162,4.9162,0,0,1-3.2569.87H70.7175ZM99.36,60.255a8.2906,8.2906,0,0,0,6.213-2.3957,8.5268,8.5268,0,0,0,2.3415-6.2245V48.9032a8.5584,8.5584,0,0,0-2.3415-6.2255,8.2671,8.2671,0,0,0-6.213-2.4085H93.3091V60.255Zm0-17.8582a5.404,5.404,0,0,1,4.3115,1.8235,6.8592,6.8592,0,0,1,1.5764,4.6491v2.7569a6.8967,6.8967,0,0,1-1.5764,4.6766A5.4015,5.4015,0,0,1,99.36,58.1274H95.9756V42.3968Zm15.0232-2.1276h-2.68V60.255h2.68ZM132.17,60.255h2.7207l-7.4986-19.9858h-2.2875l-7.62,19.9858h2.7205l1.868-5.1474h8.2565Zm-5.9691-16.513h.0813l3.2484,9.1007h-6.6327ZM152.5,40.2691h-2.6667V55.67l-.0812.0274-9.4887-15.4286h-2.6667V60.255h2.6667V44.8264l.0812-.0279,9.4881,15.4565h2.6667Z"/>
</svg>
