<svg xmlns="http://www.w3.org/2000/svg" width="180" height="100" viewBox="0 0 180 100">
  <path fill="#000" d="M29.573,64l-.9672-1.3124c-.8807-1.1949-8.6012-11.8179-8.6012-16.8428A9.5511,9.5511,0,0,1,38.986,44.0657a1.1962,1.1962,0,0,1-2.3571.4084,7.26,7.26,0,0,0-7.0559-6.1118,7.3423,7.3423,0,0,0-7.1763,7.4825c0,3.1684,4.5343,10.32,7.1728,14.0967A70.1347,70.1347,0,0,0,35.635,49.7049a1.2014,1.2014,0,0,1,1.5744-.61,1.1752,1.1752,0,0,1,.6232,1.5406l-.0064.0147A78.4011,78.4011,0,0,1,30.54,62.6879Zm27.5536-8.1215,3.6887-10.6164h-2.162l-2.7509,8.4714-2.7531-8.4714H51.0036L54.676,55.8785ZM63.9831,44.38a1.1887,1.1887,0,0,0-1.68-.0625c-.0215.02-.0424.0409-.0624.0625a1.3722,1.3722,0,0,0,0,1.8554,1.1861,1.1861,0,0,0,1.6762.0663q.0344-.0318.0662-.0663A1.3722,1.3722,0,0,0,63.9831,44.38Zm.1454,11.4989V47.4517h-2.03v8.4268Zm2.19-4.6318a2.5121,2.5121,0,0,0,1.1444.708c.4479.1312.8958.2426,1.3484.3342a4.3107,4.3107,0,0,1,1.1514.3875.7639.7639,0,0,1,.4761.6845.8435.8435,0,0,1-.3448.7006,1.4589,1.4589,0,0,1-.91.2661,1.1153,1.1153,0,0,1-1.28-1.0657h-2.075a2.66,2.66,0,0,0,.9943,2.0311,4.1752,4.1752,0,0,0,4.66-.0074A2.2441,2.2441,0,0,0,72.4,53.43a1.9983,1.9983,0,0,0-.4761-1.3925,2.5208,2.5208,0,0,0-1.1467-.73c-.4456-.1362-.8958-.25-1.346-.3416a4.522,4.522,0,0,1-1.1539-.38.74.74,0,0,1-.4737-.67.8007.8007,0,0,1,.3166-.67,1.4388,1.4388,0,0,1,.8935-.2426A1.0743,1.0743,0,0,1,70.252,50.068h2.0754a2.6555,2.6555,0,0,0-.9357-2,4.0459,4.0459,0,0,0-4.669.0074,2.3214,2.3214,0,0,0-.8794,1.8406,1.8731,1.8731,0,0,0,.4759,1.3307ZM76.0138,44.38a1.1887,1.1887,0,0,0-1.68-.0625q-.0324.03-.0625.0625a1.3724,1.3724,0,0,0,0,1.8554,1.1861,1.1861,0,0,0,1.6762.0663q.0343-.0318.0663-.0663A1.3724,1.3724,0,0,0,76.0138,44.38Zm.1453,11.4989V47.4517H74.1283v8.4268Zm4.61-1.9693a.7755.7755,0,0,1-.1876-.5854V49.202h1.7869v-1.75H80.5819V45.3686H78.5511v2.0831H77.7v1.75h.8513v4.122a2.5258,2.5258,0,0,0,.6613,1.9618,2.7433,2.7433,0,0,0,1.8878.5929h1.2823V54.0838h-.9638A.9458.9458,0,0,1,80.77,53.9092ZM87.5116,56a3.9811,3.9811,0,0,0,2.9478-1.2006,4.7536,4.7536,0,0,0,.007-6.2817,4.1195,4.1195,0,0,0-7.045,3.1327,4.3244,4.3244,0,0,0,1.1655,3.149A3.9107,3.9107,0,0,0,87.5116,56Zm-1.44-2.4631a3.2571,3.2571,0,0,1,0-3.7418,1.88,1.88,0,0,1,1.4493-.6548,1.9213,1.9213,0,0,1,1.4609.6548,3.1685,3.1685,0,0,1-.007,3.7343,1.9265,1.9265,0,0,1-1.4633.661,1.87,1.87,0,0,1-1.44-.6535Zm7.19-6.085v8.4268h2.0307V51.65a2.3528,2.3528,0,0,1,.462-1.65,1.8169,1.8169,0,0,1,1.37-.479h.5041V47.33a2.53,2.53,0,0,0-2.3361,1.6129V47.4517Zm5.8345,3.795a2.5192,2.5192,0,0,0,1.1468.708c.4455.1312.8958.2426,1.346.3342a4.3045,4.3045,0,0,1,1.1538.3875.7641.7641,0,0,1,.4761.6845.8463.8463,0,0,1-.3471.7006,1.4478,1.4478,0,0,1-.9076.2661,1.1179,1.1179,0,0,1-1.2827-1.0657H98.6061A2.66,2.66,0,0,0,99.6,55.293a4.179,4.179,0,0,0,4.662-.0074,2.248,2.248,0,0,0,.9146-1.8554,1.9867,1.9867,0,0,0-.4761-1.3925,2.526,2.526,0,0,0-1.1443-.73c-.4479-.1362-.8958-.25-1.3485-.3416a4.5031,4.5031,0,0,1-1.1514-.38.7424.7424,0,0,1-.476-.67.8.8,0,0,1,.3165-.67,1.4388,1.4388,0,0,1,.8935-.2426,1.0772,1.0772,0,0,1,1.2406,1.0645h2.073a2.6391,2.6391,0,0,0-.9357-2,4.0459,4.0459,0,0,0-4.669.0074,2.3194,2.3194,0,0,0-.8771,1.8406,1.8722,1.8722,0,0,0,.4737,1.3307ZM115.81,55.97a5.0309,5.0309,0,0,0,2.9172-.8751,4.7661,4.7661,0,0,0,1.8222-2.4718h-2.4341a2.3807,2.3807,0,0,1-2.3053,1.4,2.8556,2.8556,0,0,1-2.2255-.9506,4.1437,4.1437,0,0,1,0-5.05,2.8554,2.8554,0,0,1,2.2255-.9507,2.3635,2.3635,0,0,1,2.3053,1.4h2.4341a4.81,4.81,0,0,0-1.8222-2.4793A5,5,0,0,0,115.81,45.11a4.8963,4.8963,0,0,0-3.6536,1.536,5.8393,5.8393,0,0,0-.007,7.7881A4.8892,4.8892,0,0,0,115.81,55.97Zm12.2764-.73a3.7011,3.7011,0,0,0,1.3391-1.9618h-2.19a1.66,1.66,0,0,1-1.5548.9122,1.7429,1.7429,0,0,1-1.2827-.5013,2.0646,2.0646,0,0,1-.5769-1.3245h5.82a5.29,5.29,0,0,0,.0586-.8206,4.198,4.198,0,0,0-1.1233-3.0647,3.8487,3.8487,0,0,0-2.8752-1.1487,3.7356,3.7356,0,0,0-2.8539,1.1784,4.4182,4.4182,0,0,0-1.1023,3.1414,4.4906,4.4906,0,0,0,1.0952,3.1564A3.678,3.678,0,0,0,125.68,56,3.8428,3.8428,0,0,0,128.0859,55.24Zm-.49-4.2592H123.82a2.1808,2.1808,0,0,1,.6121-1.338,1.7532,1.7532,0,0,1,1.2756-.5025,1.8511,1.8511,0,0,1,1.3039.5025,1.8736,1.8736,0,0,1,.5839,1.338Zm3.7028-3.5289v8.4268H133.33v-4.654a2.15,2.15,0,0,1,.483-1.5138,1.6846,1.6846,0,0,1,1.3039-.5248,1.6657,1.6657,0,0,1,1.2968.5248,2.1814,2.1814,0,0,1,.4736,1.5138v4.654h2.0192V50.92a3.7772,3.7772,0,0,0-.8653-2.6389,2.88,2.88,0,0,0-2.2325-.9507A2.6171,2.6171,0,0,0,133.33,48.714V47.4517Zm12.1451,6.4575a.7755.7755,0,0,1-.1876-.5854V49.202h1.787v-1.75h-1.787V45.3686h-2.0308v2.0831h-.8513v1.75h.8513v4.122a2.5258,2.5258,0,0,0,.6613,1.9618,2.7429,2.7429,0,0,0,1.8877.5929h1.2828V54.0838h-.9638a.9457.9457,0,0,1-.65-.1746Zm8.9769,1.3306A3.7026,3.7026,0,0,0,153.76,53.278h-2.19a1.66,1.66,0,0,1-1.5548.9122,1.7427,1.7427,0,0,1-1.2827-.5013,2.0641,2.0641,0,0,1-.5769-1.3245h5.82a5.2769,5.2769,0,0,0,.0587-.8206,4.1985,4.1985,0,0,0-1.1234-3.0647,3.8483,3.8483,0,0,0-2.875-1.1487,3.7358,3.7358,0,0,0-2.854,1.1784A4.4186,4.4186,0,0,0,146.08,51.65a4.49,4.49,0,0,0,1.0952,3.1564A3.6782,3.6782,0,0,0,150.0147,56a3.8432,3.8432,0,0,0,2.4061-.76Zm-.49-4.2592h-3.7756a2.1808,2.1808,0,0,1,.6121-1.338,1.7532,1.7532,0,0,1,1.2756-.5025,1.8515,1.8515,0,0,1,1.3039.5025,1.8739,1.8739,0,0,1,.5834,1.338Zm3.7027-3.5289v8.4268h2.0309V51.65a2.3527,2.3527,0,0,1,.4619-1.65,1.8171,1.8171,0,0,1,1.37-.479H160V47.33a2.53,2.53,0,0,0-2.3357,1.6129V47.4517Z"/>
</svg>
