<svg xmlns="http://www.w3.org/2000/svg" width="180" height="100" viewBox="0 0 180 100">
  <path fill="#000" d="M54.3435,33.5978,54.12,32.33c0-.04-.024-.06-.0709-.06H52.3342c-.047,0-.0709.02-.0709.06L52.04,33.5978a.134.134,0,0,1-.1338.1344l-.0186-.0014H50.8183c-.1111,0-.1534-.0526-.13-.1566l1.7392-8.1631a.1418.1418,0,0,1,.1507-.133l.0016,0h1.2457a.1435.1435,0,0,1,.1534.1329l1.7391,8.1631v.0483c0,.0718-.0439.1083-.13.1083h-1.093a.1326.1326,0,0,1-.1508-.1127Zm-1.81-2.4269h1.3041c.0481,0,.0668-.02.0595-.06l-.6823-3.8163c-.0073-.0236-.0185-.0364-.0345-.0364s-.0277.0128-.0354.0364l-.67,3.8163C52.4667,31.1505,52.4865,31.1709,52.5334,31.1709Zm6.2232-3.5675a.1306.1306,0,0,1,.0992-.043h1.0817a.1306.1306,0,0,1,.0992.043.1382.1382,0,0,1,.0418.1018V33.586a.1426.1426,0,0,1-.0418.103.1344.1344,0,0,1-.0992.0418H58.8558a.1344.1344,0,0,1-.0992-.0418.1426.1426,0,0,1-.0418-.103V33.32a.0486.0486,0,0,0-.0229-.0482c-.0167-.0076-.0313,0-.047.0236a1.2124,1.2124,0,0,1-1.0933.52,1.5666,1.5666,0,0,1-1.158-.4407,1.8544,1.8544,0,0,1-.44-1.3585V27.7051a.1375.1375,0,0,1,.0418-.1018.13.13,0,0,1,.099-.0429H57.176a.13.13,0,0,1,.0991.0429.1379.1379,0,0,1,.0418.1018v4.0094q0,.9055.6812.9056a.6162.6162,0,0,0,.529-.2594,1.1867,1.1867,0,0,0,.1877-.7064V27.7052A.1382.1382,0,0,1,58.7566,27.6034ZM65.1183,33.61,64.12,30.1449c-.0167-.032-.0354-.0482-.0594-.0482h-.6226a.0521.0521,0,0,0-.0585.0449.0546.0546,0,0,0,0,.0151V33.586a.1426.1426,0,0,1-.0418.103.1343.1343,0,0,1-.099.0418H62.1567a.134.134,0,0,1-.0992-.0418.1421.1421,0,0,1-.0417-.103V25.4229a.1379.1379,0,0,1,.0417-.1018.131.131,0,0,1,.0992-.0429h2.21a1.9563,1.9563,0,0,1,1.8393,1.1771,2.9874,2.9874,0,0,1,.264,1.2863,2.7726,2.7726,0,0,1-.2817,1.2918,1.9125,1.9125,0,0,1-.7877.8207c-.0313.0086-.0428.0322-.0354.0729l1.1517,3.634a.1315.1315,0,0,1,.0125.0611c0,.0719-.0438.1083-.13.1083H65.2709A.1469.1469,0,0,1,65.1183,33.61Zm-1.7392-7.0632v2.4022a.0527.0527,0,0,0,.0584.0612h.7168a.83.83,0,0,0,.6874-.3388,1.45,1.45,0,0,0,.2651-.9176,1.4761,1.4761,0,0,0-.2651-.9229.8268.8268,0,0,0-.6874-.3442h-.7165a.0525.0525,0,0,0-.0584.06Zm7.6911,4.57a.1317.1317,0,0,1-.1.0429H68.3736a.0519.0519,0,0,0-.0585.0448.0553.0553,0,0,0,0,.0152v.5435a.93.93,0,0,0,.1993.6153.6387.6387,0,0,0,.5175.2423.67.67,0,0,0,.4642-.1758.8177.8177,0,0,0,.2525-.4524.1479.1479,0,0,1,.1523-.1211l1.0462.0482a.1384.1384,0,0,1,.1.0429.1282.1282,0,0,1,.0292.1147,1.8918,1.8918,0,0,1-.6,1.2981,2.499,2.499,0,0,1-2.9669-.0724,1.8693,1.8693,0,0,1-.5582-1.4312V29.42A1.88,1.88,0,0,1,67.51,28.001a2.4241,2.4241,0,0,1,3.0433,0,1.88,1.88,0,0,1,.5581,1.4193v1.5944a.141.141,0,0,1-.0407.1015Zm-2.5558-2.2029a.93.93,0,0,0-.1993.6153v.5435a.0523.0523,0,0,0,.0425.06.0536.0536,0,0,0,.016,0h1.3278a.0517.0517,0,0,0,.0584-.0446.053.053,0,0,0,0-.0154v-.5433a.9322.9322,0,0,0-.1993-.6218.6619.6619,0,0,0-.5289-.2358A.6418.6418,0,0,0,68.5144,28.9133ZM72.7449,33.61l-1.4334-5.9044V27.657c0-.0719.0427-.1083.13-.1083H72.64a.1326.1326,0,0,1,.1508.1126l.0015.02.7053,3.7547c.0083.0235.02.0364.0354.0364s.0271-.0129.0355-.0364l.6927-3.7547a.1349.1349,0,0,1,.1355-.1344l.0179.0015,1.1988.0235c.1095,0,.1523.0526.13.1576l-1.422,5.88a.1558.1558,0,0,1-.1649.1212H72.91A.155.155,0,0,1,72.7449,33.61Zm3.7788-.314a1.8882,1.8882,0,0,1-.5583-1.4365v-2.427A1.8825,1.8825,0,0,1,76.53,28.001a2.4583,2.4583,0,0,1,3.0673,0,1.8856,1.8856,0,0,1,.5634,1.4311V31.859a1.8881,1.8881,0,0,1-.5582,1.4365,2.4943,2.4943,0,0,1-3.0787,0Zm2.0687-.923a.9154.9154,0,0,0,.2056-.6218v-2.222a.9162.9162,0,0,0-.2056-.6153.6725.6725,0,0,0-.5351-.2423.6621.6621,0,0,0-.529.2358.9258.9258,0,0,0-.1992.6218V31.751a.9273.9273,0,0,0,.1992.6217.6613.6613,0,0,0,.529.2349A.6794.6794,0,0,0,78.5924,32.3726ZM80.96,26.4735a.9254.9254,0,0,1,0-1.2317.7987.7987,0,0,1,.5988-.2412.7807.7807,0,0,1,.5937.2412.8588.8588,0,0,1,.23.6163.842.842,0,0,1-.2358.6154.7811.7811,0,0,1-.5874.2422A.7957.7957,0,0,1,80.96,26.4735Zm-.0295,7.2157a.1428.1428,0,0,1-.0418-.103v-5.881a.1379.1379,0,0,1,.0418-.1018.13.13,0,0,1,.099-.043h1.0819a.1308.1308,0,0,1,.0992.043.1377.1377,0,0,1,.0416.1018V33.586a.1426.1426,0,0,1-.0416.103.1344.1344,0,0,1-.0992.0418H81.03A.1337.1337,0,0,1,80.9305,33.6892Zm5.0932-6.08a.1609.1609,0,0,1,.0709.1813l-.1878,1.1234c-.0083.0965-.0625.1243-.1648.0849a1.0933,1.0933,0,0,0-.3055-.0494.8961.8961,0,0,0-.2587.0365.7481.7481,0,0,0-.5341.3806,1.4688,1.4688,0,0,0-.2056.791v3.4175a.138.138,0,0,1-.0417.1019.1309.1309,0,0,1-.0991.0428H83.2152a.1309.1309,0,0,1-.0991-.0428.1381.1381,0,0,1-.0417-.1019V27.7052a.1378.1378,0,0,1,.0417-.1018.1305.1305,0,0,1,.0991-.043h1.0819a.1305.1305,0,0,1,.0991.043.1378.1378,0,0,1,.0417.1018V28.26c0,.0332.0074.05.023.0548s.0278-.0095.0355-.0418a1.0781,1.0781,0,0,1,1.0338-.7847.8639.8639,0,0,1,.4935.12ZM35.1921,63.09,27.5543,25.9881l-.0543-.22q0-.4938.5884-.4942h5.3948a.6059.6059,0,0,1,.6871.5174.6221.6221,0,0,1,.0066.0863l4.4341,26.4c.0354.11.0886.165.1606.165s.1242-.0546.16-.165l4.3264-26.4a.61.61,0,0,1,.61-.6106.5765.5765,0,0,1,.085.0069h5.2352q.6933,0,.5341.7139L42.03,63.09a.646.646,0,0,1-.6876.6043l-.0068-.0005H35.8869a.6444.6444,0,0,1-.694-.5937Zm16.8528-1.3721a8.59,8.59,0,0,1-2.5369-6.5316V44.1549a8.5652,8.5652,0,0,1,2.5634-6.5037,9.6508,9.6508,0,0,1,6.9441-2.4434,9.7243,9.7243,0,0,1,6.9972,2.4434,8.5619,8.5619,0,0,1,2.5646,6.5037V55.1866A8.5932,8.5932,0,0,1,66.04,61.7182a9.7732,9.7732,0,0,1-7.0243,2.415A9.6905,9.6905,0,0,1,52.0449,61.7182Zm9.4013-4.1991a4.1455,4.1455,0,0,0,.9351-2.8268V44.5934a4.1713,4.1713,0,0,0-.9351-2.799,3.0463,3.0463,0,0,0-2.4308-1.0977,2.9944,2.9944,0,0,0-2.4038,1.0709,4.2146,4.2146,0,0,0-.9073,2.8258V54.6925a4.2174,4.2174,0,0,0,.9073,2.8268,2.9937,2.9937,0,0,0,2.4038,1.07A3.0758,3.0758,0,0,0,61.4462,57.5191Zm8.8929,16.9054a.9421.9421,0,0,1-.1065-.4673V70.0056a.7046.7046,0,0,1,.16-.4663.4762.4762,0,0,1,.3747-.1919A8.3,8.3,0,0,0,73.544,68.88a3.2289,3.2289,0,0,0,1.63-1.5909,10.3612,10.3612,0,0,0,.8815-3.43l-.0543-.33-6.73-27.2229v-.22c0-.329.1951-.4931.5874-.4931h5.2352a.607.607,0,0,1,.6882.5183.6275.6275,0,0,1,.0067.0855l3.2581,18.1667c.0345.1094.0887.1651.16.1651s.1252-.0557.1607-.1651l9.5617-28.4855c.1581-.4109.2671-.6037.6938-.6037l5.2883.11a.5734.5734,0,0,1,.6488.4914.5926.5926,0,0,1-.0352.302L81.931,65.2311a24.2252,24.2252,0,0,1-2.1367,5.8176,6.3135,6.3135,0,0,1-3.1518,2.7442,16.1089,16.1089,0,0,1-5.8225.8233h-.2668C70.4809,74.6162,70.41,74.5519,70.3391,74.4245ZM106.61,37.7329a8.8128,8.8128,0,0,1,2.6165,6.642V63.0357a.6437.6437,0,0,1-.1868.4662.6084.6084,0,0,1-.4536.1919h-4.9141a.6079.6079,0,0,1-.4549-.1919.6394.6394,0,0,1-.1867-.4662V61.9926a.2229.2229,0,0,0-.1064-.22c-.072-.0365-.143,0-.2139.1093a6.6759,6.6759,0,0,1-5.4479,2.2511,8.5738,8.5738,0,0,1-5.3687-1.7841q-2.3239-1.7831-2.3234-6.5047,0-4.94,2.8044-7.0247a12.495,12.495,0,0,1,7.6117-2.0861h2.7776a.2375.2375,0,0,0,.2673-.2054.2417.2417,0,0,0,0-.069V45.0329a4.8484,4.8484,0,0,0-.9608-3.1559,2.98,2.98,0,0,0-2.4037-1.18,2.55,2.55,0,0,0-1.87.7408,3.3073,3.3073,0,0,0-.9088,2.0035.6315.6315,0,0,1-.5971.6627A.6229.6229,0,0,1,96.194,44.1H91.0117q-.64,0-.5874-.6593a8.3692,8.3692,0,0,1,2.8575-5.9827,9.5424,9.5424,0,0,1,6.49-2.25,9.4411,9.4411,0,0,1,6.8375,2.5245Zm-4.8074,20.0888a3.6123,3.6123,0,0,0,1.2279-2.9093V51.7841a.24.24,0,0,0-.1992-.274.2341.2341,0,0,0-.0679,0H99.9855a4.2105,4.2105,0,0,0-2.9378,1.0151,3.76,3.76,0,0,0-1.1216,2.9362,3.4543,3.4543,0,0,0,.8545,2.5523,2.9686,2.9686,0,0,0,2.19.85,4.2513,4.2513,0,0,0,2.8318-1.042ZM124.7429,35.84a.61.61,0,0,1,.4537-.1919h4.9149a.6135.6135,0,0,1,.4537.1919.6481.6481,0,0,1,.1868.4663V62.6511q0,5.9286-2.6177,9.1387T118.7869,75q-1.1754,0-1.7622-.0547a.6307.6307,0,0,1-.6458-.6162.6509.6509,0,0,1,.0042-.0977V70.0056q0-.7138.6944-.6037a10.2137,10.2137,0,0,0,4.6739-.7686,4.3359,4.3359,0,0,0,2.217-2.4151,12.2982,12.2982,0,0,0,.5874-4.1711v-.6037c0-.11-.0355-.1736-.1065-.1919s-.1428.0268-.2138.1372a5.8928,5.8928,0,0,1-5.0213,2.3595,6.499,6.499,0,0,1-5.448-2.3874,10.2773,10.2773,0,0,1-1.87-6.5037V44.1a10.1426,10.1426,0,0,1,1.8956-6.5595,6.5856,6.5856,0,0,1,5.422-2.3326,5.8961,5.8961,0,0,1,5.0213,2.3605c.071.1094.1419.1554.2138.1372s.1065-.0825.1065-.1919V36.3059A.6431.6431,0,0,1,124.7429,35.84Zm-1.0683,21.3506a4.2207,4.2207,0,0,0,.8816-2.7722V44.5934a4.305,4.305,0,0,0-.8816-2.8258,2.86,2.86,0,0,0-2.3234-1.0709,2.91,2.91,0,0,0-2.3505,1.0977,4.2436,4.2436,0,0,0-.9074,2.799v9.8247a4.1333,4.1333,0,0,0,.9074,2.7721,2.94,2.94,0,0,0,2.3505,1.07,2.8624,2.8624,0,0,0,2.3234-1.07Zm28.6317-5.3792a.61.61,0,0,1-.4537.1919H140.0477a.238.238,0,0,0-.2674.2064.25.25,0,0,0,0,.068v2.47a4.243,4.243,0,0,0,.9076,2.8,2.9071,2.9071,0,0,0,2.3505,1.0977,3.0392,3.0392,0,0,0,2.1095-.7964,3.7222,3.7222,0,0,0,1.1486-2.0583.6748.6748,0,0,1,.6949-.5489l4.7542.22a.6126.6126,0,0,1,.4536.1918.58.58,0,0,1,.1336.5221,8.6036,8.6036,0,0,1-2.7237,5.9,11.3564,11.3564,0,0,1-13.4875-.33,8.4982,8.4982,0,0,1-2.5369-6.5037V44.1a8.54,8.54,0,0,1,2.5369-6.4491,11.0137,11.0137,0,0,1,13.8339,0A8.5436,8.5436,0,0,1,152.4927,44.1v7.2444a.6443.6443,0,0,1-.1864.4662ZM140.6882,41.7944a4.2436,4.2436,0,0,0-.9074,2.799v2.47a.24.24,0,0,0,.1984.2742.2326.2326,0,0,0,.0687,0h6.0353a.2371.2371,0,0,0,.2674-.2044.2422.2422,0,0,0,0-.07v-2.47a4.22,4.22,0,0,0-.9073-2.8258,2.9977,2.9977,0,0,0-2.4038-1.0709A2.91,2.91,0,0,0,140.6882,41.7944Z"/>
</svg>
