<svg xmlns="http://www.w3.org/2000/svg" width="180" height="100" viewBox="0 0 180 100">
  <path fill="#000" d="M44.9659,31.8793a1.214,1.214,0,0,0-.7229.7683,5.8813,5.8813,0,0,0-.1965,1.7931V50.7056a5.8748,5.8748,0,0,0,.1965,1.793,1.2094,1.2094,0,0,0,.7229.7684,5.5939,5.5939,0,0,0,1.6893.2562V54.18q-1.3364-.096-4.1173-.096-2.5783,0-4.0857.096v-.6563a5.6013,5.6013,0,0,0,1.6894-.2562,1.2149,1.2149,0,0,0,.7229-.7684,5.9062,5.9062,0,0,0,.1963-1.793V42.8293H30.5946v7.8763a5.8756,5.8756,0,0,0,.1963,1.7931,1.21,1.21,0,0,0,.7229.7683,5.5919,5.5919,0,0,0,1.6894.2562V54.18q-1.4778-.096-4.0857-.096-2.7672,0-4.1173.096v-.6563A5.6006,5.6006,0,0,0,26.69,53.267a1.2142,1.2142,0,0,0,.7229-.7684,5.9029,5.9029,0,0,0,.1965-1.793V34.4407a5.9129,5.9129,0,0,0-.1965-1.7931,1.2188,1.2188,0,0,0-.7229-.7683A5.6339,5.6339,0,0,0,25,31.6231v-.6564q1.3349.0961,4.1173.096,2.6077,0,4.0857-.096v.6564a5.6206,5.6206,0,0,0-1.6894.2562,1.2141,1.2141,0,0,0-.7228.7683,5.8812,5.8812,0,0,0-.1964,1.7931v7.7322H41.0607V34.4407a5.916,5.916,0,0,0-.1964-1.7931,1.2193,1.2193,0,0,0-.7229-.7683,5.6333,5.6333,0,0,0-1.6894-.2562v-.6564q1.5086.0961,4.0857.096,2.7654,0,4.1173-.096v.6564A5.6218,5.6218,0,0,0,44.9659,31.8793Zm26.5366.0319a9.31,9.31,0,0,1,3.5673,4.09,14.8432,14.8432,0,0,1,1.2651,6.38,14.9437,14.9437,0,0,1-1.3044,6.4039,10.2492,10.2492,0,0,1-3.63,4.322,9.3875,9.3875,0,0,1-5.2963,1.5369,10.0712,10.0712,0,0,1-5.3667-1.4087,9.2886,9.2886,0,0,1-3.5673-4.09,14.8266,14.8266,0,0,1-1.2649-6.38A14.9321,14.9321,0,0,1,57.21,36.3614a10.2351,10.2351,0,0,1,3.63-4.3223,9.3858,9.3858,0,0,1,5.2958-1.5366,10.0826,10.0826,0,0,1,5.3672,1.4087ZM62.38,32.56a9.4187,9.4187,0,0,0-2.42,4.0823,19.4272,19.4272,0,0,0-.8486,5.9953,17.5323,17.5323,0,0,0,.9428,6.0033,9.4141,9.4141,0,0,0,2.57,4.0019A5.3775,5.3775,0,0,0,66.23,54.0512a5.1388,5.1388,0,0,0,3.6222-1.4648,9.4653,9.4653,0,0,0,2.4119-4.082,19.4242,19.4242,0,0,0,.8486-5.9953,17.5292,17.5292,0,0,0-.9429-6.0033,9.4655,9.4655,0,0,0-2.5615-4.0019A5.3549,5.3549,0,0,0,66.01,31.095,5.163,5.163,0,0,0,62.38,32.56ZM85.647,35.161a40.9269,40.9269,0,0,0-.2357-4.1943q2.6709.0961,9.0832.096,6.3645,0,9.0361-.096-.2211,2.3383-.22,4.1943,0,1.6494.0943,2.6895h-.7386a20.315,20.315,0,0,0-.6365-3.77,3.04,3.04,0,0,0-1.3515-1.793,6.02,6.02,0,0,0-2.9622-.5683H95.9716V50.37a5.7863,5.7863,0,0,0,.2515,1.993,1.4739,1.4739,0,0,0,.9115.8728,7.3439,7.3439,0,0,0,2.09.2879V54.18q-1.6971-.096-4.73-.096-3.2221,0-4.7617.096v-.6563a7.3482,7.3482,0,0,0,2.09-.2879,1.4762,1.4762,0,0,0,.9114-.8728,5.8035,5.8035,0,0,0,.2514-1.993V31.7188H91.2415a6.0177,6.0177,0,0,0-2.9621.5684A3.0356,3.0356,0,0,0,86.9279,34.08a20.139,20.139,0,0,0-.6364,3.77h-.7386Q85.6471,36.81,85.647,35.161Zm43.1,14.8243q0,1.8579.22,4.1942-2.1849-.096-7.37-.096-6.1759,0-9.3347.096v-.6563a5.6013,5.6013,0,0,0,1.6894-.2562,1.2149,1.2149,0,0,0,.7229-.7684,5.9063,5.9063,0,0,0,.1964-1.793V34.4407a5.9192,5.9192,0,0,0-.1964-1.7931,1.2193,1.2193,0,0,0-.7229-.7683,5.6333,5.6333,0,0,0-1.6894-.2562v-.6564q3.1587.0961,9.3347.096,4.7292,0,6.726-.096a38.103,38.103,0,0,0-.22,3.8741,17.1778,17.1778,0,0,0,.0943,2.0335h-.7386a16.133,16.133,0,0,0-.5894-3.17,2.622,2.622,0,0,0-1.1943-1.5128,5.34,5.34,0,0,0-2.538-.4723h-2.6715a5.3529,5.3529,0,0,0-1.6893.1921,1.1622,1.1622,0,0,0-.7229.7445,5.796,5.796,0,0,0-.1961,1.7847v7.7322h2.1373a2.2241,2.2241,0,0,0,2.1529-.9842,5.6519,5.6519,0,0,0,.66-2.0091q.1252-1.0234.1729-1.3287h.7385q-.11,1.6179-.11,3.09l.0157,1.5692q0,1.666.1886,4.6586h-.7387q-.0323-.2236-.1807-1.5849a3.2554,3.2554,0,0,0-.8721-2.0571,2.8038,2.8038,0,0,0-2.0273-.6964h-2.1373v7.8763a5.7951,5.7951,0,0,0,.1965,1.785,1.1626,1.1626,0,0,0,.7229.7445,5.3532,5.3532,0,0,0,1.6894.1921h2.3572a6.7912,6.7912,0,0,0,3.0565-.5444,3.1677,3.1677,0,0,0,1.5087-1.7449,14.7614,14.7614,0,0,0,.715-3.522h.7386A23.3535,23.3535,0,0,0,128.7472,49.9853Zm16.0616-18.106a1.2143,1.2143,0,0,0-.7229.7683,5.8874,5.8874,0,0,0-.1964,1.7931V50.7056a5.795,5.795,0,0,0,.1964,1.785,1.1626,1.1626,0,0,0,.7229.7445,5.3561,5.3561,0,0,0,1.6894.1921h2.3573a6.47,6.47,0,0,0,3.0565-.5764,3.3051,3.3051,0,0,0,1.5087-1.841,16.2864,16.2864,0,0,0,.715-3.7141h.7386q-.0944,1.0251-.0943,2.69,0,1.8579.22,4.1942-2.1849-.096-7.37-.096-6.1758,0-9.3346.096v-.6563a5.6006,5.6006,0,0,0,1.6893-.2562,1.2142,1.2142,0,0,0,.7229-.7684,5.9029,5.9029,0,0,0,.1965-1.793V34.4407a5.9129,5.9129,0,0,0-.1965-1.7931,1.2188,1.2188,0,0,0-.7229-.7683,5.6326,5.6326,0,0,0-1.6893-.2562v-.6564q1.3349.0961,4.1173.096,2.6078,0,4.0857-.096v.6564A5.623,5.623,0,0,0,144.8088,31.8793Z"/>
  <path fill="#000" opacity="0.8" d="M55.1118,69.5l-1.4764-1.9963q-.2739.0186-.43.0186H51.5128V69.5h-.9771V63h2.6695a3.2884,3.2884,0,0,1,2.0922.6035A2.0027,2.0027,0,0,1,56.06,65.266a2.0936,2.0936,0,0,1-.3914,1.2813,2.1983,2.1983,0,0,1-1.1152.7707L56.1771,69.5Zm-.5189-3.1477a1.4453,1.4453,0,0,0,0-2.1681,2.2873,2.2873,0,0,0-1.4174-.3758H51.5133v2.9248h1.6622A2.2668,2.2668,0,0,0,54.5929,66.3523Zm11.7336,2.34V69.5H61.36V63h4.83v.8078H62.3372v1.9963H65.77v.7893H62.3372v2.0984ZM77.4744,63l-3.0015,6.5h-.9687L70.493,63h1.0557l2.4647,5.339L76.4962,63ZM82.06,63h.9771v6.5H82.06Zm11.7133,5.6918V69.5H88.8069V63h4.83v.8078H89.7841v1.9963h3.4323v.7893H89.7841v2.0984ZM108.6465,63l-2.2875,6.5h-1.0271l-1.8676-5.1909L101.5972,69.5H100.55L98.2625,63h1.0069l1.8478,5.2833L103.0444,63h.8987l1.8875,5.3111L107.7181,63Zm9.8757,5.6918V69.5h-4.9665V63h4.83v.8078h-3.8525v1.9963h3.4323v.7893h-3.4323v2.0984Zm9.8768.8078-1.4764-1.9963q-.2738.0186-.43.0186h-1.6923V69.5h-.9772V63h2.6695a3.2888,3.2888,0,0,1,2.0923.6035,2.003,2.003,0,0,1,.7628,1.6621,2.0923,2.0923,0,0,1-.3915,1.2806,2.1989,2.1989,0,0,1-1.1151.7707L129.4643,69.5Zm-.5188-3.1477a1.4455,1.4455,0,0,0,0-2.1681,2.2879,2.2879,0,0,0-1.4174-.3758h-1.6622v2.9248h1.6622A2.2674,2.2674,0,0,0,127.88,66.3523Z"/>
</svg>
