<svg xmlns="http://www.w3.org/2000/svg" width="40" height="40" viewBox="0 0 40 40">
  <path d="M16.5,18.5a6,6,0,1,1-6-6A6,6,0,0,1,16.5,18.5Zm-.69,7.86A10.9108,10.9108,0,0,0,10.5,25c-5.18,0-9.45,3.5-10,8m29-20.5a6,6,0,1,0,6,6A6,6,0,0,0,29.5,12.5ZM39.5,33c-.55-4.5-4.82-8-10-8a10.9108,10.9108,0,0,0-5.31,1.36M20,23.5A4.5,4.5,0,1,0,24.5,28,4.5,4.5,0,0,0,20,23.5Zm-5.5-19a2.996,2.996,0,0,1,3-3A3.14,3.14,0,0,1,20,3a3.14,3.14,0,0,1,2.5-1.5,2.996,2.996,0,0,1,3,3c0,4.8442-5.5,8-5.5,8S14.5,9.3442,14.5,4.5Zm11.98,34a6.4992,6.4992,0,0,0-12.96,0" fill="none" stroke="#000" stroke-linecap="round" stroke-linejoin="round" stroke-width="1.3"/>
</svg>
