<svg xmlns="http://www.w3.org/2000/svg" width="28" height="28" viewBox="0 0 28 28">
  <path d="M19.7273,19.7041c0,2.0676-1.4085,3.7959-3.0839,3.7959A6.899,6.899,0,0,1,14,22.551a6.899,6.899,0,0,1-2.6434.949c-1.6754,0-3.0839-1.7283-3.0839-3.7959,0-5.9429,4.2854-7.1162,5.7273-7.1162C15.3553,12.5879,19.7273,13.7841,19.7273,19.7041Zm.9166-8.9757c-.9225,1.1751-.9344,2.6731-.0711,3.3779s2.234.321,3.1564-.8541,1.0546-2.7115.1913-3.4163S21.5664,9.5533,20.6439,10.7284Zm-5.6179-3.55c-.2315,1.6406.5932,3.12,1.8173,3.3214s2.3511-1.0165,2.5826-2.6571-.4019-3.12-1.626-3.3214S15.2575,5.5382,15.026,7.1788ZM4.1227,9.8359c-.8632.7048-.8268,2.2412.0957,3.4163s2.2932,1.5588,3.1565.8541.8268-2.2412-.0957-3.4163S4.9859,9.1312,4.1227,9.8359Zm6.2164-5.3142C9.1149,4.7227,8.29,6.2025,8.5217,7.8431S9.88,10.7012,11.1043,10.5s2.0489-1.6808,1.8173-3.3214S11.5632,4.3207,10.3391,4.5217Z" fill="none" stroke="#000" stroke-linecap="round" stroke-linejoin="round" stroke-width="1.1"/>
</svg>
