<svg xmlns="http://www.w3.org/2000/svg" width="28" height="28" viewBox="0 0 28 28">
  <path d="M14.1024,9.5a4.2281,4.2281,0,0,1,1.82.3577,2.66,2.66,0,0,1,1.1656,1.0313A3.0778,3.0778,0,0,1,17.5,12.52a3.7939,3.7939,0,0,1-.1755,1.1392,2.88,2.88,0,0,1-.5591,1.0112,2.7761,2.7761,0,0,1-1.005.7276,3.6965,3.6965,0,0,1-1.51.2765H12.8078V19.5H11.5V9.5Zm.1352,4.8941a2.2,2.2,0,0,0,.9567-.1821,1.5443,1.5443,0,0,0,.5933-.4784,2.0519,2.0519,0,0,0,.31-.6069,1.988,1.988,0,0,0,.0948-.58,2.14,2.14,0,0,0-.0948-.6136,1.6042,1.6042,0,0,0-.3168-.58,1.7,1.7,0,0,0-.5793-.4314,2.0726,2.0726,0,0,0-.883-.1685H12.8078v3.64Z"/>
  <circle cx="14" cy="14" r="10.5" fill="none" stroke="#000" stroke-miterlimit="10"/>
</svg>
