<svg xmlns="http://www.w3.org/2000/svg" width="28" height="28" viewBox="0 0 28 28">
  <path d="M14,24.5V3.5M17.5,23,14,19.5,10.5,23m0-18L14,8.5,17.5,5M4.9067,19.25,23.0933,8.75M7.9558,21.5311,9.2369,16.75,4.4558,15.4689m15.5884-9L18.7631,11.25l4.7811,1.2811M4.9067,8.75l18.1866,10.5M4.4558,12.5311,9.2369,11.25,7.9558,6.4689m15.5884,9L18.7631,16.75l1.2811,4.7811M14,3.5v21M10.5,5,14,8.5,17.5,5m0,18L14,19.5,10.5,23" fill="none" stroke="#000" stroke-linecap="round" stroke-linejoin="round" stroke-width="1.1"/>
</svg>
