<?xml version="1.0" encoding="utf-8"?>
<!-- Generator: Adobe Illustrator 26.0.3, SVG Export Plug-In . SVG Version: 6.00 Build 0)  -->
<svg version="1.1" id="Layer_1" xmlns="http://www.w3.org/2000/svg" xmlns:xlink="http://www.w3.org/1999/xlink" x="0px" y="0px"
	 viewBox="0 0 785.2 149" style="enable-background:new 0 0 785.2 149;" xml:space="preserve">
<style type="text/css">
	.st0{fill:none;stroke:#000000;stroke-miterlimit:10;}
</style>
<g>
	<path class="st0" d="M0.5,2.9h65.7c13,0,23.4,1.8,31.4,5.3c8,3.5,14.6,8.6,19.8,15.1c5.2,6.6,9,14.2,11.3,22.9
		c2.3,8.7,3.5,18,3.5,27.7c0,15.3-1.7,27.2-5.2,35.6c-3.5,8.4-8.3,15.5-14.5,21.2c-6.2,5.7-12.8,9.5-19.9,11.4
		c-9.7,2.6-18.5,3.9-26.4,3.9H0.5V2.9z M44.7,35.4v78.2h10.8c9.2,0,15.8-1,19.7-3.1s7-5.6,9.2-10.7c2.2-5.1,3.3-13.4,3.3-24.9
		c0-15.2-2.5-25.6-7.4-31.2c-4.9-5.6-13.2-8.4-24.6-8.4H44.7z"/>
	<path class="st0" d="M157.2,2.9h44.3v143.2h-44.3V2.9z"/>
	<path class="st0" d="M233.6,2.9h41.3l53.9,79.2V2.9h41.7v143.2h-41.7l-53.6-78.6v78.6h-41.6V2.9z"/>
	<path class="st0" d="M401.7,2.9H446v143.2h-44.3V2.9z"/>
	<path class="st0" d="M478,2.9h41.3l53.9,79.2V2.9H615v143.2h-41.7l-53.6-78.6v78.6H478V2.9z"/>
	<path class="st0" d="M716.3,94.2V64.5h68.4v61c-13.1,8.9-24.7,15-34.7,18.2s-22,4.8-35.8,4.8c-17,0-30.8-2.9-41.6-8.7
		c-10.7-5.8-19-14.4-24.9-25.9c-5.9-11.5-8.8-24.6-8.8-39.5c0-15.6,3.2-29.2,9.7-40.8c6.4-11.6,15.9-20.3,28.3-26.3
		c9.7-4.6,22.8-6.9,39.2-6.9c15.8,0,27.7,1.4,35.5,4.3c7.8,2.9,14.4,7.3,19.5,13.3c5.2,6,9.1,13.7,11.7,22.9l-42.7,7.6
		c-1.8-5.4-4.7-9.5-8.9-12.4c-4.2-2.9-9.6-4.3-16.1-4.3c-9.7,0-17.4,3.4-23.2,10.1s-8.6,17.4-8.6,32c0,15.5,2.9,26.6,8.7,33.2
		c5.8,6.6,13.9,10,24.4,10c4.9,0,9.7-0.7,14.2-2.1c4.5-1.4,9.6-3.9,15.4-7.3V94.2H716.3z"/>
</g>
</svg>
