<?xml version="1.0" encoding="utf-8"?>
<!-- Generator: Adobe Illustrator 26.0.3, SVG Export Plug-In . SVG Version: 6.00 Build 0)  -->
<svg version="1.1" id="Layer_1" xmlns="http://www.w3.org/2000/svg" xmlns:xlink="http://www.w3.org/1999/xlink" x="0px" y="0px"
	 viewBox="0 0 643.9 144.2" style="enable-background:new 0 0 643.9 144.2;" xml:space="preserve">
<style type="text/css">
	.st0{fill:none;stroke:#000000;stroke-miterlimit:10;}
</style>
<g>
	<path class="st0" d="M0.5,0.5h82.8c13.8,0,24.4,3.4,31.8,10.3c7.4,6.8,11.1,15.3,11.1,25.4c0,8.5-2.6,15.7-7.9,21.8
		c-3.5,4-8.7,7.2-15.4,9.6c10.3,2.5,17.9,6.7,22.7,12.7c4.8,6,7.3,13.6,7.3,22.7c0,7.4-1.7,14.1-5.2,20c-3.5,5.9-8.2,10.6-14.2,14.1
		c-3.7,2.1-9.3,3.7-16.8,4.7c-10,1.3-16.6,2-19.8,2H0.5V0.5z M45.1,56.7h19.2c6.9,0,11.7-1.2,14.4-3.6c2.7-2.4,4.1-5.8,4.1-10.3
		c0-4.2-1.4-7.4-4.1-9.8c-2.7-2.3-7.4-3.5-14.1-3.5H45.1V56.7z M45.1,112.9h22.6c7.6,0,13-1.4,16.1-4.1c3.1-2.7,4.7-6.3,4.7-10.9
		c0-4.2-1.5-7.6-4.6-10.2c-3.1-2.6-8.5-3.9-16.3-3.9H45.1V112.9z"/>
	<path class="st0" d="M156.6,143.7V0.5h73.7c13.7,0,24.1,1.2,31.3,3.5s13.1,6.7,17.5,13c4.4,6.3,6.6,14.1,6.6,23.2
		c0,7.9-1.7,14.8-5.1,20.6c-3.4,5.8-8,10.4-14,14c-3.8,2.3-9,4.2-15.5,5.7c5.3,1.8,9.1,3.5,11.5,5.3c1.6,1.2,4,3.7,7.1,7.5
		c3.1,3.8,5.2,6.8,6.2,8.9l21.4,41.5h-50l-23.6-43.8c-3-5.7-5.7-9.3-8-11c-3.2-2.2-6.8-3.3-10.8-3.3H201v58.1H156.6z M201,58.5h18.7
		c2,0,5.9-0.7,11.7-2c2.9-0.6,5.3-2.1,7.2-4.5c1.9-2.4,2.8-5.2,2.8-8.3c0-4.6-1.5-8.2-4.4-10.6c-2.9-2.5-8.4-3.7-16.5-3.7H201V58.5z
		"/>
	<path class="st0" d="M313.3,0.5h44.3v143.2h-44.3V0.5z"/>
	<path class="st0" d="M389.3,0.5h118.6v30.6h-74.2v22.8h68.8V83h-68.8v28.2H510v32.4H389.3V0.5z"/>
	<path class="st0" d="M534,0.5h109.4v30.8h-64.9v25h55.5v28.9h-55.5v58.5H534V0.5z"/>
</g>
</svg>
