<?xml version="1.0" encoding="utf-8"?>
<!-- Generator: Adobe Illustrator 26.0.3, SVG Export Plug-In . SVG Version: 6.00 Build 0)  -->
<svg version="1.1" id="Layer_1" xmlns="http://www.w3.org/2000/svg" xmlns:xlink="http://www.w3.org/1999/xlink" x="0px" y="0px"
	 viewBox="0 0 1265.5 149" style="enable-background:new 0 0 1265.5 149;" xml:space="preserve">
<style type="text/css">
	.st0{fill:none;stroke:#000000;stroke-miterlimit:10;}
</style>
<g>
	<path class="st0" d="M0.5,2.9h58.2l22.4,87.1l22.3-87.1h58.1v143.2h-36.2V36.9L97.4,146.1H64.6L36.7,36.9v109.2H0.5V2.9z"/>
	<path class="st0" d="M277.8,122.5h-50.2l-7,23.6h-45.2L229.2,2.9h48.3l53.8,143.2h-46.3L277.8,122.5z M268.6,91.5l-15.8-51.5
		l-15.6,51.5H268.6z"/>
	<path class="st0" d="M321.5,2.9H456v35.4h-45.1v107.8h-44.2V38.3h-45.1V2.9z"/>
	<path class="st0" d="M475.9,2.9h118.6v30.6h-74.2v22.8h68.8v29.2h-68.8v28.2h76.4v32.4H475.9V2.9z"/>
	<path class="st0" d="M621,146.1V2.9h73.7c13.7,0,24.1,1.2,31.3,3.5s13.1,6.7,17.5,13c4.4,6.3,6.6,14.1,6.6,23.2
		c0,7.9-1.7,14.8-5.1,20.6c-3.4,5.8-8,10.4-14,14c-3.8,2.3-9,4.2-15.5,5.7c5.3,1.8,9.1,3.5,11.5,5.3c1.6,1.2,4,3.7,7.1,7.5
		c3.1,3.8,5.2,6.8,6.2,8.9l21.4,41.5h-50l-23.6-43.8c-3-5.7-5.7-9.3-8-11c-3.2-2.2-6.8-3.3-10.8-3.3h-3.9v58.1H621z M665.4,60.9
		h18.7c2,0,5.9-0.7,11.7-2c2.9-0.6,5.3-2.1,7.2-4.5c1.9-2.4,2.8-5.2,2.8-8.3c0-4.6-1.5-8.2-4.4-10.6c-2.9-2.5-8.4-3.7-16.5-3.7
		h-19.4V60.9z"/>
	<path class="st0" d="M777.7,2.9h44.3v143.2h-44.3V2.9z"/>
	<path class="st0" d="M941.8,122.5h-50.2l-7,23.6h-45.2L893.3,2.9h48.3l53.8,143.2H949L941.8,122.5z M932.7,91.5l-15.8-51.5
		l-15.6,51.5H932.7z"/>
	<path class="st0" d="M1009.4,2.9h44.2v107.9h69v35.3h-113.3V2.9z"/>
	<path class="st0" d="M1135.1,98.7l42.1-2.6c0.9,6.8,2.8,12,5.6,15.6c4.6,5.8,11.1,8.7,19.5,8.7c6.3,0,11.2-1.5,14.6-4.4
		c3.4-3,5.1-6.4,5.1-10.3c0-3.7-1.6-7-4.9-10c-3.3-2.9-10.8-5.7-22.7-8.3c-19.4-4.4-33.2-10.2-41.5-17.4
		c-8.3-7.2-12.5-16.4-12.5-27.6c0-7.4,2.1-14.3,6.4-20.8c4.3-6.5,10.7-11.7,19.2-15.4c8.6-3.7,20.3-5.6,35.2-5.6
		c18.3,0,32.2,3.4,41.8,10.2c9.6,6.8,15.3,17.6,17.1,32.5l-41.7,2.4c-1.1-6.4-3.4-11.1-7-14.1c-3.5-2.9-8.4-4.4-14.7-4.4
		c-5.1,0-9,1.1-11.6,3.3c-2.6,2.2-3.9,4.8-3.9,8c0,2.3,1.1,4.3,3.2,6.2c2.1,1.9,7,3.6,14.8,5.3c19.3,4.2,33.2,8.4,41.6,12.6
		c8.4,4.3,14.5,9.6,18.3,15.9c3.8,6.3,5.7,13.4,5.7,21.2c0,9.2-2.5,17.6-7.6,25.4c-5.1,7.7-12.2,13.6-21.3,17.6
		c-9.1,4-20.6,6-34.5,6c-24.3,0-41.2-4.7-50.6-14.1S1136.3,113.2,1135.1,98.7z"/>
</g>
</svg>
