<?xml version="1.0" encoding="utf-8"?>
<!-- Generator: Adobe Illustrator 26.0.3, SVG Export Plug-In . SVG Version: 6.00 Build 0)  -->
<svg version="1.1" id="Layer_1" xmlns="http://www.w3.org/2000/svg" xmlns:xlink="http://www.w3.org/1999/xlink" x="0px" y="0px"
	 viewBox="0 0 1352.2 149" style="enable-background:new 0 0 1352.2 149;" xml:space="preserve">
<style type="text/css">
	.st0{fill:none;stroke:#000000;stroke-miterlimit:10;}
</style>
<g>
	<path class="st0" d="M0.5,146.1V2.9h73.7c13.7,0,24.1,1.2,31.3,3.5s13.1,6.7,17.5,13c4.4,6.3,6.6,14.1,6.6,23.2
		c0,7.9-1.7,14.8-5.1,20.6c-3.4,5.8-8,10.4-14,14c-3.8,2.3-9,4.2-15.5,5.7c5.3,1.8,9.1,3.5,11.5,5.3c1.6,1.2,4,3.7,7.1,7.5
		c3.1,3.8,5.2,6.8,6.2,8.9l21.4,41.5h-50l-23.6-43.8c-3-5.7-5.7-9.3-8-11c-3.2-2.2-6.8-3.3-10.8-3.3h-3.9v58.1H0.5z M44.9,60.9h18.7
		c2,0,5.9-0.7,11.7-2c2.9-0.6,5.3-2.1,7.2-4.5c1.9-2.4,2.8-5.2,2.8-8.3c0-4.6-1.5-8.2-4.4-10.6c-2.9-2.5-8.4-3.7-16.5-3.7H44.9V60.9
		z"/>
	<path class="st0" d="M155.4,2.9h118.6v30.6h-74.2v22.8h68.8v29.2h-68.8v28.2h76.4v32.4H155.4V2.9z"/>
	<path class="st0" d="M292.2,98.7l42.1-2.6c0.9,6.8,2.8,12,5.6,15.6c4.6,5.8,11.1,8.7,19.5,8.7c6.3,0,11.2-1.5,14.6-4.4
		c3.4-3,5.1-6.4,5.1-10.3c0-3.7-1.6-7-4.9-10c-3.3-2.9-10.8-5.7-22.7-8.3c-19.4-4.4-33.2-10.2-41.5-17.4
		c-8.3-7.2-12.5-16.4-12.5-27.6c0-7.4,2.1-14.3,6.4-20.8c4.3-6.5,10.7-11.7,19.2-15.4c8.6-3.7,20.3-5.6,35.2-5.6
		c18.3,0,32.2,3.4,41.8,10.2c9.6,6.8,15.3,17.6,17.1,32.5l-41.7,2.4c-1.1-6.4-3.4-11.1-7-14.1c-3.5-2.9-8.4-4.4-14.7-4.4
		c-5.1,0-9,1.1-11.6,3.3c-2.6,2.2-3.9,4.8-3.9,8c0,2.3,1.1,4.3,3.2,6.2c2.1,1.9,7,3.6,14.8,5.3c19.3,4.2,33.2,8.4,41.6,12.6
		c8.4,4.3,14.5,9.6,18.3,15.9c3.8,6.3,5.7,13.4,5.7,21.2c0,9.2-2.5,17.6-7.6,25.4c-5.1,7.7-12.2,13.6-21.3,17.6
		c-9.1,4-20.6,6-34.5,6c-24.4,0-41.2-4.7-50.6-14.1S293.4,113.2,292.2,98.7z"/>
	<path class="st0" d="M438.8,74.6c0-23.4,6.5-41.6,19.5-54.6c13-13,31.2-19.5,54.4-19.5c23.8,0,42.2,6.4,55.1,19.2
		s19.3,30.7,19.3,53.8c0,16.7-2.8,30.5-8.4,41.2c-5.6,10.7-13.8,19-24.4,25s-23.9,8.9-39.8,8.9c-16.1,0-29.5-2.6-40.1-7.7
		c-10.6-5.1-19.2-13.3-25.7-24.4C442.1,105.3,438.8,91.4,438.8,74.6z M483,74.8c0,14.5,2.7,24.8,8.1,31.2c5.4,6.3,12.7,9.5,21.9,9.5
		c9.5,0,16.9-3.1,22.1-9.3c5.2-6.2,7.8-17.3,7.8-33.3c0-13.5-2.7-23.3-8.2-29.5c-5.4-6.2-12.8-9.3-22.1-9.3
		c-8.9,0-16.1,3.2-21.5,9.5C485.7,49.8,483,60.2,483,74.8z"/>
	<path class="st0" d="M704.1,2.9h44.1v85.3c0,8.5-1.3,16.4-4,24c-2.6,7.5-6.8,14.1-12.4,19.7c-5.6,5.6-11.5,9.6-17.7,11.9
		c-8.6,3.2-18.9,4.8-31,4.8c-7,0-14.6-0.5-22.8-1.5c-8.2-1-15.1-2.9-20.7-5.8c-5.5-2.9-10.6-7-15.2-12.3c-4.6-5.3-7.7-10.8-9.4-16.5
		c-2.7-9.1-4.1-17.2-4.1-24.2V2.9h44.1v87.3c0,7.8,2.2,13.9,6.5,18.3c4.3,4.4,10.3,6.6,18,6.6c7.6,0,13.6-2.2,17.9-6.5
		c4.3-4.3,6.5-10.5,6.5-18.4V2.9z"/>
	<path class="st0" d="M778.1,146.1V2.9h73.7c13.7,0,24.1,1.2,31.3,3.5s13.1,6.7,17.5,13c4.4,6.3,6.6,14.1,6.6,23.2
		c0,7.9-1.7,14.8-5.1,20.6s-8,10.4-14,14c-3.8,2.3-9,4.2-15.5,5.7c5.3,1.8,9.1,3.5,11.5,5.3c1.6,1.2,4,3.7,7.1,7.5
		c3.1,3.8,5.2,6.8,6.2,8.9l21.4,41.5h-50l-23.6-43.8c-3-5.7-5.7-9.3-8-11c-3.2-2.2-6.8-3.3-10.8-3.3h-3.9v58.1H778.1z M822.6,60.9
		h18.7c2,0,5.9-0.7,11.7-2c2.9-0.6,5.3-2.1,7.2-4.5c1.9-2.4,2.8-5.2,2.8-8.3c0-4.6-1.5-8.2-4.4-10.6c-2.9-2.5-8.4-3.7-16.5-3.7
		h-19.4V60.9z"/>
	<path class="st0" d="M1024.8,87.5l38.8,11.7c-2.6,10.9-6.7,20-12.3,27.2c-5.6,7.3-12.5,12.8-20.8,16.5s-18.9,5.6-31.7,5.6
		c-15.6,0-28.3-2.3-38.1-6.8c-9.9-4.5-18.4-12.5-25.5-23.9c-7.2-11.4-10.7-26-10.7-43.7c0-23.7,6.3-41.9,18.9-54.6
		s30.4-19.1,53.5-19.1c18,0,32.2,3.6,42.5,10.9c10.3,7.3,18,18.5,23,33.6l-39.1,8.7c-1.4-4.4-2.8-7.6-4.3-9.6
		c-2.5-3.4-5.5-6-9.1-7.8c-3.6-1.8-7.6-2.7-12-2.7c-10,0-17.7,4-23,12.1c-4,6-6.1,15.4-6.1,28.2c0,15.9,2.4,26.7,7.2,32.6
		c4.8,5.9,11.6,8.8,20.3,8.8c8.5,0,14.9-2.4,19.2-7.1C1019.7,103.5,1022.9,96.6,1024.8,87.5z"/>
	<path class="st0" d="M1085,2.9h118.6v30.6h-74.2v22.8h68.8v29.2h-68.8v28.2h76.4v32.4H1085V2.9z"/>
	<path class="st0" d="M1221.8,98.7l42.1-2.6c0.9,6.8,2.8,12,5.6,15.6c4.6,5.8,11.1,8.7,19.5,8.7c6.3,0,11.2-1.5,14.6-4.4
		c3.4-3,5.1-6.4,5.1-10.3c0-3.7-1.6-7-4.9-10c-3.3-2.9-10.8-5.7-22.7-8.3c-19.4-4.4-33.2-10.2-41.5-17.4
		c-8.3-7.2-12.5-16.4-12.5-27.6c0-7.4,2.1-14.3,6.4-20.8c4.3-6.5,10.7-11.7,19.2-15.4c8.6-3.7,20.3-5.6,35.2-5.6
		c18.3,0,32.2,3.4,41.8,10.2c9.6,6.8,15.3,17.6,17.1,32.5l-41.7,2.4c-1.1-6.4-3.4-11.1-7-14.1c-3.5-2.9-8.4-4.4-14.7-4.4
		c-5.1,0-9,1.1-11.6,3.3c-2.6,2.2-3.9,4.8-3.9,8c0,2.3,1.1,4.3,3.2,6.2c2.1,1.9,7,3.6,14.8,5.3c19.3,4.2,33.2,8.4,41.6,12.6
		c8.4,4.3,14.5,9.6,18.3,15.9c3.8,6.3,5.7,13.4,5.7,21.2c0,9.2-2.5,17.6-7.6,25.4c-5.1,7.7-12.2,13.6-21.3,17.6
		c-9.1,4-20.6,6-34.5,6c-24.3,0-41.2-4.7-50.6-14.1S1223,113.2,1221.8,98.7z"/>
</g>
</svg>
