<?xml version="1.0" encoding="utf-8"?>
<!-- Generator: Adobe Illustrator 26.0.3, SVG Export Plug-In . SVG Version: 6.00 Build 0)  -->
<svg version="1.1" id="Layer_1" xmlns="http://www.w3.org/2000/svg" xmlns:xlink="http://www.w3.org/1999/xlink" x="0px" y="0px"
	 viewBox="0 0 1251.8 149" style="enable-background:new 0 0 1251.8 149;" xml:space="preserve">
<style type="text/css">
	.st0{fill:none;stroke:#000000;stroke-miterlimit:10;}
</style>
<g>
	<path class="st0" d="M0.5,2.9h82.8c13.8,0,24.4,3.4,31.8,10.3c7.4,6.8,11.1,15.3,11.1,25.4c0,8.5-2.6,15.7-7.9,21.8
		c-3.5,4-8.7,7.2-15.4,9.6c10.3,2.5,17.9,6.7,22.7,12.7c4.8,6,7.3,13.6,7.3,22.7c0,7.4-1.7,14.1-5.2,20c-3.5,5.9-8.2,10.6-14.2,14.1
		c-3.7,2.1-9.3,3.7-16.8,4.7c-10,1.3-16.6,2-19.8,2H0.5V2.9z M45.1,59.1h19.2c6.9,0,11.7-1.2,14.4-3.6c2.7-2.4,4.1-5.8,4.1-10.3
		c0-4.2-1.4-7.4-4.1-9.8c-2.7-2.3-7.4-3.5-14.1-3.5H45.1V59.1z M45.1,115.3h22.6c7.6,0,13-1.4,16.1-4.1c3.1-2.7,4.7-6.3,4.7-10.9
		c0-4.2-1.5-7.6-4.6-10.2c-3.1-2.6-8.5-3.9-16.3-3.9H45.1V115.3z"/>
	<path class="st0" d="M240.6,122.5h-50.2l-7,23.6h-45.2L192,2.9h48.3l53.8,143.2h-46.3L240.6,122.5z M231.4,91.5l-15.8-51.5
		L200,91.5H231.4z"/>
	<path class="st0" d="M284.3,2.9h134.5v35.4h-45.1v107.8h-44.2V38.3h-45.1V2.9z"/>
	<path class="st0" d="M439,2.9h44.2V53h48.3V2.9H576v143.2h-44.4V88.2h-48.3v57.9H439V2.9z"/>
	<path class="st0" d="M606,146.1V2.9h73.7c13.7,0,24.1,1.2,31.3,3.5s13.1,6.7,17.5,13c4.4,6.3,6.6,14.1,6.6,23.2
		c0,7.9-1.7,14.8-5.1,20.6c-3.4,5.8-8,10.4-14,14c-3.8,2.3-9,4.2-15.5,5.7c5.3,1.8,9.1,3.5,11.5,5.3c1.6,1.2,4,3.7,7.1,7.5
		c3.1,3.8,5.2,6.8,6.2,8.9l21.4,41.5h-50l-23.6-43.8c-3-5.7-5.7-9.3-8-11c-3.2-2.2-6.8-3.3-10.8-3.3h-3.9v58.1H606z M650.4,60.9
		h18.7c2,0,5.9-0.7,11.7-2c2.9-0.6,5.3-2.1,7.2-4.5c1.9-2.4,2.8-5.2,2.8-8.3c0-4.6-1.5-8.2-4.4-10.6c-2.9-2.5-8.4-3.7-16.5-3.7
		h-19.4V60.9z"/>
	<path class="st0" d="M752,74.6c0-23.4,6.5-41.6,19.5-54.6c13-13,31.2-19.5,54.4-19.5c23.8,0,42.2,6.4,55.1,19.2
		s19.3,30.7,19.3,53.8c0,16.7-2.8,30.5-8.4,41.2c-5.6,10.7-13.8,19-24.4,25s-23.9,8.9-39.8,8.9c-16.1,0-29.5-2.6-40.1-7.7
		c-10.6-5.1-19.2-13.3-25.7-24.4C755.3,105.3,752,91.4,752,74.6z M796.2,74.8c0,14.5,2.7,24.8,8.1,31.2c5.4,6.3,12.7,9.5,21.9,9.5
		c9.5,0,16.9-3.1,22.1-9.3c5.2-6.2,7.8-17.3,7.8-33.3c0-13.5-2.7-23.3-8.2-29.5c-5.4-6.2-12.8-9.3-22.1-9.3
		c-8.9,0-16.1,3.2-21.5,9.5C798.9,49.8,796.2,60.2,796.2,74.8z"/>
	<path class="st0" d="M918.6,74.6c0-23.4,6.5-41.6,19.5-54.6c13-13,31.2-19.5,54.4-19.5c23.8,0,42.2,6.4,55.1,19.2
		s19.3,30.7,19.3,53.8c0,16.7-2.8,30.5-8.4,41.2c-5.6,10.7-13.8,19-24.4,25s-23.9,8.9-39.8,8.9c-16.1,0-29.5-2.6-40.1-7.7
		c-10.6-5.1-19.2-13.3-25.7-24.4C921.9,105.3,918.6,91.4,918.6,74.6z M962.8,74.8c0,14.5,2.7,24.8,8.1,31.2
		c5.4,6.3,12.7,9.5,21.9,9.5c9.5,0,16.9-3.1,22.1-9.3c5.2-6.2,7.8-17.3,7.8-33.3c0-13.5-2.7-23.3-8.2-29.5
		c-5.4-6.2-12.8-9.3-22.1-9.3c-8.9,0-16.1,3.2-21.5,9.5C965.5,49.8,962.8,60.2,962.8,74.8z"/>
	<path class="st0" d="M1090.2,2.9h58.2l22.4,87.1l22.3-87.1h58.1v143.2h-36.2V36.9l-27.9,109.2h-32.8l-27.9-109.2v109.2h-36.2V2.9z"
		/>
</g>
</svg>
