<?xml version="1.0" encoding="utf-8"?>
<!-- Generator: Adobe Illustrator 26.0.3, SVG Export Plug-In . SVG Version: 6.00 Build 0)  -->
<svg version="1.1" id="Layer_1" xmlns="http://www.w3.org/2000/svg" xmlns:xlink="http://www.w3.org/1999/xlink" x="0px" y="0px"
	 viewBox="0 0 1252.8 149" style="enable-background:new 0 0 1252.8 149;" xml:space="preserve">
<style type="text/css">
	.st0{fill:none;stroke:#000000;stroke-miterlimit:10;}
</style>
<g>
	<path class="st0" d="M0.5,2.9h82.8c13.8,0,24.4,3.4,31.8,10.3c7.4,6.8,11.1,15.3,11.1,25.4c0,8.5-2.6,15.7-7.9,21.8
		c-3.5,4-8.7,7.2-15.4,9.6c10.3,2.5,17.9,6.7,22.7,12.7c4.8,6,7.3,13.6,7.3,22.7c0,7.4-1.7,14.1-5.2,20c-3.5,5.9-8.2,10.6-14.2,14.1
		c-3.7,2.1-9.3,3.7-16.8,4.7c-10,1.3-16.6,2-19.8,2H0.5V2.9z M45.1,59.1h19.2c6.9,0,11.7-1.2,14.4-3.6c2.7-2.4,4.1-5.8,4.1-10.3
		c0-4.2-1.4-7.4-4.1-9.8c-2.7-2.3-7.4-3.5-14.1-3.5H45.1V59.1z M45.1,115.3h22.6c7.6,0,13-1.4,16.1-4.1c3.1-2.7,4.7-6.3,4.7-10.9
		c0-4.2-1.5-7.6-4.6-10.2c-3.1-2.6-8.5-3.9-16.3-3.9H45.1V115.3z"/>
	<path class="st0" d="M155.9,2.9h118.6v30.6h-74.2v22.8h68.8v29.2h-68.8v28.2h76.4v32.4H155.9V2.9z"/>
	<path class="st0" d="M301,2.9h65.7c13,0,23.4,1.8,31.4,5.3c8,3.5,14.6,8.6,19.8,15.1c5.2,6.6,9,14.2,11.3,22.9
		c2.3,8.7,3.5,18,3.5,27.7c0,15.3-1.7,27.2-5.2,35.6c-3.5,8.4-8.3,15.5-14.5,21.2c-6.2,5.7-12.8,9.5-19.9,11.4
		c-9.7,2.6-18.5,3.9-26.4,3.9H301V2.9z M345.2,35.4v78.2h10.8c9.2,0,15.8-1,19.7-3.1s7-5.6,9.2-10.7c2.2-5.1,3.3-13.4,3.3-24.9
		c0-15.2-2.5-25.6-7.4-31.2c-4.9-5.6-13.2-8.4-24.6-8.4H345.2z"/>
	<path class="st0" d="M456.6,146.1V2.9h73.7c13.7,0,24.1,1.2,31.3,3.5s13.1,6.7,17.5,13c4.4,6.3,6.6,14.1,6.6,23.2
		c0,7.9-1.7,14.8-5.1,20.6c-3.4,5.8-8,10.4-14,14c-3.8,2.3-9,4.2-15.5,5.7c5.3,1.8,9.1,3.5,11.5,5.3c1.6,1.2,4,3.7,7.1,7.5
		c3.1,3.8,5.2,6.8,6.2,8.9l21.4,41.5h-50l-23.6-43.8c-3-5.7-5.7-9.3-8-11c-3.2-2.2-6.8-3.3-10.8-3.3H501v58.1H456.6z M501,60.9h18.7
		c2,0,5.9-0.7,11.7-2c2.9-0.6,5.3-2.1,7.2-4.5c1.9-2.4,2.8-5.2,2.8-8.3c0-4.6-1.5-8.2-4.4-10.6c-2.9-2.5-8.4-3.7-16.5-3.7H501V60.9z
		"/>
	<path class="st0" d="M602.6,74.6c0-23.4,6.5-41.6,19.5-54.6c13-13,31.2-19.5,54.4-19.5c23.8,0,42.2,6.4,55.1,19.2
		s19.3,30.7,19.3,53.8c0,16.7-2.8,30.5-8.4,41.2c-5.6,10.7-13.8,19-24.4,25s-23.9,8.9-39.8,8.9c-16.1,0-29.5-2.6-40.1-7.7
		c-10.6-5.1-19.2-13.3-25.7-24.4C605.8,105.3,602.6,91.4,602.6,74.6z M646.8,74.8c0,14.5,2.7,24.8,8.1,31.2
		c5.4,6.3,12.7,9.5,21.9,9.5c9.5,0,16.9-3.1,22.1-9.3c5.2-6.2,7.8-17.3,7.8-33.3c0-13.5-2.7-23.3-8.2-29.5
		c-5.4-6.2-12.8-9.3-22.1-9.3c-8.9,0-16.1,3.2-21.5,9.5C649.5,49.8,646.8,60.2,646.8,74.8z"/>
	<path class="st0" d="M769.2,74.6c0-23.4,6.5-41.6,19.5-54.6c13-13,31.2-19.5,54.4-19.5c23.8,0,42.2,6.4,55.1,19.2
		s19.3,30.7,19.3,53.8c0,16.7-2.8,30.5-8.4,41.2c-5.6,10.7-13.8,19-24.4,25s-23.9,8.9-39.8,8.9c-16.1,0-29.5-2.6-40.1-7.7
		c-10.6-5.1-19.2-13.3-25.7-24.4C772.4,105.3,769.2,91.4,769.2,74.6z M813.4,74.8c0,14.5,2.7,24.8,8.1,31.2
		c5.4,6.3,12.7,9.5,21.9,9.5c9.5,0,16.9-3.1,22.1-9.3c5.2-6.2,7.8-17.3,7.8-33.3c0-13.5-2.7-23.3-8.2-29.5
		c-5.4-6.2-12.8-9.3-22.1-9.3c-8.9,0-16.1,3.2-21.5,9.5C816.1,49.8,813.4,60.2,813.4,74.8z"/>
	<path class="st0" d="M940.8,2.9H999l22.4,87.1l22.3-87.1h58.1v143.2h-36.2V36.9l-27.9,109.2h-32.8L977.1,36.9v109.2h-36.2V2.9z"/>
	<path class="st0" d="M1122.4,98.7l42.1-2.6c0.9,6.8,2.8,12,5.6,15.6c4.6,5.8,11.1,8.7,19.5,8.7c6.3,0,11.2-1.5,14.6-4.4
		c3.4-3,5.1-6.4,5.1-10.3c0-3.7-1.6-7-4.9-10c-3.3-2.9-10.8-5.7-22.7-8.3c-19.4-4.4-33.2-10.2-41.5-17.4
		c-8.3-7.2-12.5-16.4-12.5-27.6c0-7.4,2.1-14.3,6.4-20.8c4.3-6.5,10.7-11.7,19.2-15.4c8.6-3.7,20.3-5.6,35.2-5.6
		c18.3,0,32.2,3.4,41.8,10.2c9.6,6.8,15.3,17.6,17.1,32.5l-41.7,2.4c-1.1-6.4-3.4-11.1-7-14.1c-3.5-2.9-8.4-4.4-14.7-4.4
		c-5.1,0-9,1.1-11.6,3.3c-2.6,2.2-3.9,4.8-3.9,8c0,2.3,1.1,4.3,3.2,6.2c2.1,1.9,7,3.6,14.8,5.3c19.3,4.2,33.2,8.4,41.6,12.6
		c8.4,4.3,14.5,9.6,18.3,15.9c3.8,6.3,5.7,13.4,5.7,21.2c0,9.2-2.5,17.6-7.6,25.4c-5.1,7.7-12.2,13.6-21.3,17.6
		c-9.1,4-20.6,6-34.5,6c-24.3,0-41.2-4.7-50.6-14.1S1123.6,113.2,1122.4,98.7z"/>
</g>
</svg>
