<?xml version="1.0" encoding="utf-8"?>
<!-- Generator: Adobe Illustrator 26.0.3, SVG Export Plug-In . SVG Version: 6.00 Build 0)  -->
<svg version="1.1" id="Layer_1" xmlns="http://www.w3.org/2000/svg" xmlns:xlink="http://www.w3.org/1999/xlink" x="0px" y="0px"
	 viewBox="0 0 794 149" style="enable-background:new 0 0 794 149;" xml:space="preserve">
<style type="text/css">
	.st0{fill:none;stroke:#000000;stroke-miterlimit:10;}
</style>
<g>
	<path class="st0" d="M0.5,74.6C0.5,51.2,7,33.1,20,20C33.1,7,51.2,0.5,74.4,0.5c23.8,0,42.2,6.4,55.1,19.2s19.3,30.7,19.3,53.8
		c0,16.7-2.8,30.5-8.4,41.2c-5.6,10.7-13.8,19-24.4,25s-23.9,8.9-39.8,8.9c-16.1,0-29.5-2.6-40.1-7.7c-10.6-5.1-19.2-13.3-25.7-24.4
		C3.8,105.3,0.5,91.4,0.5,74.6z M44.7,74.8c0,14.5,2.7,24.8,8.1,31.2c5.4,6.3,12.7,9.5,21.9,9.5c9.5,0,16.9-3.1,22.1-9.3
		c5.2-6.2,7.8-17.3,7.8-33.3c0-13.5-2.7-23.3-8.2-29.5C91,37.1,83.6,34,74.3,34c-8.9,0-16.1,3.2-21.5,9.5
		C47.4,49.8,44.7,60.2,44.7,74.8z"/>
	<path class="st0" d="M172.9,2.9h109.4v30.8h-64.9v25h55.5v28.9h-55.5v58.5h-44.4V2.9z"/>
	<path class="st0" d="M306.3,2.9h109.4v30.8h-64.9v25h55.5v28.9h-55.5v58.5h-44.4V2.9z"/>
	<path class="st0" d="M441.2,2.9h44.3v143.2h-44.3V2.9z"/>
	<path class="st0" d="M612.6,87.5l38.8,11.7c-2.6,10.9-6.7,20-12.3,27.2c-5.6,7.3-12.5,12.8-20.8,16.5s-18.9,5.6-31.7,5.6
		c-15.6,0-28.3-2.3-38.1-6.8c-9.9-4.5-18.4-12.5-25.5-23.9c-7.2-11.4-10.7-26-10.7-43.7c0-23.7,6.3-41.9,18.9-54.6
		s30.4-19.1,53.5-19.1c18,0,32.2,3.6,42.5,10.9c10.3,7.3,18,18.5,23,33.6l-39.1,8.7c-1.4-4.4-2.8-7.6-4.3-9.6
		c-2.5-3.4-5.5-6-9.1-7.8c-3.6-1.8-7.6-2.7-12-2.7c-10,0-17.7,4-23,12.1c-4,6-6.1,15.4-6.1,28.2c0,15.9,2.4,26.7,7.2,32.6
		c4.8,5.9,11.6,8.8,20.3,8.8c8.5,0,14.9-2.4,19.2-7.1C607.5,103.5,610.7,96.6,612.6,87.5z"/>
	<path class="st0" d="M672.8,2.9h118.6v30.6h-74.2v22.8h68.8v29.2h-68.8v28.2h76.4v32.4H672.8V2.9z"/>
</g>
</svg>
