<?xml version="1.0" encoding="utf-8"?>
<!-- Generator: Adobe Illustrator 26.0.3, SVG Export Plug-In . SVG Version: 6.00 Build 0)  -->
<svg version="1.1" id="Layer_1" xmlns="http://www.w3.org/2000/svg" xmlns:xlink="http://www.w3.org/1999/xlink" x="0px" y="0px"
	 viewBox="0 0 920.9 308" style="enable-background:new 0 0 920.9 308;" xml:space="preserve">
<style type="text/css">
	.st0{fill:none;stroke:#000000;stroke-miterlimit:10;}
</style>
<g>
	<path class="st0" d="M0.5,2.9h58.2L81.1,90l22.3-87.1h58.1v143.2h-36.2V36.9L97.4,146.1H64.6L36.7,36.9v109.2H0.5V2.9z"/>
	<path class="st0" d="M277.8,122.5h-50.2l-7,23.6h-45.2L229.2,2.9h48.3l53.8,143.2H285L277.8,122.5z M268.6,91.5L252.8,40
		l-15.6,51.5H268.6z"/>
	<path class="st0" d="M337.6,98.7l42.1-2.6c0.9,6.8,2.8,12,5.6,15.6c4.6,5.8,11.1,8.7,19.5,8.7c6.3,0,11.2-1.5,14.6-4.4
		c3.4-3,5.1-6.4,5.1-10.3c0-3.7-1.6-7-4.9-10c-3.3-2.9-10.8-5.7-22.7-8.3C377.5,83,363.7,77.2,355.4,70s-12.5-16.4-12.5-27.6
		c0-7.4,2.1-14.3,6.4-20.8S360,9.9,368.5,6.2c8.6-3.7,20.3-5.6,35.2-5.6c18.3,0,32.2,3.4,41.8,10.2c9.6,6.8,15.3,17.6,17.1,32.5
		l-41.7,2.4c-1.1-6.4-3.4-11.1-7-14.1c-3.5-2.9-8.4-4.4-14.7-4.4c-5.1,0-9,1.1-11.6,3.3s-3.9,4.8-3.9,8c0,2.3,1.1,4.3,3.2,6.2
		s7,3.6,14.8,5.3c19.3,4.2,33.2,8.4,41.6,12.6c8.4,4.3,14.5,9.6,18.3,15.9s5.7,13.4,5.7,21.2c0,9.2-2.5,17.6-7.6,25.4
		c-5.1,7.7-12.2,13.6-21.3,17.6c-9.1,4-20.6,6-34.5,6c-24.4,0-41.2-4.7-50.6-14.1S338.8,113.2,337.6,98.7z"/>
	<path class="st0" d="M479.7,2.9h134.5v35.4h-45.1v107.8h-44.2V38.3h-45.1V2.9H479.7z"/>
	<path class="st0" d="M634.1,2.9h118.6v30.6h-74.2v22.8h68.8v29.2h-68.8v28.2h76.4v32.4H634.1V2.9z"/>
	<path class="st0" d="M779.2,146.1V2.9h73.7c13.7,0,24.1,1.2,31.3,3.5s13.1,6.7,17.5,13s6.6,14.1,6.6,23.2c0,7.9-1.7,14.8-5.1,20.6
		c-3.4,5.8-8,10.4-14,14c-3.8,2.3-9,4.2-15.5,5.7c5.3,1.8,9.1,3.5,11.5,5.3c1.6,1.2,4,3.7,7.1,7.5s5.2,6.8,6.2,8.9l21.4,41.5h-50
		l-23.6-43.8c-3-5.7-5.7-9.3-8-11c-3.2-2.2-6.8-3.3-10.8-3.3h-3.9v58.1H779.2z M823.6,60.9h18.7c2,0,5.9-0.7,11.7-2
		c2.9-0.6,5.3-2.1,7.2-4.5s2.8-5.2,2.8-8.3c0-4.6-1.5-8.2-4.4-10.6c-2.9-2.5-8.4-3.7-16.5-3.7h-19.4L823.6,60.9L823.6,60.9z"/>
</g>
<g>
	<path class="st0" d="M0.6,257.7l42.1-2.6c0.9,6.8,2.8,12,5.6,15.6c4.6,5.8,11.1,8.7,19.5,8.7c6.3,0,11.2-1.5,14.6-4.4
		c3.4-3,5.1-6.4,5.1-10.3c0-3.7-1.6-7-4.9-10c-3.3-2.9-10.8-5.7-22.7-8.3C40.6,242,26.7,236.2,18.5,229C10.1,221.8,6,212.5,6,201.3
		c0-7.4,2.1-14.3,6.4-20.8s10.7-11.7,19.2-15.4c8.6-3.7,20.3-5.6,35.2-5.6c18.3,0,32.2,3.4,41.8,10.2s15.3,17.6,17.1,32.5L84,204.6
		c-1.1-6.4-3.4-11.1-7-14.1c-3.5-2.9-8.4-4.4-14.7-4.4c-5.1,0-9,1.1-11.6,3.3c-2.6,2.2-3.9,4.8-3.9,8c0,2.3,1.1,4.3,3.2,6.2
		c2.1,1.9,7,3.6,14.8,5.3c19.3,4.2,33.2,8.4,41.6,12.6c8.4,4.3,14.5,9.6,18.3,15.9c3.8,6.3,5.7,13.4,5.7,21.2
		c0,9.2-2.5,17.6-7.6,25.4c-5.1,7.7-12.2,13.6-21.3,17.6s-20.6,6-34.5,6c-24.4,0-41.2-4.7-50.6-14.1S1.8,272.1,0.6,257.7z"/>
	<path class="st0" d="M268.3,161.9h44.1v85.3c0,8.5-1.3,16.4-4,24c-2.6,7.5-6.8,14.1-12.4,19.7s-11.5,9.6-17.7,11.9
		c-8.6,3.2-18.9,4.8-31,4.8c-7,0-14.6-0.5-22.8-1.5s-15.1-2.9-20.7-5.8c-5.5-2.9-10.6-7-15.2-12.3s-7.7-10.8-9.4-16.5
		c-2.7-9.1-4.1-17.2-4.1-24.2V162h44.1v87.3c0,7.8,2.2,13.9,6.5,18.3s10.3,6.6,18,6.6c7.6,0,13.6-2.2,17.9-6.5s6.5-10.5,6.5-18.4
		v-87.4H268.3z"/>
	<path class="st0" d="M365.9,161.9h44.3v143.2h-44.3V161.9z"/>
	<path class="st0" d="M454.3,161.9h134.5v35.4h-45.1v107.8h-44.2V197.2h-45.1v-35.3H454.3z"/>
	<path class="st0" d="M631.1,161.9h118.6v30.6h-74.2v22.8h68.8v29.2h-68.8v28.2h76.4v32.4H631.1V161.9z"/>
	<path class="st0" d="M790.3,257.7l42.1-2.6c0.9,6.8,2.8,12,5.6,15.6c4.6,5.8,11.1,8.7,19.5,8.7c6.3,0,11.2-1.5,14.6-4.4
		c3.4-3,5.1-6.4,5.1-10.3c0-3.7-1.6-7-4.9-10c-3.3-2.9-10.8-5.7-22.7-8.3c-19.4-4.4-33.2-10.2-41.5-17.4s-12.5-16.4-12.5-27.6
		c0-7.4,2.1-14.3,6.4-20.8c4.3-6.5,10.7-11.7,19.2-15.4c8.6-3.7,20.3-5.6,35.2-5.6c18.3,0,32.2,3.4,41.8,10.2s15.3,17.6,17.1,32.5
		l-41.7,2.4c-1.1-6.4-3.4-11.1-7-14.1c-3.5-2.9-8.4-4.4-14.7-4.4c-5.1,0-9,1.1-11.6,3.3s-3.9,4.8-3.9,8c0,2.3,1.1,4.3,3.2,6.2
		c2.1,1.9,7,3.6,14.8,5.3c19.3,4.2,33.2,8.4,41.6,12.6c8.4,4.3,14.5,9.6,18.3,15.9c3.8,6.3,5.7,13.4,5.7,21.2
		c0,9.2-2.5,17.6-7.6,25.4c-5.1,7.7-12.2,13.6-21.3,17.6s-20.6,6-34.5,6c-24.3,0-41.2-4.7-50.6-14.1S791.6,272.1,790.3,257.7z"/>
</g>
</svg>
