<?xml version="1.0" encoding="utf-8"?>
<!-- Generator: Adobe Illustrator 26.0.3, SVG Export Plug-In . SVG Version: 6.00 Build 0)  -->
<svg version="1.1" id="Layer_1" xmlns="http://www.w3.org/2000/svg" xmlns:xlink="http://www.w3.org/1999/xlink" x="0px" y="0px"
	 viewBox="0 0 752.6 149" style="enable-background:new 0 0 752.6 149;" xml:space="preserve">
<style type="text/css">
	.st0{fill:none;stroke:#000000;stroke-miterlimit:10;}
</style>
<g>
	<path class="st0" d="M0.5,2.9h44.2v107.9h69v35.3H0.5V2.9z"/>
	<path class="st0" d="M135.7,2.9H180v143.2h-44.3V2.9z"/>
	<path class="st0" d="M197.7,2.9h46.2l32.2,103l31.8-103h44.9l-53.2,143.2h-47.9L197.7,2.9z"/>
	<path class="st0" d="M369.1,2.9h44.3v143.2h-44.3V2.9z"/>
	<path class="st0" d="M445.4,2.9h41.3l53.9,79.2V2.9h41.7v143.2h-41.7L487,67.5v78.6h-41.6V2.9z"/>
	<path class="st0" d="M683.7,94.2V64.5h68.4v61c-13.1,8.9-24.7,15-34.7,18.2s-22,4.8-35.8,4.8c-17,0-30.8-2.9-41.6-8.7
		c-10.7-5.8-19-14.4-24.9-25.9c-5.9-11.5-8.8-24.6-8.8-39.5c0-15.6,3.2-29.2,9.7-40.8c6.4-11.6,15.9-20.3,28.3-26.3
		c9.7-4.6,22.8-6.9,39.2-6.9c15.8,0,27.7,1.4,35.5,4.3c7.8,2.9,14.4,7.3,19.5,13.3c5.2,6,9.1,13.7,11.7,22.9l-42.7,7.6
		c-1.8-5.4-4.7-9.5-8.9-12.4c-4.2-2.9-9.6-4.3-16.1-4.3c-9.7,0-17.4,3.4-23.2,10.1s-8.6,17.4-8.6,32c0,15.5,2.9,26.6,8.7,33.2
		c5.8,6.6,13.9,10,24.4,10c4.9,0,9.7-0.7,14.2-2.1c4.5-1.4,9.6-3.9,15.4-7.3V94.2H683.7z"/>
</g>
</svg>
