<?xml version="1.0" encoding="utf-8"?>
<!-- Generator: Adobe Illustrator 26.0.3, SVG Export Plug-In . SVG Version: 6.00 Build 0)  -->
<svg version="1.1" id="Layer_1" xmlns="http://www.w3.org/2000/svg" xmlns:xlink="http://www.w3.org/1999/xlink" x="0px" y="0px"
	 viewBox="0 0 592.1 149" style="enable-background:new 0 0 592.1 149;" xml:space="preserve">
<style type="text/css">
	.st0{fill:none;stroke:#000000;stroke-miterlimit:10;}
</style>
<g>
	<path class="st0" d="M0.5,2.9H74c16,0,28,3.8,36,11.4c8,7.6,12,18.5,12,32.5c0,14.5-4.3,25.7-13,33.9C100.3,88.9,87,93,69.2,93
		H44.9v53.1H0.5V2.9z M44.9,64h10.8c8.5,0,14.5-1.5,18-4.4c3.5-3,5.2-6.8,5.2-11.4c0-4.5-1.5-8.3-4.5-11.4c-3-3.1-8.6-4.7-16.9-4.7
		H44.9V64z"/>
	<path class="st0" d="M139.6,74.6c0-23.4,6.5-41.6,19.5-54.6c13-13,31.2-19.5,54.4-19.5c23.8,0,42.2,6.4,55.1,19.2
		s19.3,30.7,19.3,53.8c0,16.7-2.8,30.5-8.4,41.2c-5.6,10.7-13.8,19-24.4,25s-23.9,8.9-39.8,8.9c-16.1,0-29.5-2.6-40.1-7.7
		c-10.6-5.1-19.2-13.3-25.7-24.4C142.8,105.3,139.6,91.4,139.6,74.6z M183.8,74.8c0,14.5,2.7,24.8,8.1,31.2
		c5.4,6.3,12.7,9.5,21.9,9.5c9.5,0,16.9-3.1,22.1-9.3c5.2-6.2,7.8-17.3,7.8-33.3c0-13.5-2.7-23.3-8.2-29.5
		c-5.4-6.2-12.8-9.3-22.1-9.3c-8.9,0-16.1,3.2-21.5,9.5C186.5,49.8,183.8,60.2,183.8,74.8z"/>
	<path class="st0" d="M306.2,74.6c0-23.4,6.5-41.6,19.5-54.6c13-13,31.2-19.5,54.4-19.5c23.8,0,42.2,6.4,55.1,19.2
		s19.3,30.7,19.3,53.8c0,16.7-2.8,30.5-8.4,41.2c-5.6,10.7-13.8,19-24.4,25s-23.9,8.9-39.8,8.9c-16.1,0-29.5-2.6-40.1-7.7
		c-10.6-5.1-19.2-13.3-25.7-24.4C309.5,105.3,306.2,91.4,306.2,74.6z M350.4,74.8c0,14.5,2.7,24.8,8.1,31.2
		c5.4,6.3,12.7,9.5,21.9,9.5c9.5,0,16.9-3.1,22.1-9.3c5.2-6.2,7.8-17.3,7.8-33.3c0-13.5-2.7-23.3-8.2-29.5
		c-5.4-6.2-12.8-9.3-22.1-9.3c-8.9,0-16.1,3.2-21.5,9.5C353.1,49.8,350.4,60.2,350.4,74.8z"/>
	<path class="st0" d="M478.3,2.9h44.2v107.9h69v35.3H478.3V2.9z"/>
</g>
</svg>
