<?xml version="1.0" encoding="utf-8"?>
<!-- Generator: Adobe Illustrator 26.0.3, SVG Export Plug-In . SVG Version: 6.00 Build 0)  -->
<svg version="1.1" id="Layer_1" xmlns="http://www.w3.org/2000/svg" xmlns:xlink="http://www.w3.org/1999/xlink" x="0px" y="0px"
	 viewBox="0 0 1115.1 338.5" style="enable-background:new 0 0 1115.1 338.5;" xml:space="preserve">
<style type="text/css">
	.st0{fill:none;stroke:#000000;stroke-miterlimit:10;}
</style>
<g>
	<path class="st0" d="M0.5,74.6C0.5,51.2,7,33.1,20,20C33.1,7,51.2,0.5,74.4,0.5c23.8,0,42.2,6.4,55.1,19.2s19.3,30.7,19.3,53.8
		c0,16.7-2.8,30.5-8.4,41.2c-5.6,10.7-13.8,19-24.4,25s-23.9,8.9-39.8,8.9c-16.1,0-29.5-2.6-40.1-7.7c-10.6-5.1-19.2-13.3-25.7-24.4
		C3.8,105.3,0.5,91.4,0.5,74.6z M44.7,74.8c0,14.5,2.7,24.8,8.1,31.2c5.4,6.3,12.7,9.5,21.9,9.5c9.5,0,16.9-3.1,22.1-9.3
		c5.2-6.2,7.8-17.3,7.8-33.3c0-13.5-2.7-23.3-8.2-29.5C91,37.1,83.6,34,74.3,34c-8.9,0-16.1,3.2-21.5,9.5
		C47.4,49.8,44.7,60.2,44.7,74.8z"/>
	<path class="st0" d="M265.8,2.9H310v85.3c0,8.5-1.3,16.4-4,24c-2.6,7.5-6.8,14.1-12.4,19.7c-5.6,5.6-11.5,9.6-17.7,11.9
		c-8.6,3.2-18.9,4.8-31,4.8c-7,0-14.6-0.5-22.8-1.5c-8.2-1-15.1-2.9-20.7-5.8c-5.5-2.9-10.6-7-15.2-12.3c-4.6-5.3-7.7-10.8-9.4-16.5
		c-2.7-9.1-4.1-17.2-4.1-24.2V2.9h44.1v87.3c0,7.8,2.2,13.9,6.5,18.3c4.3,4.4,10.3,6.6,18,6.6c7.6,0,13.6-2.2,17.9-6.5
		c4.3-4.3,6.5-10.5,6.5-18.4V2.9z"/>
	<path class="st0" d="M329.2,2.9h134.5v35.4h-45.1v107.8h-44.2V38.3h-45.1V2.9z"/>
	<path class="st0" d="M484.3,2.9H550c13,0,23.4,1.8,31.4,5.3c8,3.5,14.6,8.6,19.8,15.1c5.2,6.6,9,14.2,11.3,22.9
		c2.3,8.7,3.5,18,3.5,27.7c0,15.3-1.7,27.2-5.2,35.6c-3.5,8.4-8.3,15.5-14.5,21.2c-6.2,5.7-12.8,9.5-19.9,11.4
		c-9.7,2.6-18.5,3.9-26.4,3.9h-65.7V2.9z M528.5,35.4v78.2h10.8c9.2,0,15.8-1,19.7-3.1s7-5.6,9.2-10.7c2.2-5.1,3.3-13.4,3.3-24.9
		c0-15.2-2.5-25.6-7.4-31.2c-4.9-5.6-13.2-8.4-24.6-8.4H528.5z"/>
	<path class="st0" d="M633.7,74.6c0-23.4,6.5-41.6,19.5-54.6c13-13,31.2-19.5,54.4-19.5c23.8,0,42.2,6.4,55.1,19.2
		S782,50.4,782,73.4c0,16.7-2.8,30.5-8.4,41.2c-5.6,10.7-13.8,19-24.4,25s-23.9,8.9-39.8,8.9c-16.1,0-29.5-2.6-40.1-7.7
		c-10.6-5.1-19.2-13.3-25.7-24.4C637,105.3,633.7,91.4,633.7,74.6z M677.9,74.8c0,14.5,2.7,24.8,8.1,31.2c5.4,6.3,12.7,9.5,21.9,9.5
		c9.5,0,16.9-3.1,22.1-9.3c5.2-6.2,7.8-17.3,7.8-33.3c0-13.5-2.7-23.3-8.2-29.5c-5.4-6.2-12.8-9.3-22.1-9.3
		c-8.9,0-16.1,3.2-21.5,9.5C680.6,49.8,677.9,60.2,677.9,74.8z"/>
	<path class="st0" d="M800.3,74.6c0-23.4,6.5-41.6,19.5-54.6c13-13,31.2-19.5,54.4-19.5c23.8,0,42.2,6.4,55.1,19.2
		s19.3,30.7,19.3,53.8c0,16.7-2.8,30.5-8.4,41.2c-5.6,10.7-13.8,19-24.4,25s-23.9,8.9-39.8,8.9c-16.1,0-29.5-2.6-40.1-7.7
		c-10.6-5.1-19.2-13.3-25.7-24.4C803.6,105.3,800.3,91.4,800.3,74.6z M844.5,74.8c0,14.5,2.7,24.8,8.1,31.2
		c5.4,6.3,12.7,9.5,21.9,9.5c9.5,0,16.9-3.1,22.1-9.3c5.2-6.2,7.8-17.3,7.8-33.3c0-13.5-2.7-23.3-8.2-29.5
		c-5.4-6.2-12.8-9.3-22.1-9.3c-8.9,0-16.1,3.2-21.5,9.5C847.2,49.8,844.5,60.2,844.5,74.8z"/>
	<path class="st0" d="M973.1,146.1V2.9h73.7c13.7,0,24.1,1.2,31.3,3.5s13.1,6.7,17.5,13c4.4,6.3,6.6,14.1,6.6,23.2
		c0,7.9-1.7,14.8-5.1,20.6s-8,10.4-14,14c-3.8,2.3-9,4.2-15.5,5.7c5.3,1.8,9.1,3.5,11.5,5.3c1.6,1.2,4,3.7,7.1,7.5
		c3.1,3.8,5.2,6.8,6.2,8.9l21.4,41.5h-50l-23.6-43.8c-3-5.7-5.7-9.3-8-11c-3.2-2.2-6.8-3.3-10.8-3.3h-3.9v58.1H973.1z M1017.5,60.9
		h18.7c2,0,5.9-0.7,11.7-2c2.9-0.6,5.3-2.1,7.2-4.5c1.9-2.4,2.8-5.2,2.8-8.3c0-4.6-1.5-8.2-4.4-10.6c-2.9-2.5-8.4-3.7-16.5-3.7
		h-19.4V60.9z"/>
</g>
<g>
	<path class="st0" d="M3.9,163.3H57v129.5h82.9v42.3H3.9V163.3z"/>
	<path class="st0" d="M207.8,163.3H261v171.8h-53.2V163.3z"/>
	<path class="st0" d="M324,163.3h55.5l38.7,123.6l38.2-123.6h53.9l-63.8,171.8h-57.5L324,163.3z"/>
	<path class="st0" d="M571.4,163.3h53.2v171.8h-53.2V163.3z"/>
	<path class="st0" d="M704.8,163.3h49.6l64.7,95v-95h50v171.8h-50l-64.3-94.3v94.3h-49.9V163.3z"/>
	<path class="st0" d="M1032.5,272.9v-35.7h82v73.2c-15.7,10.7-29.6,18-41.7,21.9s-26.4,5.8-42.9,5.8c-20.4,0-37-3.5-49.9-10.4
		c-12.9-7-22.8-17.3-29.9-31.1c-7.1-13.8-10.6-29.5-10.6-47.3c0-18.8,3.9-35.1,11.6-48.9c7.7-13.9,19.1-24.4,34-31.6
		c11.6-5.5,27.3-8.3,47-8.3c19,0,33.2,1.7,42.6,5.2c9.4,3.4,17.2,8.8,23.4,16c6.2,7.2,10.9,16.4,14,27.5l-51.2,9.1
		c-2.1-6.5-5.7-11.4-10.7-14.9c-5-3.4-11.5-5.2-19.3-5.2c-11.6,0-20.9,4-27.8,12.1s-10.4,20.9-10.4,38.4c0,18.6,3.5,31.9,10.5,39.8
		c7,8,16.7,12,29.2,12c5.9,0,11.6-0.9,17-2.6c5.4-1.7,11.6-4.6,18.5-8.8v-16.2H1032.5z"/>
</g>
</svg>
