<?xml version="1.0" encoding="utf-8"?>
<!-- Generator: Adobe Illustrator 26.0.3, SVG Export Plug-In . SVG Version: 6.00 Build 0)  -->
<svg version="1.1" id="Layer_1" xmlns="http://www.w3.org/2000/svg" xmlns:xlink="http://www.w3.org/1999/xlink" x="0px" y="0px"
	 viewBox="0 0 908.9 149" style="enable-background:new 0 0 908.9 149;" xml:space="preserve">
<style type="text/css">
	.st0{fill:none;stroke:#000000;stroke-miterlimit:10;}
</style>
<g>
	<path class="st0" d="M0.5,2.9h82.8c13.8,0,24.4,3.4,31.8,10.3c7.4,6.8,11.1,15.3,11.1,25.4c0,8.5-2.6,15.7-7.9,21.8
		c-3.5,4-8.7,7.2-15.4,9.6c10.3,2.5,17.9,6.7,22.7,12.7c4.8,6,7.3,13.6,7.3,22.7c0,7.4-1.7,14.1-5.2,20c-3.5,5.9-8.2,10.6-14.2,14.1
		c-3.7,2.1-9.3,3.7-16.8,4.7c-10,1.3-16.6,2-19.8,2H0.5V2.9z M45.1,59.1h19.2c6.9,0,11.7-1.2,14.4-3.6c2.7-2.4,4.1-5.8,4.1-10.3
		c0-4.2-1.4-7.4-4.1-9.8c-2.7-2.3-7.4-3.5-14.1-3.5H45.1V59.1z M45.1,115.3h22.6c7.6,0,13-1.4,16.1-4.1c3.1-2.7,4.7-6.3,4.7-10.9
		c0-4.2-1.5-7.6-4.6-10.2c-3.1-2.6-8.5-3.9-16.3-3.9H45.1V115.3z"/>
	<path class="st0" d="M244,2.9h44.1v85.3c0,8.5-1.3,16.4-4,24c-2.6,7.5-6.8,14.1-12.4,19.7c-5.6,5.6-11.5,9.6-17.7,11.9
		c-8.6,3.2-18.9,4.8-31,4.8c-7,0-14.6-0.5-22.8-1.5c-8.2-1-15.1-2.9-20.7-5.8c-5.5-2.9-10.6-7-15.2-12.3c-4.6-5.3-7.7-10.8-9.4-16.5
		c-2.7-9.1-4.1-17.2-4.1-24.2V2.9H195v87.3c0,7.8,2.2,13.9,6.5,18.3c4.3,4.4,10.3,6.6,18,6.6c7.6,0,13.6-2.2,17.9-6.5
		c4.3-4.3,6.5-10.5,6.5-18.4V2.9z"/>
	<path class="st0" d="M318,2.9h65.7c13,0,23.4,1.8,31.4,5.3c8,3.5,14.6,8.6,19.8,15.1c5.2,6.6,9,14.2,11.3,22.9
		c2.3,8.7,3.5,18,3.5,27.7c0,15.3-1.7,27.2-5.2,35.6c-3.5,8.4-8.3,15.5-14.5,21.2c-6.2,5.7-12.8,9.5-19.9,11.4
		c-9.7,2.6-18.5,3.9-26.4,3.9H318V2.9z M362.2,35.4v78.2h10.8c9.2,0,15.8-1,19.7-3.1s7-5.6,9.2-10.7c2.2-5.1,3.3-13.4,3.3-24.9
		c0-15.2-2.5-25.6-7.4-31.2c-4.9-5.6-13.2-8.4-24.6-8.4H362.2z"/>
	<path class="st0" d="M544.9,94.2V64.5h68.4v61c-13.1,8.9-24.7,15-34.7,18.2s-22,4.8-35.8,4.8c-17,0-30.8-2.9-41.6-8.7
		c-10.7-5.8-19-14.4-24.9-25.9c-5.9-11.5-8.8-24.6-8.8-39.5c0-15.6,3.2-29.2,9.7-40.8c6.4-11.6,15.9-20.3,28.3-26.3
		c9.7-4.6,22.8-6.9,39.2-6.9c15.8,0,27.7,1.4,35.5,4.3c7.8,2.9,14.4,7.3,19.5,13.3c5.2,6,9.1,13.7,11.7,22.9l-42.7,7.6
		c-1.8-5.4-4.7-9.5-8.9-12.4c-4.2-2.9-9.6-4.3-16.1-4.3c-9.7,0-17.4,3.4-23.2,10.1s-8.6,17.4-8.6,32c0,15.5,2.9,26.6,8.7,33.2
		c5.8,6.6,13.9,10,24.4,10c4.9,0,9.7-0.7,14.2-2.1c4.5-1.4,9.6-3.9,15.4-7.3V94.2H544.9z"/>
	<path class="st0" d="M639.5,2.9H758v30.6h-74.2v22.8h68.8v29.2h-68.8v28.2h76.4v32.4H639.5V2.9z"/>
	<path class="st0" d="M773.9,2.9h134.5v35.4h-45.1v107.8h-44.2V38.3h-45.1V2.9z"/>
</g>
</svg>
