<?xml version="1.0" encoding="utf-8"?>
<!-- Generator: Adobe Illustrator 26.0.3, SVG Export Plug-In . SVG Version: 6.00 Build 0)  -->
<svg version="1.1" id="Layer_1" xmlns="http://www.w3.org/2000/svg" xmlns:xlink="http://www.w3.org/1999/xlink" x="0px" y="0px"
	 viewBox="0 0 923.4 149" style="enable-background:new 0 0 923.4 149;" xml:space="preserve">
<style type="text/css">
	.st0{fill:none;stroke:#000000;stroke-miterlimit:10;}
</style>
<g>
	<path class="st0" d="M77.9,94.2V64.5h68.4v61c-13.1,8.9-24.7,15-34.7,18.2s-22,4.8-35.8,4.8c-17,0-30.8-2.9-41.6-8.7
		c-10.7-5.8-19-14.4-24.9-25.9c-5.9-11.5-8.8-24.6-8.8-39.5c0-15.6,3.2-29.2,9.7-40.8c6.4-11.6,15.9-20.3,28.3-26.3
		c9.7-4.6,22.8-6.9,39.2-6.9c15.8,0,27.7,1.4,35.5,4.3c7.8,2.9,14.4,7.3,19.5,13.3c5.2,6,9.1,13.7,11.7,22.9l-42.7,7.6
		c-1.8-5.4-4.7-9.5-8.9-12.4c-4.2-2.9-9.6-4.3-16.1-4.3c-9.7,0-17.4,3.4-23.2,10.1s-8.6,17.4-8.6,32c0,15.5,2.9,26.6,8.7,33.2
		c5.8,6.6,13.9,10,24.4,10c4.9,0,9.7-0.7,14.2-2.1c4.5-1.4,9.6-3.9,15.4-7.3V94.2H77.9z"/>
	<path class="st0" d="M260.6,122.5h-50.2l-7,23.6h-45.2L212,2.9h48.3l53.8,143.2h-46.3L260.6,122.5z M251.4,91.5l-15.8-51.5
		L220,91.5H251.4z"/>
	<path class="st0" d="M328.7,146.1V2.9h73.7c13.7,0,24.1,1.2,31.3,3.5s13.1,6.7,17.5,13c4.4,6.3,6.6,14.1,6.6,23.2
		c0,7.9-1.7,14.8-5.1,20.6c-3.4,5.8-8,10.4-14,14c-3.8,2.3-9,4.2-15.5,5.7c5.3,1.8,9.1,3.5,11.5,5.3c1.6,1.2,4,3.7,7.1,7.5
		c3.1,3.8,5.2,6.8,6.2,8.9l21.4,41.5h-50l-23.6-43.8c-3-5.7-5.7-9.3-8-11c-3.2-2.2-6.8-3.3-10.8-3.3h-3.9v58.1H328.7z M373.2,60.9
		h18.7c2,0,5.9-0.7,11.7-2c2.9-0.6,5.3-2.1,7.2-4.5c1.9-2.4,2.8-5.2,2.8-8.3c0-4.6-1.5-8.2-4.4-10.6c-2.9-2.5-8.4-3.7-16.5-3.7
		h-19.4V60.9z"/>
	<path class="st0" d="M571.7,122.5h-50.2l-7,23.6h-45.2L523.2,2.9h48.3l53.8,143.2h-46.3L571.7,122.5z M562.5,91.5l-15.8-51.5
		l-15.6,51.5H562.5z"/>
	<path class="st0" d="M707.6,94.2V64.5H776v61c-13.1,8.9-24.7,15-34.7,18.2s-22,4.8-35.8,4.8c-17,0-30.8-2.9-41.6-8.7
		c-10.7-5.8-19-14.4-24.9-25.9c-5.9-11.5-8.8-24.6-8.8-39.5c0-15.6,3.2-29.2,9.7-40.8c6.4-11.6,15.9-20.3,28.3-26.3
		c9.7-4.6,22.8-6.9,39.2-6.9c15.8,0,27.7,1.4,35.5,4.3c7.8,2.9,14.4,7.3,19.5,13.3c5.2,6,9.1,13.7,11.7,22.9l-42.7,7.6
		c-1.8-5.4-4.7-9.5-8.9-12.4c-4.2-2.9-9.6-4.3-16.1-4.3c-9.7,0-17.4,3.4-23.2,10.1s-8.6,17.4-8.6,32c0,15.5,2.9,26.6,8.7,33.2
		c5.8,6.6,13.9,10,24.4,10c4.9,0,9.7-0.7,14.2-2.1c4.5-1.4,9.6-3.9,15.4-7.3V94.2H707.6z"/>
	<path class="st0" d="M802.2,2.9h118.6v30.6h-74.2v22.8h68.8v29.2h-68.8v28.2h76.4v32.4H802.2V2.9z"/>
</g>
</svg>
