<?xml version="1.0" encoding="utf-8"?>
<!-- Generator: Adobe Illustrator 26.0.3, SVG Export Plug-In . SVG Version: 6.00 Build 0)  -->
<svg version="1.1" id="Layer_1" xmlns="http://www.w3.org/2000/svg" xmlns:xlink="http://www.w3.org/1999/xlink" x="0px" y="0px"
	 viewBox="0 0 373.4 262.2" style="enable-background:new 0 0 373.4 262.2;" xml:space="preserve">
<style type="text/css">
	.st0{fill:#BEC991;}
</style>
<g>
	<path class="st0" d="M349.8,90.6c-12.3-9.5-38.1-25.6-48.4-53.4c-18.3,31.9-38.7,50-60.7,58.1c-27.2,10-55.2,4.6-81.9-3.3
		s-52.9-18.6-77-22.1c-21.2-3.1-40.3-1.2-59.1,12.6c36.9,31.8,59.4,59.6,78.4,80.2c20.3,22.1,36.3,35.6,66.2,41
		c0.2,0,0.3,0.1,0.5,0.1c19.6,4.7,47.6,0.9,71.8-13.7c24.2-14.5,44.9-39.2,52.1-76.5c0.7-3.7,3.6-6.5,7.2-7.1
		c17.9-3.1,31.2-5.8,40.6-8.2c6.8-1.8,10.9-3.4,13.7-4.6C352.2,92.6,352,92.3,349.8,90.6z"/>
	<path d="M65.2,74.8c-5.6,0-11.1,4.6-11.1,11.9s5.5,11.9,11.1,11.9S76.3,94,76.3,86.7C76.3,79.4,70.8,74.8,65.2,74.8z"/>
	<path d="M118.9,119.6c-4.5,31.4,16.7,60.9,50.4,74.7s74.1,10.7,103.8-8.3l-9.3-15c-24.2,15.5-59.7,18.4-88,6.9
		s-42.8-33.6-39.6-55.7L118.9,119.6z"/>
	<path d="M230.9,262.1c-0.1-22.2-0.1-44.4-0.2-66.6c-0.1,0-0.3,0-0.4,0c-1.2,0-2.4,0-3.6,0c-2.3,0.2-4.6-0.1-6.9-0.3
		c0.1,22.3,0.1,44.7,0.2,67L230.9,262.1z"/>
	<path d="M306.2,0c-3.6-0.1-6.9,2-8.4,5.3c-20.2,45.3-41.7,65.4-63.3,73.3s-45.2,4-70.7-3.6s-52.2-18.8-79.5-22.7S28.3,52.6,3,75.7
		c-1.9,1.7-3,4.2-2.9,6.8c0.1,2.6,1.2,5,3.2,6.6c40.9,33.7,63.5,62.6,84.7,85.6c21.1,22.9,41.9,40.2,75.9,46.4
		c25.2,6,56.9,1.1,84.9-15.8c26.7-16.1,49.8-43.5,59-82.5c14.6-2.6,27.4-5,36.2-7.3c10.2-2.6,17-4.8,22.3-8.5
		c2.7-1.8,5.2-4.3,6.5-7.9c1.3-3.7,0.6-7.9-0.7-10.7c-2.7-5.6-6.8-8.4-11.4-11.9c-18.2-14-47.9-31.2-45.8-67.1l0,0
		c0.1-2.4-0.7-4.8-2.3-6.5C310.8,1.1,308.5,0.1,306.2,0L306.2,0z M301.4,37.2c10.3,27.8,36.1,43.9,48.4,53.4c2.2,1.7,2.4,2,3.4,3.1
		c-2.8,1.2-6.9,2.8-13.7,4.6c-9.4,2.4-22.7,5.1-40.6,8.2l0,0c-3.6,0.6-6.5,3.4-7.2,7.1c-7.2,37.3-27.9,62-52.1,76.5
		c-24.2,14.6-52.2,18.4-71.8,13.7c-0.2,0-0.3-0.1-0.5-0.1c-29.9-5.4-45.9-18.9-66.2-41c-19-20.6-41.5-48.4-78.4-80.2
		c18.8-13.8,37.9-15.7,59.1-12.6c24.1,3.5,50.3,14.2,77,22.1s54.7,13.3,81.9,3.3C262.7,87.2,283.1,69.1,301.4,37.2L301.4,37.2z"/>
	<path d="M248.9,261.9c-0.1-22.2-0.1-44.4-0.2-66.6c-0.1,0-0.3,0-0.4,0c-1.2,0-2.4,0-3.6,0c-2.3,0.2-4.6-0.1-6.9-0.3
		c0.1,22.3,0.1,44.7,0.2,67L248.9,261.9z"/>
	<path d="M306.2,0c-3.6-0.1-6.9,2-8.4,5.3c-20.2,45.3-41.7,65.4-63.3,73.3s-45.2,4-70.7-3.6s-52.2-18.8-79.5-22.7S28.3,52.6,3,75.7
		c-1.9,1.7-3,4.2-2.9,6.8c0.1,2.6,1.2,5,3.2,6.6c40.9,33.7,63.5,62.6,84.7,85.6c21.1,22.9,41.9,40.2,75.9,46.4
		c25.2,6,56.9,1.1,84.9-15.8c26.7-16.1,49.8-43.5,59-82.5c14.6-2.6,27.4-5,36.2-7.3c10.2-2.6,17-4.8,22.3-8.5
		c2.7-1.8,5.2-4.3,6.5-7.9c1.3-3.7,0.6-7.9-0.7-10.7c-2.7-5.6-6.8-8.4-11.4-11.9c-18.2-14-47.9-31.2-45.8-67.1l0,0
		c0.1-2.4-0.7-4.8-2.3-6.5C310.8,1.1,308.5,0.1,306.2,0L306.2,0z M301.4,37.2c10.3,27.8,36.1,43.9,48.4,53.4c2.2,1.7,2.4,2,3.4,3.1
		c-2.8,1.2-6.9,2.8-13.7,4.6c-9.4,2.4-22.7,5.1-40.6,8.2l0,0c-3.6,0.6-6.5,3.4-7.2,7.1c-7.2,37.3-27.9,62-52.1,76.5
		c-24.2,14.6-52.2,18.4-71.8,13.7c-0.2,0-0.3-0.1-0.5-0.1c-29.9-5.4-45.9-18.9-66.2-41c-19-20.6-41.5-48.4-78.4-80.2
		c18.8-13.8,37.9-15.7,59.1-12.6c24.1,3.5,50.3,14.2,77,22.1s54.7,13.3,81.9,3.3C262.7,87.2,283.1,69.1,301.4,37.2L301.4,37.2z"/>
</g>
</svg>
