<?xml version="1.0" encoding="utf-8"?>
<!-- Generator: Adobe Illustrator 26.0.3, SVG Export Plug-In . SVG Version: 6.00 Build 0)  -->
<svg version="1.1" id="Layer_1" xmlns="http://www.w3.org/2000/svg" xmlns:xlink="http://www.w3.org/1999/xlink" x="0px" y="0px"
	 viewBox="0 0 967.9752808 160" style="enable-background:new 0 0 967.9752808 160;" xml:space="preserve">
<style type="text/css">
	.st0{fill:#BEC991;}
</style>
<g>
	<g>
		<g>
			<path d="M82.6010361,80.9692459H0v-20.393074h82.6010361V80.9692459z M53.615036,158.6687012H28.3808708V60.5761681H53.615036
				V158.6687012z"/>
			<path d="M127.5626297,155.0378723l-5.2041702,3.6308289h-15.6730118l-20.393074-98.0925293h25.1131363L127.5626297,155.0378723z
				 M133.8560486,60.5761681h12.2237396l7.3826599,3.9938927l-20.5746155,94.0986404h-13.6155624l-4.7200546-4.6595459
				L133.8560486,60.5761681z M175.0052948,154.6142731l-4.9621277,4.0544281h-13.6155548l-20.9982147-94.2196579l7.6852264-3.812355
				h12.1027069L175.0052948,154.6142731z M177.9704437,60.5761681h24.9921112l-20.3325653,98.0925293h-15.6730194
				l-5.0226135-4.1754456L177.9704437,60.5761681z"/>
			<path d="M295.6693726,111.105011c0,10.1662827-1.8759155,18.8802338-5.5672607,26.2023926
				c-3.6913452,7.3221436-8.8349915,12.889389-15.3099365,16.8227692C268.2567139,158.0635529,260.8135376,160,252.4021606,160
				c-8.4719086,0-16.0361023-1.9364471-22.5715637-5.869812c-6.5354614-3.9333801-11.6791077-9.5611572-15.3704529-16.8227844
				c-3.69133-7.3221436-5.5672455-16.0360947-5.5672455-26.2023773v-2.9046555
				c0-10.1662827,1.8153992-18.8802414,5.5067291-26.2023849c3.6913452-7.3221512,8.7744751-12.9499054,15.3099365-16.8832932
				c6.5354614-3.9333801,14.0391541-5.9303322,22.5110626-5.9303322c8.4113922,0,15.8545685,1.9969521,22.3900299,5.9303322
				c6.5354614,3.9333878,11.6791077,9.5611496,15.3704529,16.8832932
				c3.7518311,7.3221436,5.5672302,16.0361023,5.5672302,26.2023849v2.9046555h0.1210327V111.105011z M270.0116272,108.0793304
				c0-6.1723785-0.6656799-11.3765488-2.0574646-15.5519867c-1.3918152-4.1754303-3.3887634-7.3221436-6.0513611-9.4401245
				c-2.6625977-2.1179733-5.8698425-3.146698-9.6216583-3.146698c-3.9333801,0-7.2616272,1.0287247-9.8637085,3.146698
				c-2.6020813,2.117981-4.5385132,5.2646866-5.8698273,9.4401245c-1.3312988,4.1754379-1.9364471,9.3796082-1.9364471,15.5519867
				v3.0256805c0,6.0513611,0.6656647,11.195015,1.9969482,15.4309692c1.3312988,4.2359467,3.3282471,7.4431763,5.9303284,9.6216583
				c2.602066,2.1784821,5.9303131,3.2677307,9.8637085,3.2677307c3.7518463,0,6.9590607-1.0892487,9.6216583-3.2677307
				c2.6020813-2.1784973,4.5990295-5.3857117,5.9908447-9.6216583c1.3312988-4.2359543,1.9969177-9.3796082,1.9969177-15.4309692
				L270.0116272,108.0793304L270.0116272,108.0793304z"/>
			<path d="M564.4101562,126.717514v-20.3930817h23.9028931c3.0256958,0,5.5067139-0.484108,7.3826904-1.4523163
				c1.8758545-0.9682236,3.2677002-2.3600311,4.175415-4.0544128c0.9077148-1.7548904,1.3312988-3.69133,1.3312988-5.9908371
				c0-2.4205475-0.423584-4.7200623-1.3312988-6.7775192c-0.9077148-2.117981-2.2994995-3.8123627-4.175415-5.0831375
				c-1.8759766-1.2707825-4.3569946-1.9364395-7.3826904-1.9364395h-14.4627686v77.6994476h-25.3552246V60.5761681h39.8179321
				c7.9273071,0,14.8258667,1.4523239,20.574646,4.4174919c5.7487793,2.9651642,10.2268066,7.019577,13.3129272,12.1027145
				c3.1466675,5.1436539,4.6595459,10.9529572,4.6595459,17.4884262c0,6.3539276-1.5733643,11.9816971-4.6595459,16.7622604
				c-3.1466675,4.780571-7.564209,8.5324249-13.3129883,11.2555313c-5.7487793,2.723114-12.6473389,4.0544128-20.574585,4.0544128
				L564.4101562,126.717514L564.4101562,126.717514z"/>
			<path d="M664.1970825,158.6687012h-25.2341309V60.5761681h25.2341309V158.6687012z M704.6201782,158.6687012h-49.3185425
				v-20.3325806h49.3185425V158.6687012z"/>
			<path d="M733.7272339,158.6687012h-27.1706543l35.9451294-98.0925293h17.1253662l-2.96521,23.6608124L733.7272339,158.6687012z
				 M774.9974365,142.2089844h-50.2867432V121.815918h50.347229L774.9974365,142.2089844L774.9974365,142.2089844z
				 M752.2443848,84.2369766l-3.3282471-23.6608086h17.3068237l36.1871948,98.0925293H775.239502L752.2443848,84.2369766z"/>
			<path d="M889.3076172,124.9020996c-0.2420654,6.8985443-2.117981,13.0104218-5.5067139,18.2751007
				s-8.1693115,9.3796082-14.1602173,12.3447723c-6.0513306,2.9651642-13.1314087,4.4174957-21.3007202,4.4174957
				c-8.8349609,0-16.3991699-1.9364471-22.692627-5.8093109c-6.293396-3.8728638-11.0739746-9.4401245-14.4022217-16.7017517
				c-3.3282471-7.2011108-4.9620972-15.8545609-4.9620972-25.8998184v-3.9938965
				c0-10.0452652,1.7548828-18.6987,5.2041626-25.9603348c3.4492188-7.2011185,8.2903442-12.8288803,14.5232544-16.7017517
				c6.2329102-3.9333801,13.5550537-5.869812,21.9058838-5.869812c8.7139893,0,16.0360718,1.5733528,21.9664307,4.7200584
				c5.9303589,3.1467094,10.5294189,7.4431725,13.7971802,12.8893929
				c3.2677002,5.4462128,5.2041016,11.5580978,5.7487793,18.3961258h-25.173645
				c-0.0604858-5.1436539-1.3312988-8.9560165-3.6913452-11.4370651c-2.3600464-2.5415649-6.5959473-3.7518387-12.6473389-3.7518387
				c-3.6307983,0-6.6564941,0.8471832-9.0165405,2.6020813c-2.3600464,1.7548904-4.1149292,4.5990372-5.2646484,8.5929337
				c-1.1497803,3.9938965-1.694397,9.5006256-1.694397,16.3991852v4.1149216c0,6.9590607,0.4841309,12.4658051,1.5128174,16.4596939
				c1.0287476,3.9938965,2.7231445,6.8985443,5.1436768,8.592926s5.6278076,2.5415649,9.7426758,2.5415649
				c3.3887329,0,6.2329102-0.4841003,8.5324097-1.4523163c2.3600464-0.9682159,4.1149292-2.5415649,5.3856812-4.6595459
				c1.2103271-2.117981,1.8759155-4.8410797,1.9364014-8.2298508h25.1131592V124.9020996z"/>
			<path d="M924.8896484,158.6687012h-25.2947388V60.5761681h25.3552246L924.8896484,158.6687012L924.8896484,158.6687012z
				 M967.9752808,80.9692459h-52.041687v-20.393074h51.9812012L967.9752808,80.9692459L967.9752808,80.9692459z
				 M961.0767212,118.1851044h-45.1431274V98.5786972h45.1431274V118.1851044z M967.7332153,158.6687012h-51.7996216v-20.3325806
				h51.7996216V158.6687012z"/>
		</g>
	</g>
	<g>
		<path class="st0" d="M512.6105957,54.8273773c-7.4432068-5.7487907-23.0556946-15.491478-29.2886047-32.3142548
			c-11.0740051,19.3038349-23.4187927,30.2567921-36.731781,35.1583939
			c-16.4596863,6.0513573-33.4035034,2.7836227-49.5606384-1.9969521s-32.0116882-11.2555237-46.595459-13.3735008
			c-12.8288879-1.8759193-24.3869629-0.7261581-35.7634888,7.6247139
			c22.3295288,19.2433167,35.9450684,36.0660934,47.4426575,48.5318832
			c12.2842407,13.3735046,21.9664307,21.5428391,40.0599976,24.8105698c0.1210327,0,0.1815186,0.0605164,0.3025513,0.0605164
			c11.8606567,2.8441391,28.8044739,0.5446243,43.448761-8.2903595
			c14.6442871-8.7744675,27.1706238-23.7213211,31.5275574-46.2928848c0.4236145-2.239006,2.1784668-3.9333878,4.3569946-4.296463
			c10.8319397-1.8759232,18.880249-3.5097923,24.5684814-4.9621162c4.1149292-1.0892448,6.5960083-2.0574608,8.2904053-2.7836227
			C514.0629272,56.0376472,513.9418945,55.8561096,512.6105957,54.8273773z"/>
		<path d="M340.388916,45.2662315c-3.3887329,0-6.71698,2.7836266-6.71698,7.2011185s3.3282471,7.2011185,6.71698,7.2011185
			c3.3887634,0,6.7170105-2.7836266,6.7170105-7.2011185S343.7776794,45.2662315,340.388916,45.2662315z"/>
		<path d="M372.8846741,72.3763123c-2.7230835,19.0012665,10.1058044,36.8527756,30.4988708,45.2036438
			c20.3930969,8.3508682,44.8405457,6.4749527,62.8131104-5.0226288l-5.6277771-9.0770416
			c-14.6442871,9.3796082-36.1266174,11.1344986-53.2519531,4.1754379s-25.8998108-20.3325577-23.9633484-33.7060623
			L372.8846741,72.3763123z"/>
		<path d="M440.6599121,158.6081696c-0.0605164-13.4340057-0.0605164-26.8680267-0.1210327-40.3020401
			c-0.0605164,0-0.1815491,0-0.2420959,0c-0.7261658,0-1.4523315,0-2.1784668,0
			c-1.3917847,0.1210251-2.7835999-0.060524-4.1754456-0.1815491c0.0604858,13.4945297,0.0604858,27.0495682,0.1210327,40.5441208
			L440.6599121,158.6081696z"/>
		<path d="M486.2266541,0.0020701c-2.1784668-0.0605136-4.1754456,1.2102717-5.0831604,3.2072201
			c-12.2237549,27.412653-25.2341614,39.5758858-38.3050842,44.3564606s-27.3521423,2.4205437-42.7831116-2.1784859
			c-15.4309692-4.5990372-31.5881042-11.3765602-48.1083069-13.7365894s-33.8876038,0.1815395-49.1975098,14.1601772
			c-1.1497803,1.0287285-1.8154297,2.5415688-1.7549133,4.1149254c0.0605164,1.5733528,0.7261658,3.0256767,1.9364624,3.9938965
			c24.7500305,20.3930779,38.4260864,37.8815041,51.2549744,51.7996254
			c12.7683716,13.857605,25.3552246,24.3264618,45.9298401,28.0783081
			c15.2494202,3.6308136,34.432251,0.6656494,51.3760376-9.5611496c16.157135-9.742691,30.1357727-26.32341,35.7030029-49.9237061
			c8.8349915-1.573349,16.5807495-3.0256805,21.9059448-4.4174957c6.1723633-1.573349,10.2872925-2.9046478,13.4945068-5.1436539
			c1.6339111-1.0892448,3.1467285-2.6020851,3.9334106-4.780571c0.7866211-2.2390022,0.3630371-4.7805748-0.423645-6.4749527
			c-1.6338501-3.3887596-4.1148682-5.0831413-6.8985596-7.2011185
			c-11.0134583-8.4719009-28.9859924-18.8802376-27.7151794-40.6046143l0,0
			c0.0604858-1.4523258-0.4236145-2.9046519-1.3918152-3.9333827
			C489.0102844,0.6677195,487.6184692,0.0625837,486.2266541,0.0020701L486.2266541,0.0020701z M483.321991,22.5131245
			c6.2328796,16.8227749,21.8453674,26.5654659,29.2886047,32.3142548c1.3312988,1.0287285,1.4523315,1.2102699,2.0574341,1.8759193
			c-1.6943359,0.726162-4.1754456,1.6943817-8.2903442,2.7836227c-5.6882935,1.4523277-13.7366028,3.0861931-24.568512,4.9621124
			l0,0c-2.1784668,0.3630829-3.9333801,2.0574646-4.3569946,4.296463
			c-4.3569641,22.5715637-16.8833008,37.518425-31.5275574,46.2929001
			c-14.6442871,8.8349838-31.5881042,11.134491-43.4487305,8.2903595c-0.1210327,0-0.1815491-0.0605164-0.3025818-0.0605164
			c-18.0935669-3.2677307-27.7757568-11.4370651-40.0599976-24.8105698
			c-11.4975891-12.4658051-25.1131287-29.2885818-47.4426575-48.5318947
			c11.3765564-8.3508759,22.9346619-9.5006332,35.7635193-7.6247101c14.5837402,2.1179733,30.438324,8.592926,46.595459,13.3735008
			s33.1009216,8.0483055,49.5606384,1.9969482C459.9032593,52.7699127,472.2479858,41.8169556,483.321991,22.5131245
			L483.321991,22.5131245z"/>
		<path d="M451.5523376,158.4871368c-0.0604858-13.4340057-0.0604858-26.8680267-0.1210327-40.3020477
			c-0.0604858,0-0.1815186,0-0.2420654,0c-0.7261658,0-1.4523315,0-2.1784668,0
			c-1.3918152,0.1210251-2.7835999-0.0605164-4.1754456-0.1815414c0.0604858,13.4945297,0.0604858,27.0495682,0.1210327,40.5441055
			L451.5523376,158.4871368z"/>
		<path d="M486.2266541,0.0020701c-2.1784668-0.0605136-4.1754456,1.2102717-5.0831604,3.2072201
			c-12.2237549,27.412653-25.2341614,39.5758858-38.3050842,44.3564606s-27.3521423,2.4205437-42.7831116-2.1784859
			c-15.4309692-4.5990372-31.5881042-11.3765602-48.1083069-13.7365894s-33.8876038,0.1815395-49.1975098,14.1601772
			c-1.1497803,1.0287285-1.8154297,2.5415688-1.7549133,4.1149254c0.0605164,1.5733528,0.7261658,3.0256767,1.9364624,3.9938965
			c24.7500305,20.3930779,38.4260864,37.8815041,51.2549744,51.7996254
			c12.7683716,13.857605,25.3552246,24.3264618,45.9298401,28.0783081
			c15.2494202,3.6308136,34.432251,0.6656494,51.3760376-9.5611496c16.157135-9.742691,30.1357727-26.32341,35.7030029-49.9237061
			c8.8349915-1.573349,16.5807495-3.0256805,21.9059448-4.4174957c6.1723633-1.573349,10.2872925-2.9046478,13.4945068-5.1436539
			c1.6339111-1.0892448,3.1467285-2.6020851,3.9334106-4.780571c0.7866211-2.2390022,0.3630371-4.7805748-0.423645-6.4749527
			c-1.6338501-3.3887596-4.1148682-5.0831413-6.8985596-7.2011185
			c-11.0134583-8.4719009-28.9859924-18.8802376-27.7151794-40.6046143l0,0
			c0.0604858-1.4523258-0.4236145-2.9046519-1.3918152-3.9333827
			C489.0102844,0.6677195,487.6184692,0.0625837,486.2266541,0.0020701L486.2266541,0.0020701z M483.321991,22.5131245
			c6.2328796,16.8227749,21.8453674,26.5654659,29.2886047,32.3142548c1.3312988,1.0287285,1.4523315,1.2102699,2.0574341,1.8759193
			c-1.6943359,0.726162-4.1754456,1.6943817-8.2903442,2.7836227c-5.6882935,1.4523277-13.7366028,3.0861931-24.568512,4.9621124
			l0,0c-2.1784668,0.3630829-3.9333801,2.0574646-4.3569946,4.296463
			c-4.3569641,22.5715637-16.8833008,37.518425-31.5275574,46.2929001
			c-14.6442871,8.8349838-31.5881042,11.134491-43.4487305,8.2903595c-0.1210327,0-0.1815491-0.0605164-0.3025818-0.0605164
			c-18.0935669-3.2677307-27.7757568-11.4370651-40.0599976-24.8105698
			c-11.4975891-12.4658051-25.1131287-29.2885818-47.4426575-48.5318947
			c11.3765564-8.3508759,22.9346619-9.5006332,35.7635193-7.6247101c14.5837402,2.1179733,30.438324,8.592926,46.595459,13.3735008
			s33.1009216,8.0483055,49.5606384,1.9969482C459.9032593,52.7699127,472.2479858,41.8169556,483.321991,22.5131245
			L483.321991,22.5131245z"/>
	</g>
</g>
</svg>
