<?xml version="1.0" encoding="UTF-8" standalone="no"?>
<svg
   xmlns:dc="http://purl.org/dc/elements/1.1/"
   xmlns:cc="http://creativecommons.org/ns#"
   xmlns:rdf="http://www.w3.org/1999/02/22-rdf-syntax-ns#"
   xmlns:svg="http://www.w3.org/2000/svg"
   xmlns="http://www.w3.org/2000/svg"
   xmlns:sodipodi="http://sodipodi.sourceforge.net/DTD/sodipodi-0.dtd"
   xmlns:inkscape="http://www.inkscape.org/namespaces/inkscape"
   version="1.1"
   id="svg2"
   xml:space="preserve"
   width="13739.733"
   height="2271.0933"
   viewBox="0 0 13739.733 2271.0933"
   sodipodi:docname="logo.ai"><metadata
     id="metadata8"><rdf:RDF><cc:Work
         rdf:about=""><dc:format>image/svg+xml</dc:format><dc:type
           rdf:resource="http://purl.org/dc/dcmitype/StillImage" /></cc:Work></rdf:RDF></metadata><defs
     id="defs6"><clipPath
       clipPathUnits="userSpaceOnUse"
       id="clipPath26"><path
         d="M 0,1703.323 H 10304.838 V 0 H 0 Z"
         id="path24" /></clipPath></defs><sodipodi:namedview
     pagecolor="#ffffff"
     bordercolor="#666666"
     borderopacity="1"
     objecttolerance="10"
     gridtolerance="10"
     guidetolerance="10"
     inkscape:pageopacity="0"
     inkscape:pageshadow="2"
     inkscape:window-width="640"
     inkscape:window-height="480"
     id="namedview4" /><g
     id="g10"
     inkscape:groupmode="layer"
     inkscape:label="logo"
     transform="matrix(1.3333333,0,0,-1.3333333,0,2271.0933)"><g
       id="g12"
       transform="translate(0,1058.4435)"><path
         d="m 0,0 v -217.102 h 302.135 v -827.169 h 268.639 v 827.169 H 879.351 V 0 Z"
         style="fill:#000000;fill-opacity:1;fill-rule:nonzero;stroke:none"
         id="path14" /></g><g
       id="g16"
       transform="translate(1894.6316,1058.4427)"><path
         d="M 0,0 H 266.06 L 49.604,-1044.27 h -166.851 l -53.47,44.451 z m -31.566,-1001.108 -52.826,-43.162 H -229.34 l -223.542,1003.04 81.815,40.586 h 128.843 z M -469.631,0 H -339.5 l 78.594,-42.518 -219.033,-1001.752 h -144.948 l -50.249,49.604 z m -66.999,-1005.617 -55.402,-38.653 H -758.883 L -975.983,0 h 267.348 z"
         style="fill:#000000;fill-opacity:1;fill-rule:nonzero;stroke:none"
         id="path18" /></g><g
       id="g20"><g
         id="g22"
         clip-path="url(#clipPath26)"><g
           id="g28"
           transform="translate(2874.4802,552.7352)"><path
             d="m 0,0 c 0,65.71 -7.086,121.112 -21.903,165.563 -14.817,44.45 -36.076,77.95 -64.421,100.497 -28.346,22.548 -62.489,33.499 -102.43,33.499 -41.874,0 -77.306,-10.951 -105.007,-33.499 -27.701,-22.547 -48.316,-56.046 -62.489,-100.497 C -370.423,121.112 -376.865,65.71 -376.865,0 v -32.211 c 0,-64.421 7.087,-119.179 21.259,-164.274 14.173,-45.095 35.432,-79.238 63.133,-102.43 27.701,-23.192 63.133,-34.787 105.007,-34.787 39.941,0 74.084,11.595 102.43,34.787 27.701,23.192 48.96,57.335 63.777,102.43 C -7.086,-151.39 0,-96.632 0,-32.211 Z m 273.146,-32.211 c 0,-108.228 -19.97,-200.994 -59.267,-278.944 -39.297,-77.95 -94.056,-137.218 -162.986,-179.091 -69.575,-41.874 -148.813,-62.489 -238.359,-62.489 -90.19,0 -170.717,20.615 -240.292,62.488 -69.575,41.874 -124.333,101.786 -163.63,179.092 -39.297,77.95 -59.268,170.716 -59.268,278.944 v 30.922 c 0,108.228 19.327,200.995 58.624,278.945 39.297,77.95 93.411,137.862 162.986,179.735 69.575,41.874 149.457,63.133 239.647,63.133 89.546,0 168.784,-21.259 238.359,-63.133 69.575,-41.873 124.333,-101.785 163.631,-179.735 39.941,-77.95 59.267,-170.717 59.267,-278.945 v -30.922 z"
             style="fill:#000000;fill-opacity:1;fill-rule:nonzero;stroke:none"
             id="path30" /></g><g
           id="g32"
           transform="translate(6008.5781,354.3176)"><path
             d="m 0,0 v 217.1 h 254.464 c 32.211,0 58.624,5.154 78.595,15.461 19.97,10.307 34.787,25.124 44.45,43.162 9.664,18.682 14.173,39.297 14.173,63.777 0,25.769 -4.509,50.249 -14.173,72.152 -9.663,22.548 -24.48,40.586 -44.45,54.114 -19.971,13.529 -46.384,20.615 -78.595,20.615 H 100.498 v -827.17 H -169.428 V 704.125 h 423.892 c 84.392,0 157.832,-15.461 219.033,-47.027 61.2,-31.567 108.872,-74.729 141.726,-128.843 33.499,-54.758 49.604,-116.603 49.604,-186.178 0,-67.642 -16.749,-127.554 -49.604,-178.447 C 581.724,112.737 534.697,72.796 473.496,43.806 412.296,14.817 338.855,0.644 254.464,0.644 Z"
             style="fill:#000000;fill-opacity:1;fill-rule:nonzero;stroke:none"
             id="path34" /></g><path
           d="m 7501.221,14.173 h -525.034 v 216.456 h 525.034 z m -430.335,0 h -268.637 v 1044.27 h 268.637 z"
           style="fill:#000000;fill-opacity:1;fill-rule:nonzero;stroke:none"
           id="path36" /><g
           id="g38"
           transform="translate(8008.2168,806.5554)"><path
             d="m 0,0 -35.432,251.887 h 184.245 l 385.24,-1044.27 H 244.801 Z m 242.225,-617.156 h -535.342 v 217.099 h 535.985 z m -439.354,-175.227 h -289.252 l 382.663,1044.27 H 78.595 L 47.028,0 Z"
             style="fill:#000000;fill-opacity:1;fill-rule:nonzero;stroke:none"
             id="path40" /></g><g
           id="g42"
           transform="translate(9467.3604,373.644)"><path
             d="m 0,0 c -2.577,-73.44 -22.548,-138.506 -58.623,-194.552 -36.076,-56.047 -86.969,-99.854 -150.746,-131.42 -64.422,-31.566 -139.794,-47.028 -226.763,-47.028 -94.055,0 -174.582,20.615 -241.58,61.845 -66.999,41.23 -117.892,100.497 -153.323,177.803 -35.432,76.661 -52.825,168.784 -52.825,275.723 v 42.518 c 0,106.94 18.682,199.062 55.402,276.368 36.72,76.661 88.257,136.573 154.611,177.803 66.354,41.874 144.304,62.489 233.204,62.489 92.768,0 170.717,-16.75 233.851,-50.249 63.133,-33.499 112.093,-79.238 146.881,-137.217 34.787,-57.98 55.402,-123.045 61.2,-195.841 h -267.993 c -0.644,54.758 -14.172,95.343 -39.297,121.756 -25.124,27.057 -70.219,39.941 -134.641,39.941 -38.652,0 -70.863,-9.019 -95.987,-27.701 -25.125,-18.682 -43.808,-48.96 -56.047,-91.478 -12.24,-42.518 -18.038,-101.142 -18.038,-174.582 v -43.807 c 0,-74.084 5.154,-132.708 16.106,-175.226 10.951,-42.518 28.989,-73.44 54.757,-91.478 25.769,-18.038 59.913,-27.057 103.719,-27.057 36.075,0 66.354,5.154 90.834,15.461 25.124,10.308 43.807,27.057 57.335,49.605 12.884,22.547 19.971,51.537 20.614,87.613 L 0,1.289 Z"
             style="fill:#000000;fill-opacity:1;fill-rule:nonzero;stroke:none"
             id="path44" /></g><path
           d="m 10302.261,14.173 h -551.446 v 216.456 h 551.446 z m -70.864,430.979 h -480.583 v 208.725 h 480.583 z m 73.441,396.191 h -554.024 v 217.1 h 553.379 z m -458.68,-827.17 h -269.281 v 1044.27 h 269.925 z"
           style="fill:#000000;fill-opacity:1;fill-rule:nonzero;stroke:none"
           id="path46" /><g
           id="g48"
           transform="translate(5457.1318,1119.6431)"><path
             d="M 0,0 C -79.238,61.2 -245.445,164.919 -311.799,344.01 -429.69,138.506 -561.11,21.903 -702.837,-30.278 c -175.226,-64.421 -355.606,-29.634 -527.611,21.259 -172.005,50.893 -340.789,119.824 -496.044,142.371 -136.574,19.971 -259.618,7.731 -380.73,-81.171 237.715,-204.86 382.663,-383.951 505.063,-516.659 130.775,-142.371 233.849,-229.34 426.47,-264.127 1.288,0 1.932,-0.645 3.221,-0.645 126.265,-30.278 306.645,-5.797 462.545,88.258 155.9,93.411 289.252,252.531 335.635,492.823 4.509,23.836 23.191,41.874 46.383,45.739 115.315,19.971 200.995,37.365 261.551,52.826 43.806,11.595 70.219,21.903 88.257,29.633 C 15.461,-12.884 14.173,-10.952 0,0"
             style="fill:#bec991;fill-opacity:1;fill-rule:nonzero;stroke:none"
             id="path50" /></g><g
           id="g52"
           transform="translate(3623.7007,1221.4287)"><path
             d="m 0,0 c -36.076,0 -71.508,-29.634 -71.508,-76.661 0,-47.028 35.432,-76.662 71.508,-76.662 36.076,0 71.508,29.634 71.508,76.662 C 71.508,-29.634 36.076,0 0,0"
             style="fill:#000000;fill-opacity:1;fill-rule:nonzero;stroke:none"
             id="path54" /></g><g
           id="g56"
           transform="translate(3969.6428,932.8212)"><path
             d="m 0,0 c -28.99,-202.283 107.584,-392.326 324.684,-481.227 217.1,-88.902 477.362,-68.931 668.693,53.469 l -59.911,96.632 c -155.9,-99.853 -384.596,-118.535 -566.908,-44.45 -182.313,74.084 -275.724,216.455 -255.109,358.827 z"
             style="fill:#000000;fill-opacity:1;fill-rule:nonzero;stroke:none"
             id="path58" /></g><g
           id="g60"
           transform="translate(4691.1621,14.817)"><path
             d="m 0,0 c -0.644,143.015 -0.644,286.031 -1.289,429.046 h -2.577 -23.191 c -14.817,-1.288 -29.634,0.644 -44.451,1.933 0.644,-143.66 0.644,-287.964 1.288,-431.623 z"
             style="fill:#000000;fill-opacity:1;fill-rule:nonzero;stroke:none"
             id="path62" /></g><g
           id="g64"
           transform="translate(5145.3325,1463.6531)"><path
             d="m 0,0 c 66.354,-179.091 232.561,-282.81 311.799,-344.01 14.173,-10.952 15.462,-12.884 21.904,-19.971 -18.038,-7.73 -44.451,-18.038 -88.258,-29.634 -60.556,-15.461 -146.236,-32.854 -261.55,-52.825 -23.191,-3.865 -41.874,-21.903 -46.384,-45.739 -46.383,-240.292 -179.735,-399.412 -335.635,-492.823 -155.899,-94.056 -336.279,-118.536 -462.545,-88.258 -1.288,0 -1.932,0.645 -3.221,0.645 -192.62,34.787 -295.694,121.756 -426.469,264.127 -122.401,132.708 -267.349,311.799 -505.064,516.659 121.112,88.902 244.157,101.142 380.73,81.171 155.256,-22.547 324.04,-91.478 496.045,-142.371 172.005,-50.893 352.384,-85.68 527.61,-21.259 C -249.311,-322.107 -117.891,-205.504 0,0 m 30.922,239.647 c -23.191,0.645 -44.45,-12.884 -54.114,-34.143 -130.131,-291.829 -268.637,-421.316 -407.787,-472.208 -139.149,-50.893 -291.184,-25.769 -455.458,23.191 -164.275,48.961 -336.28,121.112 -512.15,146.237 -175.871,25.124 -360.76,-1.933 -523.746,-150.746 -12.24,-10.952 -19.326,-27.057 -18.682,-43.807 0.644,-16.749 7.731,-32.21 20.615,-42.518 263.483,-217.1 409.075,-403.277 545.649,-551.446 135.928,-147.525 269.925,-258.974 488.958,-298.915 162.342,-38.653 366.557,-7.087 546.937,101.785 172.005,103.719 320.818,280.233 380.086,531.476 94.055,16.75 176.515,32.211 233.206,47.028 65.709,16.749 109.516,30.922 143.659,54.758 17.394,11.596 33.499,27.701 41.874,50.893 8.374,23.836 3.865,50.893 -4.51,68.931 -17.394,36.076 -43.806,54.114 -73.44,76.661 -117.247,90.19 -308.579,200.995 -295.05,432.267 0.644,15.461 -4.51,30.923 -14.817,41.874 -11.596,11.596 -26.413,18.038 -41.23,18.682"
             style="fill:#000000;fill-opacity:1;fill-rule:nonzero;stroke:none"
             id="path66" /></g><g
           id="g68"
           transform="translate(4807.1201,16.1055)"><path
             d="m 0,0 c -0.644,143.015 -0.644,286.031 -1.288,429.046 h -2.577 -23.192 c -14.817,-1.288 -29.633,0.644 -44.451,1.933 0.644,-143.66 0.644,-287.964 1.289,-431.623 z"
             style="fill:#000000;fill-opacity:1;fill-rule:nonzero;stroke:none"
             id="path70" /></g><g
           id="g72"
           transform="translate(5145.3325,1463.6531)"><path
             d="m 0,0 c 66.354,-179.091 232.561,-282.81 311.799,-344.01 14.173,-10.952 15.462,-12.884 21.904,-19.971 -18.038,-7.73 -44.451,-18.038 -88.258,-29.634 -60.556,-15.461 -146.236,-32.854 -261.55,-52.825 -23.191,-3.865 -41.874,-21.903 -46.384,-45.739 -46.383,-240.292 -179.735,-399.412 -335.635,-492.823 -155.899,-94.056 -336.279,-118.536 -462.545,-88.258 -1.288,0 -1.932,0.645 -3.221,0.645 -192.62,34.787 -295.694,121.756 -426.469,264.127 -122.401,132.708 -267.349,311.799 -505.064,516.659 121.112,88.902 244.157,101.142 380.73,81.171 155.256,-22.547 324.04,-91.478 496.045,-142.371 172.005,-50.893 352.384,-85.68 527.61,-21.259 C -249.311,-322.107 -117.891,-205.504 0,0 m 30.922,239.647 c -23.191,0.645 -44.45,-12.884 -54.114,-34.143 -130.131,-291.829 -268.637,-421.316 -407.787,-472.208 -139.149,-50.893 -291.184,-25.769 -455.458,23.191 -164.275,48.961 -336.28,121.112 -512.15,146.237 -175.871,25.124 -360.76,-1.933 -523.746,-150.746 -12.24,-10.952 -19.326,-27.057 -18.682,-43.807 0.644,-16.749 7.731,-32.21 20.615,-42.518 263.483,-217.1 409.075,-403.277 545.649,-551.446 135.928,-147.525 269.925,-258.974 488.958,-298.915 162.342,-38.653 366.557,-7.087 546.937,101.785 172.005,103.719 320.818,280.233 380.086,531.476 94.055,16.75 176.515,32.211 233.206,47.028 65.709,16.749 109.516,30.922 143.659,54.758 17.394,11.596 33.499,27.701 41.874,50.893 8.374,23.836 3.865,50.893 -4.51,68.931 -17.394,36.076 -43.806,54.114 -73.44,76.661 -117.247,90.19 -308.579,200.995 -295.05,432.267 0.644,15.461 -4.51,30.923 -14.817,41.874 -11.596,11.596 -26.413,18.038 -41.23,18.682"
             style="fill:#000000;fill-opacity:1;fill-rule:nonzero;stroke:none"
             id="path74" /></g></g></g></g></svg>
