<?xml version="1.0" encoding="utf-8"?>
<!-- Generator: Adobe Illustrator 25.0.1, SVG Export Plug-In . SVG Version: 6.00 Build 0)  -->
<svg version="1.1" id="Layer_1" xmlns="http://www.w3.org/2000/svg" xmlns:xlink="http://www.w3.org/1999/xlink" x="0px" y="0px"
	 viewBox="0 0 172 30" style="enable-background:new 0 0 172 30;" xml:space="preserve">
<style type="text/css">
	.st0{opacity:0.5;fill:#108E7E;enable-background:new    ;}
	.st1{opacity:0.7;fill:#108E7E;enable-background:new    ;}
	.st2{opacity:0.9;fill:#108E7E;enable-background:new    ;}
	.st3{fill:#108E7E;}
	.st4{font-family:'MyriadPro-Regular';}
	.st5{font-size:20px;}
</style>
<path class="st0" d="M29.4,10.6c-0.7,1.6-1.8,3.1-3,4.4c-2.5,2.5-5.9,4.1-9.5,4.3c3,2.1,6.7,2.8,10.3,2l1.7-0.4
	C30.2,17.7,30.4,14,29.4,10.6z"/>
<path class="st1" d="M13.6,19.2c-0.6-0.6-1.2-1.3-1.6-2c0.2,3.1,1.5,6.1,3.8,8.3c0.9,0.9,2,1.7,3.2,2.3l1.8,1
	c1.8-0.8,3.5-1.9,4.9-3.3c0.7-0.7,1.4-1.5,1.9-2.4C22.5,24.4,17.2,22.9,13.6,19.2z"/>
<path class="st2" d="M14.3,27c-5.9-5.9-5.8-15.4,0.1-21.3c0.4-0.4,0.9-0.8,1.3-1.2c-8.1,3.5-11.8,13-8.3,21.1c0,0,0,0,0,0
	c0,0.1,0.1,0.2,0.1,0.3l1.2,2.7c2.9,1.3,6.1,1.7,9.2,1.1C16.6,29,15.4,28.1,14.3,27z"/>
<path class="st3" d="M9.3,6.5C4,11.8,2.6,19.9,5.7,26.8c-6.5-5.1-7.6-14.6-2.5-21.1C6.1,2.1,10.4,0,15,0c2.1,0,4.1,0.4,6,1.3
	C16.6,1.5,12.4,3.4,9.3,6.5z"/>
<text transform="matrix(1 0 0 1 35.8374 21.1635)"><tspan x="0" y="0" class="st0 st4 st5">two</tspan><tspan x="32.3" y="0" class="st4 st5"> </tspan><tspan x="36.6" y="0" class="st1 st4 st5">birdie</tspan><tspan x="85.1" y="0" class="st4 st5"> </tspan><tspan x="89.4" y="0" class="st3 st4 st5">place</tspan></text>
</svg>
