<?xml version="1.0" encoding="utf-8"?>
<!-- Generator: Adobe Illustrator 25.0.1, SVG Export Plug-In . SVG Version: 6.00 Build 0)  -->
<svg version="1.1" id="Layer_1" xmlns="http://www.w3.org/2000/svg" xmlns:xlink="http://www.w3.org/1999/xlink" x="0px" y="0px"
	 viewBox="0 0 63 30" style="enable-background:new 0 0 63 30;" xml:space="preserve">
<style type="text/css">
	.st0{opacity:0.5;fill:#108E7E;enable-background:new    ;}
	.st1{opacity:0.7;fill:#108E7E;enable-background:new    ;}
	.st2{opacity:0.9;fill:#108E7E;enable-background:new    ;}
	.st3{fill:#108E7E;}
	.st4{opacity:0.5;enable-background:new    ;}
	.st5{opacity:0.7;enable-background:new    ;}
	.st6{enable-background:new    ;}
</style>
<path class="st0" d="M29.4,10.6c-0.7,1.6-1.8,3.1-3,4.4c-2.5,2.5-5.9,4.1-9.5,4.3c3,2.1,6.7,2.8,10.3,2l1.7-0.4
	C30.2,17.7,30.4,14,29.4,10.6z"/>
<path class="st1" d="M13.6,19.2c-0.6-0.6-1.2-1.3-1.6-2c0.2,3.1,1.5,6.1,3.8,8.3c0.9,0.9,2,1.7,3.2,2.3l1.8,1
	c1.8-0.8,3.5-1.9,4.9-3.3c0.7-0.7,1.4-1.5,1.9-2.4C22.5,24.4,17.2,22.9,13.6,19.2z"/>
<path class="st2" d="M14.3,27c-5.9-5.9-5.8-15.4,0.1-21.3c0.4-0.4,0.9-0.8,1.3-1.2C7.6,8,3.9,17.5,7.4,25.6l0,0
	c0,0.1,0.1,0.2,0.1,0.3l1.2,2.7c2.9,1.3,6.1,1.7,9.2,1.1C16.6,29,15.4,28.1,14.3,27z"/>
<path class="st3" d="M9.3,6.5C4,11.8,2.6,19.9,5.7,26.8c-6.5-5.1-7.6-14.6-2.5-21.1C6.1,2.1,10.4,0,15,0c2.1,0,4.1,0.4,6,1.3
	C16.6,1.5,12.4,3.4,9.3,6.5z"/>
<g class="st4">
	<path class="st3" d="M35.4,0.3V2H37v0.8h-1.6v3.3c0,0.8,0.2,1.2,0.8,1.2c0.3,0,0.5,0,0.6-0.1l0,0.8c-0.2,0.1-0.5,0.2-1,0.2
		c-0.5,0-0.9-0.2-1.2-0.5c-0.3-0.3-0.4-0.9-0.4-1.6V2.9h-0.9V2h0.9V0.6L35.4,0.3z"/>
	<path class="st3" d="M38.8,2l0.8,3.1C39.8,5.8,39.9,6.4,40,7h0c0.1-0.6,0.3-1.3,0.5-1.9l1-3.1h0.9l0.9,3c0.2,0.7,0.4,1.4,0.5,2h0
		c0.1-0.6,0.3-1.2,0.5-2l0.9-3h1.1l-1.9,6h-1l-0.9-2.9c-0.2-0.7-0.4-1.3-0.5-2h0c-0.1,0.7-0.3,1.3-0.5,2l-1,2.9h-1l-1.8-6H38.8z"/>
	<path class="st3" d="M52.9,5c0,2.2-1.5,3.2-3,3.2C48.3,8.2,47,7,47,5.1c0-2,1.3-3.2,3-3.2C51.7,1.9,52.9,3.1,52.9,5z M48.1,5.1
		c0,1.3,0.8,2.3,1.8,2.3c1,0,1.8-1,1.8-2.3c0-1-0.5-2.3-1.8-2.3S48.1,3.9,48.1,5.1z"/>
</g>
<g class="st5">
	<path class="st3" d="M34.1,17.6c0-0.4,0-1,0-1.6V8.7h1.1v3.8h0c0.4-0.7,1.1-1.1,2.1-1.1c1.5,0,2.6,1.2,2.5,3.1
		c0,2.2-1.4,3.2-2.7,3.2c-0.9,0-1.6-0.3-2-1.1h0l0,1H34.1z M35.2,15.1c0,0.1,0,0.3,0,0.4c0.2,0.8,0.9,1.3,1.6,1.3
		c1.1,0,1.8-0.9,1.8-2.3c0-1.2-0.6-2.2-1.8-2.2c-0.8,0-1.4,0.5-1.7,1.3c0,0.1-0.1,0.3-0.1,0.5V15.1z"/>
	<path class="st3" d="M42.4,9.8c0,0.4-0.3,0.7-0.7,0.7c-0.4,0-0.7-0.3-0.7-0.7c0-0.4,0.3-0.7,0.7-0.7C42.2,9.1,42.4,9.4,42.4,9.8z
		 M41.2,17.6v-6h1.1v6H41.2z"/>
	<path class="st3" d="M44.1,13.4c0-0.7,0-1.3,0-1.9h1l0,1.2h0.1c0.3-0.8,0.9-1.3,1.7-1.3c0.1,0,0.2,0,0.3,0v1c-0.1,0-0.2,0-0.4,0
		c-0.8,0-1.3,0.6-1.5,1.4c0,0.1,0,0.3,0,0.5v3.2h-1.1V13.4z"/>
	<path class="st3" d="M53.3,8.7V16c0,0.5,0,1.2,0,1.6h-1l0-1h0c-0.3,0.7-1.1,1.2-2.1,1.2c-1.5,0-2.6-1.2-2.6-3.1
		c0-2,1.2-3.2,2.7-3.2c0.9,0,1.5,0.4,1.8,0.9h0V8.7H53.3z M52.2,14c0-0.1,0-0.3,0-0.5c-0.2-0.7-0.8-1.3-1.6-1.3
		c-1.1,0-1.8,1-1.8,2.3c0,1.2,0.6,2.2,1.8,2.2c0.7,0,1.4-0.5,1.6-1.3c0-0.2,0-0.3,0-0.5V14z"/>
	<path class="st3" d="M56.4,9.8c0,0.4-0.3,0.7-0.7,0.7c-0.4,0-0.7-0.3-0.7-0.7c0-0.4,0.3-0.7,0.7-0.7C56.1,9.1,56.4,9.4,56.4,9.8z
		 M55.2,17.6v-6h1.1v6H55.2z"/>
	<path class="st3" d="M58.7,14.7c0,1.5,1,2.1,2.1,2.1c0.8,0,1.3-0.1,1.7-0.3l0.2,0.8c-0.4,0.2-1,0.4-2,0.4c-1.9,0-3-1.2-3-3
		c0-1.8,1.1-3.3,2.8-3.3c2,0,2.5,1.7,2.5,2.8c0,0.2,0,0.4,0,0.5H58.7z M61.9,13.9c0-0.7-0.3-1.8-1.5-1.8c-1.1,0-1.6,1-1.7,1.8H61.9z
		"/>
</g>
<g class="st6">
	<path class="st3" d="M34.1,23.2c0-0.8,0-1.4,0-2h1l0,1h0c0.5-0.7,1.2-1.2,2.1-1.2c1.5,0,2.6,1.2,2.6,3.1c0,2.2-1.3,3.2-2.7,3.2
		c-0.8,0-1.5-0.4-1.9-1h0v3.3h-1.1V23.2z M35.2,24.8c0,0.2,0,0.3,0,0.5c0.2,0.8,0.9,1.3,1.6,1.3c1.2,0,1.8-1,1.8-2.3
		c0-1.2-0.6-2.2-1.8-2.2c-0.8,0-1.4,0.5-1.7,1.4c0,0.1-0.1,0.3-0.1,0.5V24.8z"/>
	<path class="st3" d="M41.2,18.4h1.1v8.9h-1.1V18.4z"/>
	<path class="st3" d="M47.5,27.3l-0.1-0.8h0c-0.3,0.5-1,0.9-1.8,0.9c-1.2,0-1.8-0.9-1.8-1.7c0-1.5,1.3-2.3,3.6-2.2v-0.1
		c0-0.5-0.1-1.4-1.4-1.4c-0.6,0-1.1,0.2-1.6,0.5l-0.2-0.7c0.5-0.3,1.2-0.5,2-0.5c1.8,0,2.3,1.3,2.3,2.5v2.3c0,0.5,0,1,0.1,1.4H47.5z
		 M47.4,24.2c-1.2,0-2.6,0.2-2.6,1.4c0,0.7,0.5,1,1,1c0.8,0,1.3-0.5,1.5-1c0-0.1,0.1-0.2,0.1-0.3V24.2z"/>
	<path class="st3" d="M54.5,27.1c-0.3,0.1-0.9,0.3-1.7,0.3c-1.8,0-3-1.2-3-3.1c0-1.9,1.3-3.2,3.2-3.2c0.6,0,1.2,0.2,1.5,0.3
		l-0.2,0.8C54,22.1,53.6,22,53,22c-1.4,0-2.1,1-2.1,2.3c0,1.4,0.9,2.3,2.1,2.3c0.6,0,1-0.2,1.3-0.3L54.5,27.1z"/>
	<path class="st3" d="M56.3,24.5c0,1.5,1,2.1,2.1,2.1c0.8,0,1.3-0.1,1.7-0.3l0.2,0.8c-0.4,0.2-1,0.4-2,0.4c-1.9,0-3-1.2-3-3
		c0-1.8,1.1-3.3,2.8-3.3c2,0,2.5,1.7,2.5,2.8c0,0.2,0,0.4,0,0.5H56.3z M59.6,23.7c0-0.7-0.3-1.8-1.5-1.8c-1.1,0-1.6,1-1.7,1.8H59.6z
		"/>
</g>
</svg>
