<?xml version="1.0" encoding="utf-8"?>
<!-- Generator: Adobe Illustrator 26.0.3, SVG Export Plug-In . SVG Version: 6.00 Build 0)  -->
<svg version="1.1" id="Layer_1" xmlns="http://www.w3.org/2000/svg" xmlns:xlink="http://www.w3.org/1999/xlink" x="0px" y="0px"
	 viewBox="0 0 1601.2 262.2" style="enable-background:new 0 0 1601.2 262.2;" xml:space="preserve">
<path d="M561.9,74.8c-5.6,0-11.1,4.6-11.1,11.9s5.5,11.9,11.1,11.9c5.6,0,11.1-4.6,11.1-11.9C573,79.4,567.5,74.8,561.9,74.8z"/>
<path d="M615.6,119.6c-4.5,31.4,16.7,60.9,50.4,74.7s74.1,10.7,103.8-8.3l-9.3-15c-24.2,15.5-59.7,18.4-88,6.9
	c-28.3-11.5-42.8-33.6-39.6-55.7L615.6,119.6z"/>
<path d="M727.6,262.1c-0.1-22.2-0.1-44.4-0.2-66.6c-0.1,0-0.3,0-0.4,0c-1.2,0-2.4,0-3.6,0c-2.3,0.2-4.6-0.1-6.9-0.3
	c0.1,22.3,0.1,44.7,0.2,67L727.6,262.1z"/>
<path d="M802.9,0c-3.6-0.1-6.9,2-8.4,5.3c-20.2,45.3-41.7,65.4-63.3,73.3s-45.2,4-70.7-3.6S608.3,56.2,581,52.3
	c-27.3-3.9-56,0.3-81.3,23.4c-1.9,1.7-3,4.2-2.9,6.8c0.1,2.6,1.2,5,3.2,6.6c40.9,33.7,63.5,62.6,84.7,85.6
	c21.1,22.9,41.9,40.2,75.9,46.4c25.2,6,56.9,1.1,84.9-15.8c26.7-16.1,49.8-43.5,59-82.5c14.6-2.6,27.4-5,36.2-7.3
	c10.2-2.6,17-4.8,22.3-8.5c2.7-1.8,5.2-4.3,6.5-7.9c1.3-3.7,0.6-7.9-0.7-10.7c-2.7-5.6-6.8-8.4-11.4-11.9
	c-18.2-14-47.9-31.2-45.8-67.1l0,0c0.1-2.4-0.7-4.8-2.3-6.5C807.5,1.1,805.2,0.1,802.9,0L802.9,0z M798.1,37.2
	c10.3,27.8,36.1,43.9,48.4,53.4c2.2,1.7,2.4,2,3.4,3.1c-2.8,1.2-6.9,2.8-13.7,4.6c-9.4,2.4-22.7,5.1-40.6,8.2l0,0
	c-3.6,0.6-6.5,3.4-7.2,7.1c-7.2,37.3-27.9,62-52.1,76.5c-24.2,14.6-52.2,18.4-71.8,13.7c-0.2,0-0.3-0.1-0.5-0.1
	c-29.9-5.4-45.9-18.9-66.2-41c-19-20.6-41.5-48.4-78.4-80.2c18.8-13.8,37.9-15.7,59.1-12.6c24.1,3.5,50.3,14.2,77,22.1
	c26.7,7.9,54.7,13.3,81.9,3.3C759.4,87.2,779.8,69.1,798.1,37.2L798.1,37.2z"/>
<path d="M745.6,261.9c-0.1-22.2-0.1-44.4-0.2-66.6c-0.1,0-0.3,0-0.4,0c-1.2,0-2.4,0-3.6,0c-2.3,0.2-4.6-0.1-6.9-0.3
	c0.1,22.3,0.1,44.7,0.2,67L745.6,261.9z"/>
<g>
	<g>
		<path d="M135.9,133.8H-0.6v-33.7h136.5V133.8z M88,262.2H46.3V100.1H88V262.2z"/>
		<path d="M210.2,256.2l-8.6,6h-25.9L142,100.1h41.5L210.2,256.2z M220.6,100.1h20.2l12.2,6.6l-34,155.5h-22.5l-7.8-7.7L220.6,100.1
			z M288.6,255.5l-8.2,6.7h-22.5l-34.7-155.7l12.7-6.3h20L288.6,255.5z M293.5,100.1h41.3l-33.6,162.1h-25.9l-8.3-6.9L293.5,100.1z"
			/>
		<path d="M488,183.6c0,16.8-3.1,31.2-9.2,43.3c-6.1,12.1-14.6,21.3-25.3,27.8c-10.8,6.5-23.1,9.7-37,9.7c-14,0-26.5-3.2-37.3-9.7
			c-10.8-6.5-19.3-15.8-25.4-27.8c-6.1-12.1-9.2-26.5-9.2-43.3v-4.8c0-16.8,3-31.2,9.1-43.3c6.1-12.1,14.5-21.4,25.3-27.9
			c10.8-6.5,23.2-9.8,37.2-9.8c13.9,0,26.2,3.3,37,9.8c10.8,6.5,19.3,15.8,25.4,27.9c6.2,12.1,9.2,26.5,9.2,43.3V183.6z
			 M445.6,178.6c0-10.2-1.1-18.8-3.4-25.7c-2.3-6.9-5.6-12.1-10-15.6c-4.4-3.5-9.7-5.2-15.9-5.2c-6.5,0-12,1.7-16.3,5.2
			c-4.3,3.5-7.5,8.7-9.7,15.6c-2.2,6.9-3.2,15.5-3.2,25.7v5c0,10,1.1,18.5,3.3,25.5c2.2,7,5.5,12.3,9.8,15.9
			c4.3,3.6,9.8,5.4,16.3,5.4c6.2,0,11.5-1.8,15.9-5.4c4.3-3.6,7.6-8.9,9.9-15.9c2.2-7,3.3-15.5,3.3-25.5V178.6z"/>
		<path d="M932.1,209.4v-33.7h39.5c5,0,9.1-0.8,12.2-2.4c3.1-1.6,5.4-3.9,6.9-6.7c1.5-2.9,2.2-6.1,2.2-9.9c0-4-0.7-7.8-2.2-11.2
			c-1.5-3.5-3.8-6.3-6.9-8.4s-7.2-3.2-12.2-3.2h-23.9v128.4h-41.9V100.1h65.8c13.1,0,24.5,2.4,34,7.3c9.5,4.9,16.9,11.6,22,20
			c5.2,8.5,7.7,18.1,7.7,28.9c0,10.5-2.6,19.8-7.7,27.7c-5.2,7.9-12.5,14.1-22,18.6c-9.5,4.5-20.9,6.7-34,6.7H932.1z"/>
		<path d="M1097,262.2h-41.7V100.1h41.7V262.2z M1163.8,262.2h-81.5v-33.6h81.5V262.2z"/>
		<path d="M1211.9,262.2H1167l59.4-162.1h28.3l-4.9,39.1L1211.9,262.2z M1280.1,235H1197v-33.7h83.2V235z M1242.5,139.2l-5.5-39.1
			h28.6l59.8,162.1h-44.9L1242.5,139.2z"/>
		<path d="M1469,206.4c-0.4,11.4-3.5,21.5-9.1,30.2c-5.6,8.7-13.5,15.5-23.4,20.4c-10,4.9-21.7,7.3-35.2,7.3
			c-14.6,0-27.1-3.2-37.5-9.6c-10.4-6.4-18.3-15.6-23.8-27.6c-5.5-11.9-8.2-26.2-8.2-42.8v-6.6c0-16.6,2.9-30.9,8.6-42.9
			c5.7-11.9,13.7-21.2,24-27.6c10.3-6.5,22.4-9.7,36.2-9.7c14.4,0,26.5,2.6,36.3,7.8c9.8,5.2,17.4,12.3,22.8,21.3
			c5.4,9,8.6,19.1,9.5,30.4h-41.6c-0.1-8.5-2.2-14.8-6.1-18.9c-3.9-4.2-10.9-6.2-20.9-6.2c-6,0-11,1.4-14.9,4.3
			c-3.9,2.9-6.8,7.6-8.7,14.2c-1.9,6.6-2.8,15.7-2.8,27.1v6.8c0,11.5,0.8,20.6,2.5,27.2c1.7,6.6,4.5,11.4,8.5,14.2
			c4,2.8,9.3,4.2,16.1,4.2c5.6,0,10.3-0.8,14.1-2.4c3.9-1.6,6.8-4.2,8.9-7.7c2-3.5,3.1-8,3.2-13.6H1469z"/>
		<path d="M1527.8,262.2H1486V100.1h41.9V262.2z M1599,133.8H1513v-33.7h85.9V133.8z M1587.6,195.3H1513v-32.4h74.6V195.3z
			 M1598.6,262.2H1513v-33.6h85.6V262.2z"/>
	</g>
</g>
</svg>
